G04 #@! TF.GenerationSoftware,KiCad,Pcbnew,8.0.7*
G04 #@! TF.CreationDate,2024-12-22T13:16:04-05:00*
G04 #@! TF.ProjectId,firstProject,66697273-7450-4726-9f6a-6563742e6b69,rev?*
G04 #@! TF.SameCoordinates,Original*
G04 #@! TF.FileFunction,Legend,Top*
G04 #@! TF.FilePolarity,Positive*
%FSLAX46Y46*%
G04 Gerber Fmt 4.6, Leading zero omitted, Abs format (unit mm)*
G04 Created by KiCad (PCBNEW 8.0.7) date 2024-12-22 13:16:04*
%MOMM*%
%LPD*%
G01*
G04 APERTURE LIST*
%ADD10C,0.100000*%
%ADD11C,0.150000*%
%ADD12C,0.120000*%
%ADD13C,1.600000*%
%ADD14O,1.600000X1.600000*%
%ADD15R,1.700000X1.700000*%
%ADD16O,1.700000X1.700000*%
%ADD17R,1.800000X1.800000*%
%ADD18C,1.800000*%
G04 APERTURE END LIST*
D10*
X123256265Y-82586704D02*
X123732455Y-82586704D01*
X123161027Y-82872419D02*
X123494360Y-81872419D01*
X123494360Y-81872419D02*
X123827693Y-82872419D01*
X124161027Y-82872419D02*
X124161027Y-82205752D01*
X124161027Y-82396228D02*
X124208646Y-82300990D01*
X124208646Y-82300990D02*
X124256265Y-82253371D01*
X124256265Y-82253371D02*
X124351503Y-82205752D01*
X124351503Y-82205752D02*
X124446741Y-82205752D01*
X125208646Y-82872419D02*
X125208646Y-82348609D01*
X125208646Y-82348609D02*
X125161027Y-82253371D01*
X125161027Y-82253371D02*
X125065789Y-82205752D01*
X125065789Y-82205752D02*
X124875313Y-82205752D01*
X124875313Y-82205752D02*
X124780075Y-82253371D01*
X125208646Y-82824800D02*
X125113408Y-82872419D01*
X125113408Y-82872419D02*
X124875313Y-82872419D01*
X124875313Y-82872419D02*
X124780075Y-82824800D01*
X124780075Y-82824800D02*
X124732456Y-82729561D01*
X124732456Y-82729561D02*
X124732456Y-82634323D01*
X124732456Y-82634323D02*
X124780075Y-82539085D01*
X124780075Y-82539085D02*
X124875313Y-82491466D01*
X124875313Y-82491466D02*
X125113408Y-82491466D01*
X125113408Y-82491466D02*
X125208646Y-82443847D01*
X126113408Y-82205752D02*
X126113408Y-83015276D01*
X126113408Y-83015276D02*
X126065789Y-83110514D01*
X126065789Y-83110514D02*
X126018170Y-83158133D01*
X126018170Y-83158133D02*
X125922932Y-83205752D01*
X125922932Y-83205752D02*
X125780075Y-83205752D01*
X125780075Y-83205752D02*
X125684837Y-83158133D01*
X126113408Y-82824800D02*
X126018170Y-82872419D01*
X126018170Y-82872419D02*
X125827694Y-82872419D01*
X125827694Y-82872419D02*
X125732456Y-82824800D01*
X125732456Y-82824800D02*
X125684837Y-82777180D01*
X125684837Y-82777180D02*
X125637218Y-82681942D01*
X125637218Y-82681942D02*
X125637218Y-82396228D01*
X125637218Y-82396228D02*
X125684837Y-82300990D01*
X125684837Y-82300990D02*
X125732456Y-82253371D01*
X125732456Y-82253371D02*
X125827694Y-82205752D01*
X125827694Y-82205752D02*
X126018170Y-82205752D01*
X126018170Y-82205752D02*
X126113408Y-82253371D01*
X126494361Y-82205752D02*
X126732456Y-82872419D01*
X126970551Y-82205752D02*
X126732456Y-82872419D01*
X126732456Y-82872419D02*
X126637218Y-83110514D01*
X126637218Y-83110514D02*
X126589599Y-83158133D01*
X126589599Y-83158133D02*
X126494361Y-83205752D01*
X127780075Y-82872419D02*
X127780075Y-82348609D01*
X127780075Y-82348609D02*
X127732456Y-82253371D01*
X127732456Y-82253371D02*
X127637218Y-82205752D01*
X127637218Y-82205752D02*
X127446742Y-82205752D01*
X127446742Y-82205752D02*
X127351504Y-82253371D01*
X127780075Y-82824800D02*
X127684837Y-82872419D01*
X127684837Y-82872419D02*
X127446742Y-82872419D01*
X127446742Y-82872419D02*
X127351504Y-82824800D01*
X127351504Y-82824800D02*
X127303885Y-82729561D01*
X127303885Y-82729561D02*
X127303885Y-82634323D01*
X127303885Y-82634323D02*
X127351504Y-82539085D01*
X127351504Y-82539085D02*
X127446742Y-82491466D01*
X127446742Y-82491466D02*
X127684837Y-82491466D01*
X127684837Y-82491466D02*
X127780075Y-82443847D01*
X129541980Y-81920038D02*
X129446742Y-81872419D01*
X129446742Y-81872419D02*
X129303885Y-81872419D01*
X129303885Y-81872419D02*
X129161028Y-81920038D01*
X129161028Y-81920038D02*
X129065790Y-82015276D01*
X129065790Y-82015276D02*
X129018171Y-82110514D01*
X129018171Y-82110514D02*
X128970552Y-82300990D01*
X128970552Y-82300990D02*
X128970552Y-82443847D01*
X128970552Y-82443847D02*
X129018171Y-82634323D01*
X129018171Y-82634323D02*
X129065790Y-82729561D01*
X129065790Y-82729561D02*
X129161028Y-82824800D01*
X129161028Y-82824800D02*
X129303885Y-82872419D01*
X129303885Y-82872419D02*
X129399123Y-82872419D01*
X129399123Y-82872419D02*
X129541980Y-82824800D01*
X129541980Y-82824800D02*
X129589599Y-82777180D01*
X129589599Y-82777180D02*
X129589599Y-82443847D01*
X129589599Y-82443847D02*
X129399123Y-82443847D01*
X130161028Y-82872419D02*
X130065790Y-82824800D01*
X130065790Y-82824800D02*
X130018171Y-82777180D01*
X130018171Y-82777180D02*
X129970552Y-82681942D01*
X129970552Y-82681942D02*
X129970552Y-82396228D01*
X129970552Y-82396228D02*
X130018171Y-82300990D01*
X130018171Y-82300990D02*
X130065790Y-82253371D01*
X130065790Y-82253371D02*
X130161028Y-82205752D01*
X130161028Y-82205752D02*
X130303885Y-82205752D01*
X130303885Y-82205752D02*
X130399123Y-82253371D01*
X130399123Y-82253371D02*
X130446742Y-82300990D01*
X130446742Y-82300990D02*
X130494361Y-82396228D01*
X130494361Y-82396228D02*
X130494361Y-82681942D01*
X130494361Y-82681942D02*
X130446742Y-82777180D01*
X130446742Y-82777180D02*
X130399123Y-82824800D01*
X130399123Y-82824800D02*
X130303885Y-82872419D01*
X130303885Y-82872419D02*
X130161028Y-82872419D01*
X130827695Y-82205752D02*
X131065790Y-82872419D01*
X131303885Y-82205752D02*
X131065790Y-82872419D01*
X131065790Y-82872419D02*
X130970552Y-83110514D01*
X130970552Y-83110514D02*
X130922933Y-83158133D01*
X130922933Y-83158133D02*
X130827695Y-83205752D01*
X132113409Y-82872419D02*
X132113409Y-82348609D01*
X132113409Y-82348609D02*
X132065790Y-82253371D01*
X132065790Y-82253371D02*
X131970552Y-82205752D01*
X131970552Y-82205752D02*
X131780076Y-82205752D01*
X131780076Y-82205752D02*
X131684838Y-82253371D01*
X132113409Y-82824800D02*
X132018171Y-82872419D01*
X132018171Y-82872419D02*
X131780076Y-82872419D01*
X131780076Y-82872419D02*
X131684838Y-82824800D01*
X131684838Y-82824800D02*
X131637219Y-82729561D01*
X131637219Y-82729561D02*
X131637219Y-82634323D01*
X131637219Y-82634323D02*
X131684838Y-82539085D01*
X131684838Y-82539085D02*
X131780076Y-82491466D01*
X131780076Y-82491466D02*
X132018171Y-82491466D01*
X132018171Y-82491466D02*
X132113409Y-82443847D01*
X132732457Y-82872419D02*
X132637219Y-82824800D01*
X132637219Y-82824800D02*
X132589600Y-82729561D01*
X132589600Y-82729561D02*
X132589600Y-81872419D01*
D11*
X128833333Y-70084819D02*
X128500000Y-69608628D01*
X128261905Y-70084819D02*
X128261905Y-69084819D01*
X128261905Y-69084819D02*
X128642857Y-69084819D01*
X128642857Y-69084819D02*
X128738095Y-69132438D01*
X128738095Y-69132438D02*
X128785714Y-69180057D01*
X128785714Y-69180057D02*
X128833333Y-69275295D01*
X128833333Y-69275295D02*
X128833333Y-69418152D01*
X128833333Y-69418152D02*
X128785714Y-69513390D01*
X128785714Y-69513390D02*
X128738095Y-69561009D01*
X128738095Y-69561009D02*
X128642857Y-69608628D01*
X128642857Y-69608628D02*
X128261905Y-69608628D01*
X129785714Y-70084819D02*
X129214286Y-70084819D01*
X129500000Y-70084819D02*
X129500000Y-69084819D01*
X129500000Y-69084819D02*
X129404762Y-69227676D01*
X129404762Y-69227676D02*
X129309524Y-69322914D01*
X129309524Y-69322914D02*
X129214286Y-69370533D01*
X123761009Y-79515714D02*
X123808628Y-79372857D01*
X123808628Y-79372857D02*
X123856247Y-79325238D01*
X123856247Y-79325238D02*
X123951485Y-79277619D01*
X123951485Y-79277619D02*
X124094342Y-79277619D01*
X124094342Y-79277619D02*
X124189580Y-79325238D01*
X124189580Y-79325238D02*
X124237200Y-79372857D01*
X124237200Y-79372857D02*
X124284819Y-79468095D01*
X124284819Y-79468095D02*
X124284819Y-79849047D01*
X124284819Y-79849047D02*
X123284819Y-79849047D01*
X123284819Y-79849047D02*
X123284819Y-79515714D01*
X123284819Y-79515714D02*
X123332438Y-79420476D01*
X123332438Y-79420476D02*
X123380057Y-79372857D01*
X123380057Y-79372857D02*
X123475295Y-79325238D01*
X123475295Y-79325238D02*
X123570533Y-79325238D01*
X123570533Y-79325238D02*
X123665771Y-79372857D01*
X123665771Y-79372857D02*
X123713390Y-79420476D01*
X123713390Y-79420476D02*
X123761009Y-79515714D01*
X123761009Y-79515714D02*
X123761009Y-79849047D01*
X123284819Y-78991904D02*
X123284819Y-78420476D01*
X124284819Y-78706190D02*
X123284819Y-78706190D01*
X124284819Y-77563333D02*
X124284819Y-78134761D01*
X124284819Y-77849047D02*
X123284819Y-77849047D01*
X123284819Y-77849047D02*
X123427676Y-77944285D01*
X123427676Y-77944285D02*
X123522914Y-78039523D01*
X123522914Y-78039523D02*
X123570533Y-78134761D01*
X134256905Y-74994819D02*
X134256905Y-73994819D01*
X134256905Y-73994819D02*
X134495000Y-73994819D01*
X134495000Y-73994819D02*
X134637857Y-74042438D01*
X134637857Y-74042438D02*
X134733095Y-74137676D01*
X134733095Y-74137676D02*
X134780714Y-74232914D01*
X134780714Y-74232914D02*
X134828333Y-74423390D01*
X134828333Y-74423390D02*
X134828333Y-74566247D01*
X134828333Y-74566247D02*
X134780714Y-74756723D01*
X134780714Y-74756723D02*
X134733095Y-74851961D01*
X134733095Y-74851961D02*
X134637857Y-74947200D01*
X134637857Y-74947200D02*
X134495000Y-74994819D01*
X134495000Y-74994819D02*
X134256905Y-74994819D01*
X135780714Y-74994819D02*
X135209286Y-74994819D01*
X135495000Y-74994819D02*
X135495000Y-73994819D01*
X135495000Y-73994819D02*
X135399762Y-74137676D01*
X135399762Y-74137676D02*
X135304524Y-74232914D01*
X135304524Y-74232914D02*
X135209286Y-74280533D01*
D12*
X122420000Y-72000000D02*
X125730000Y-72000000D01*
X125730000Y-70630000D02*
X125730000Y-73370000D01*
X125730000Y-73370000D02*
X132270000Y-73370000D01*
X132270000Y-70630000D02*
X125730000Y-70630000D01*
X132270000Y-73370000D02*
X132270000Y-70630000D01*
X135580000Y-72000000D02*
X132270000Y-72000000D01*
X120170000Y-76130000D02*
X120170000Y-81330000D01*
X120230000Y-76130000D02*
X120170000Y-76130000D01*
X120230000Y-76130000D02*
X120230000Y-78730000D01*
X120230000Y-78730000D02*
X122830000Y-78730000D01*
X121500000Y-76130000D02*
X122830000Y-76130000D01*
X122830000Y-76130000D02*
X122830000Y-77460000D01*
X122830000Y-78730000D02*
X122830000Y-81330000D01*
X122830000Y-81330000D02*
X120170000Y-81330000D01*
X132435000Y-76955000D02*
X132435000Y-80045000D01*
X132435000Y-76955170D02*
G75*
G02*
X137985000Y-78499952I2560000J-1544830D01*
G01*
X137985000Y-78500048D02*
G75*
G02*
X132435000Y-80044830I-2990000J48D01*
G01*
X137495000Y-78500000D02*
G75*
G02*
X132495000Y-78500000I-2500000J0D01*
G01*
X132495000Y-78500000D02*
G75*
G02*
X137495000Y-78500000I2500000J0D01*
G01*
%LPC*%
D13*
X121380000Y-72000000D03*
D14*
X136620000Y-72000000D03*
D15*
X121500000Y-77460000D03*
D16*
X121500000Y-80000000D03*
D17*
X133725000Y-78500000D03*
D18*
X136265000Y-78500000D03*
%LPD*%
M02*
