G04 #@! TF.GenerationSoftware,KiCad,Pcbnew,9.0.0*
G04 #@! TF.CreationDate,2025-03-14T13:45:31-04:00*
G04 #@! TF.ProjectId,Gmouse,476d6f75-7365-42e6-9b69-6361645f7063,rev?*
G04 #@! TF.SameCoordinates,Original*
G04 #@! TF.FileFunction,Soldermask,Top*
G04 #@! TF.FilePolarity,Negative*
%FSLAX46Y46*%
G04 Gerber Fmt 4.6, Leading zero omitted, Abs format (unit mm)*
G04 Created by KiCad (PCBNEW 9.0.0) date 2025-03-14 13:45:31*
%MOMM*%
%LPD*%
G01*
G04 APERTURE LIST*
G04 Aperture macros list*
%AMRoundRect*
0 Rectangle with rounded corners*
0 $1 Rounding radius*
0 $2 $3 $4 $5 $6 $7 $8 $9 X,Y pos of 4 corners*
0 Add a 4 corners polygon primitive as box body*
4,1,4,$2,$3,$4,$5,$6,$7,$8,$9,$2,$3,0*
0 Add four circle primitives for the rounded corners*
1,1,$1+$1,$2,$3*
1,1,$1+$1,$4,$5*
1,1,$1+$1,$6,$7*
1,1,$1+$1,$8,$9*
0 Add four rect primitives between the rounded corners*
20,1,$1+$1,$2,$3,$4,$5,0*
20,1,$1+$1,$4,$5,$6,$7,0*
20,1,$1+$1,$6,$7,$8,$9,0*
20,1,$1+$1,$8,$9,$2,$3,0*%
%AMRotRect*
0 Rectangle, with rotation*
0 The origin of the aperture is its center*
0 $1 length*
0 $2 width*
0 $3 Rotation angle, in degrees counterclockwise*
0 Add horizontal line*
21,1,$1,$2,0,0,$3*%
G04 Aperture macros list end*
%ADD10RoundRect,0.150000X-0.587500X-0.150000X0.587500X-0.150000X0.587500X0.150000X-0.587500X0.150000X0*%
%ADD11RoundRect,0.250000X0.625000X-0.400000X0.625000X0.400000X-0.625000X0.400000X-0.625000X-0.400000X0*%
%ADD12R,1.700000X1.700000*%
%ADD13O,1.700000X1.700000*%
%ADD14RoundRect,0.250000X0.625000X-0.350000X0.625000X0.350000X-0.625000X0.350000X-0.625000X-0.350000X0*%
%ADD15O,1.750000X1.200000*%
%ADD16RoundRect,0.250000X-0.400000X-0.625000X0.400000X-0.625000X0.400000X0.625000X-0.400000X0.625000X0*%
%ADD17RoundRect,0.250000X0.400000X0.625000X-0.400000X0.625000X-0.400000X-0.625000X0.400000X-0.625000X0*%
%ADD18RoundRect,0.250000X-0.625000X0.400000X-0.625000X-0.400000X0.625000X-0.400000X0.625000X0.400000X0*%
%ADD19RoundRect,0.250000X-1.050000X-0.550000X1.050000X-0.550000X1.050000X0.550000X-1.050000X0.550000X0*%
%ADD20R,1.800000X1.800000*%
%ADD21C,1.800000*%
%ADD22RoundRect,0.250000X-0.650000X0.412500X-0.650000X-0.412500X0.650000X-0.412500X0.650000X0.412500X0*%
%ADD23RoundRect,0.250000X-0.159099X0.724784X-0.724784X0.159099X0.159099X-0.724784X0.724784X-0.159099X0*%
%ADD24RoundRect,0.250000X-0.724784X-0.159099X-0.159099X-0.724784X0.724784X0.159099X0.159099X0.724784X0*%
%ADD25RotRect,1.800000X1.800000X225.000000*%
%ADD26RoundRect,0.150000X0.625000X-0.150000X0.625000X0.150000X-0.625000X0.150000X-0.625000X-0.150000X0*%
%ADD27RoundRect,0.250000X0.650000X-0.350000X0.650000X0.350000X-0.650000X0.350000X-0.650000X-0.350000X0*%
%ADD28RoundRect,0.250000X0.650000X-0.412500X0.650000X0.412500X-0.650000X0.412500X-0.650000X-0.412500X0*%
%ADD29R,1.397000X1.397000*%
%ADD30C,1.397000*%
%ADD31C,1.404000*%
%ADD32C,1.304000*%
%ADD33C,0.804000*%
%ADD34R,0.450000X1.750000*%
%ADD35RoundRect,0.102000X-0.375000X0.500000X-0.375000X-0.500000X0.375000X-0.500000X0.375000X0.500000X0*%
%ADD36RoundRect,0.102000X1.387500X-1.387500X1.387500X1.387500X-1.387500X1.387500X-1.387500X-1.387500X0*%
%ADD37C,2.979000*%
%ADD38RotRect,1.800000X1.800000X135.000000*%
%ADD39RoundRect,0.102000X-0.900000X0.450000X-0.900000X-0.450000X0.900000X-0.450000X0.900000X0.450000X0*%
%ADD40RoundRect,0.375000X0.375000X-0.625000X0.375000X0.625000X-0.375000X0.625000X-0.375000X-0.625000X0*%
%ADD41RoundRect,0.500000X1.400000X-0.500000X1.400000X0.500000X-1.400000X0.500000X-1.400000X-0.500000X0*%
%ADD42RoundRect,0.250000X-0.250000X0.250000X-0.250000X-0.250000X0.250000X-0.250000X0.250000X0.250000X0*%
G04 APERTURE END LIST*
D10*
X84062500Y-126050000D03*
X84062500Y-127950000D03*
X85937500Y-127000000D03*
D11*
X118500000Y-53550000D03*
X118500000Y-50450000D03*
D12*
X85220000Y-57000000D03*
D13*
X87760000Y-57000000D03*
X90300000Y-57000000D03*
X92840000Y-57000000D03*
X95380000Y-57000000D03*
X97920000Y-57000000D03*
X100460000Y-57000000D03*
X103000000Y-57000000D03*
D14*
X79000000Y-76000000D03*
D15*
X79000000Y-74000000D03*
D16*
X65450000Y-60000000D03*
X68550000Y-60000000D03*
D17*
X126050000Y-53000000D03*
X122950000Y-53000000D03*
D16*
X103450000Y-126000000D03*
X106550000Y-126000000D03*
D18*
X115500000Y-55950000D03*
X115500000Y-59050000D03*
D19*
X76700000Y-106500000D03*
X80300000Y-106500000D03*
X76700000Y-101500000D03*
X80300000Y-101500000D03*
X107700000Y-106500000D03*
X111300000Y-106500000D03*
D20*
X78000000Y-45485000D03*
D21*
X75460000Y-45485000D03*
D22*
X69000000Y-50937500D03*
X69000000Y-54062500D03*
D20*
X112540000Y-45485000D03*
D21*
X110000000Y-45485000D03*
D23*
X122596016Y-45403984D03*
X120403984Y-47596016D03*
D24*
X56403984Y-49903984D03*
X58596016Y-52096016D03*
D25*
X61072900Y-46269800D03*
D21*
X59276849Y-48065851D03*
D20*
X112540000Y-48000000D03*
D21*
X110000000Y-48000000D03*
D26*
X74325000Y-136500000D03*
X74325000Y-135500000D03*
X74325000Y-134500000D03*
X74325000Y-133500000D03*
X74325000Y-132500000D03*
X74325000Y-131500000D03*
D27*
X71800000Y-137800000D03*
X71800000Y-130200000D03*
D17*
X92000000Y-127000000D03*
X88900000Y-127000000D03*
D28*
X113500000Y-53562500D03*
X113500000Y-50437500D03*
D20*
X63000000Y-56460000D03*
D21*
X63000000Y-59000000D03*
D29*
X98000000Y-137000000D03*
D30*
X100540000Y-137000000D03*
X103080000Y-137000000D03*
X105620000Y-137000000D03*
X108160000Y-137000000D03*
X110700000Y-137000000D03*
X110700000Y-129380000D03*
X108160000Y-129380000D03*
X105620000Y-129380000D03*
X103080000Y-129380000D03*
X100540000Y-129380000D03*
X98000000Y-129380000D03*
D20*
X78040000Y-48000000D03*
D21*
X75500000Y-48000000D03*
D28*
X116000000Y-53562500D03*
X116000000Y-50437500D03*
D20*
X60000000Y-56460000D03*
D21*
X60000000Y-59000000D03*
D31*
X131510000Y-62380000D03*
X128970000Y-62380000D03*
X126430000Y-62380000D03*
X123890000Y-62380000D03*
X121350000Y-62380000D03*
X118810000Y-62380000D03*
X116270000Y-62380000D03*
X113730000Y-62380000D03*
X111190000Y-62380000D03*
X108650000Y-62380000D03*
X106110000Y-62380000D03*
X103570000Y-62380000D03*
X101030000Y-62380000D03*
X98490000Y-62380000D03*
X98490000Y-64920000D03*
X98490000Y-67460000D03*
X98490000Y-70000000D03*
X98490000Y-72540000D03*
X98490000Y-75080000D03*
X98490000Y-77620000D03*
X101030000Y-77620000D03*
X103570000Y-77620000D03*
X106110000Y-77620000D03*
X108650000Y-77620000D03*
X111190000Y-77620000D03*
X113730000Y-77620000D03*
X116270000Y-77620000D03*
X118810000Y-77620000D03*
X121350000Y-77620000D03*
X123890000Y-77620000D03*
X126430000Y-77620000D03*
X128970000Y-77620000D03*
X131510000Y-77620000D03*
X128970000Y-75080000D03*
D32*
X103570000Y-75080000D03*
X106110000Y-75080000D03*
X103570000Y-72540000D03*
X106110000Y-72540000D03*
X103570000Y-70000000D03*
X106110000Y-70000000D03*
X103570000Y-67460000D03*
X106110000Y-67460000D03*
X103570000Y-64920000D03*
X106110000Y-64920000D03*
D33*
X124371600Y-73500000D03*
X124371600Y-72500000D03*
X124371600Y-71500000D03*
X124371600Y-70500000D03*
X124371600Y-69500000D03*
X124371600Y-68500000D03*
X124371600Y-67500000D03*
X124371600Y-66500000D03*
D32*
X130240000Y-71270000D03*
X130240000Y-68730000D03*
D10*
X77062500Y-51550000D03*
X77062500Y-53450000D03*
X78937500Y-52500000D03*
D18*
X106500000Y-45450000D03*
X106500000Y-48550000D03*
X66500000Y-50950000D03*
X66500000Y-54050000D03*
D17*
X72550000Y-46000000D03*
X69450000Y-46000000D03*
D10*
X118562500Y-56600000D03*
X118562500Y-58500000D03*
X120437500Y-57550000D03*
D11*
X79500000Y-59000000D03*
X79500000Y-55900000D03*
D34*
X97425000Y-107600000D03*
X98075000Y-107600000D03*
X98725000Y-107600000D03*
X99375000Y-107600000D03*
X100025000Y-107600000D03*
X100675000Y-107600000D03*
X101325000Y-107600000D03*
X101975000Y-107600000D03*
X102625000Y-107600000D03*
X103275000Y-107600000D03*
X103925000Y-107600000D03*
X104575000Y-107600000D03*
X104575000Y-100400000D03*
X103925000Y-100400000D03*
X103275000Y-100400000D03*
X102625000Y-100400000D03*
X101975000Y-100400000D03*
X101325000Y-100400000D03*
X100675000Y-100400000D03*
X100025000Y-100400000D03*
X99375000Y-100400000D03*
X98725000Y-100400000D03*
X98075000Y-100400000D03*
X97425000Y-100400000D03*
D35*
X114925000Y-126750000D03*
X114925000Y-131250000D03*
X117075000Y-126750000D03*
X117075000Y-131250000D03*
D19*
X107700000Y-101500000D03*
X111300000Y-101500000D03*
D25*
X62971000Y-48167800D03*
D21*
X61174949Y-49963851D03*
D36*
X65765000Y-74700000D03*
D37*
X65765000Y-70000000D03*
X65765000Y-65300000D03*
X56235000Y-76605000D03*
X56235000Y-63395000D03*
D26*
X80325000Y-136500000D03*
X80325000Y-135500000D03*
X80325000Y-134500000D03*
X80325000Y-133500000D03*
X80325000Y-132500000D03*
X80325000Y-131500000D03*
D27*
X77800000Y-137800000D03*
X77800000Y-130200000D03*
D38*
X126832200Y-49971000D03*
D21*
X125036149Y-48174949D03*
D35*
X114925000Y-133750000D03*
X114925000Y-138250000D03*
X117075000Y-133750000D03*
X117075000Y-138250000D03*
D39*
X78000000Y-127750000D03*
X78000000Y-124250000D03*
D34*
X83425000Y-107600000D03*
X84075000Y-107600000D03*
X84725000Y-107600000D03*
X85375000Y-107600000D03*
X86025000Y-107600000D03*
X86675000Y-107600000D03*
X87325000Y-107600000D03*
X87975000Y-107600000D03*
X88625000Y-107600000D03*
X89275000Y-107600000D03*
X89925000Y-107600000D03*
X90575000Y-107600000D03*
X90575000Y-100400000D03*
X89925000Y-100400000D03*
X89275000Y-100400000D03*
X88625000Y-100400000D03*
X87975000Y-100400000D03*
X87325000Y-100400000D03*
X86675000Y-100400000D03*
X86025000Y-100400000D03*
X85375000Y-100400000D03*
X84725000Y-100400000D03*
X84075000Y-100400000D03*
X83425000Y-100400000D03*
D20*
X128000000Y-59000000D03*
D21*
X128000000Y-56460000D03*
D38*
X128730200Y-48072900D03*
D21*
X126934149Y-46276849D03*
D26*
X92325000Y-136500000D03*
X92325000Y-135500000D03*
X92325000Y-134500000D03*
X92325000Y-133500000D03*
X92325000Y-132500000D03*
X92325000Y-131500000D03*
D27*
X89800000Y-137800000D03*
X89800000Y-130200000D03*
D14*
X72000000Y-76000000D03*
D15*
X72000000Y-74000000D03*
D18*
X77000000Y-55900000D03*
X77000000Y-59000000D03*
D40*
X71700000Y-69150000D03*
X74000000Y-69150000D03*
D41*
X74000000Y-62850000D03*
D40*
X76300000Y-69150000D03*
D26*
X86325000Y-136500000D03*
X86325000Y-135500000D03*
X86325000Y-134500000D03*
X86325000Y-133500000D03*
X86325000Y-132500000D03*
X86325000Y-131500000D03*
D27*
X83800000Y-137800000D03*
X83800000Y-130200000D03*
D22*
X71500000Y-50937500D03*
X71500000Y-54062500D03*
D42*
X81500000Y-125250000D03*
X81500000Y-127750000D03*
D16*
X97450000Y-126000000D03*
X100550000Y-126000000D03*
D20*
X125000000Y-59000000D03*
D21*
X125000000Y-56460000D03*
D16*
X109450000Y-126000000D03*
X112550000Y-126000000D03*
D11*
X113000000Y-59050000D03*
X113000000Y-55950000D03*
D40*
X80700000Y-69150000D03*
X83000000Y-69150000D03*
D41*
X83000000Y-62850000D03*
D40*
X85300000Y-69150000D03*
M02*
