G04 #@! TF.GenerationSoftware,KiCad,Pcbnew,9.0.0*
G04 #@! TF.CreationDate,2025-03-14T13:45:31-04:00*
G04 #@! TF.ProjectId,Gmouse,476d6f75-7365-42e6-9b69-6361645f7063,rev?*
G04 #@! TF.SameCoordinates,Original*
G04 #@! TF.FileFunction,Soldermask,Bot*
G04 #@! TF.FilePolarity,Negative*
%FSLAX46Y46*%
G04 Gerber Fmt 4.6, Leading zero omitted, Abs format (unit mm)*
G04 Created by KiCad (PCBNEW 9.0.0) date 2025-03-14 13:45:31*
%MOMM*%
%LPD*%
G01*
G04 APERTURE LIST*
G04 Aperture macros list*
%AMRoundRect*
0 Rectangle with rounded corners*
0 $1 Rounding radius*
0 $2 $3 $4 $5 $6 $7 $8 $9 X,Y pos of 4 corners*
0 Add a 4 corners polygon primitive as box body*
4,1,4,$2,$3,$4,$5,$6,$7,$8,$9,$2,$3,0*
0 Add four circle primitives for the rounded corners*
1,1,$1+$1,$2,$3*
1,1,$1+$1,$4,$5*
1,1,$1+$1,$6,$7*
1,1,$1+$1,$8,$9*
0 Add four rect primitives between the rounded corners*
20,1,$1+$1,$2,$3,$4,$5,0*
20,1,$1+$1,$4,$5,$6,$7,0*
20,1,$1+$1,$6,$7,$8,$9,0*
20,1,$1+$1,$8,$9,$2,$3,0*%
%AMRotRect*
0 Rectangle, with rotation*
0 The origin of the aperture is its center*
0 $1 length*
0 $2 width*
0 $3 Rotation angle, in degrees counterclockwise*
0 Add horizontal line*
21,1,$1,$2,0,0,$3*%
G04 Aperture macros list end*
%ADD10R,1.700000X1.700000*%
%ADD11O,1.700000X1.700000*%
%ADD12RoundRect,0.250000X0.625000X-0.350000X0.625000X0.350000X-0.625000X0.350000X-0.625000X-0.350000X0*%
%ADD13O,1.750000X1.200000*%
%ADD14R,1.800000X1.800000*%
%ADD15C,1.800000*%
%ADD16RotRect,1.800000X1.800000X225.000000*%
%ADD17R,1.397000X1.397000*%
%ADD18C,1.397000*%
%ADD19C,1.404000*%
%ADD20C,1.304000*%
%ADD21C,0.804000*%
%ADD22R,2.775000X2.775000*%
%ADD23C,2.775000*%
%ADD24RotRect,1.800000X1.800000X135.000000*%
%ADD25RoundRect,0.250000X-0.412500X-0.650000X0.412500X-0.650000X0.412500X0.650000X-0.412500X0.650000X0*%
G04 APERTURE END LIST*
D10*
X85220000Y-57000000D03*
D11*
X87760000Y-57000000D03*
X90300000Y-57000000D03*
X92840000Y-57000000D03*
X95380000Y-57000000D03*
X97920000Y-57000000D03*
X100460000Y-57000000D03*
X103000000Y-57000000D03*
D12*
X79000000Y-76000000D03*
D13*
X79000000Y-74000000D03*
D14*
X78000000Y-45485000D03*
D15*
X75460000Y-45485000D03*
D14*
X112540000Y-45485000D03*
D15*
X110000000Y-45485000D03*
D16*
X61072900Y-46269800D03*
D15*
X59276849Y-48065851D03*
D14*
X112540000Y-48000000D03*
D15*
X110000000Y-48000000D03*
D14*
X63000000Y-56460000D03*
D15*
X63000000Y-59000000D03*
D17*
X98000000Y-137000000D03*
D18*
X100540000Y-137000000D03*
X103080000Y-137000000D03*
X105620000Y-137000000D03*
X108160000Y-137000000D03*
X110700000Y-137000000D03*
X110700000Y-129380000D03*
X108160000Y-129380000D03*
X105620000Y-129380000D03*
X103080000Y-129380000D03*
X100540000Y-129380000D03*
X98000000Y-129380000D03*
D14*
X78040000Y-48000000D03*
D15*
X75500000Y-48000000D03*
D14*
X60000000Y-56460000D03*
D15*
X60000000Y-59000000D03*
D19*
X131510000Y-62380000D03*
X128970000Y-62380000D03*
X126430000Y-62380000D03*
X123890000Y-62380000D03*
X121350000Y-62380000D03*
X118810000Y-62380000D03*
X116270000Y-62380000D03*
X113730000Y-62380000D03*
X111190000Y-62380000D03*
X108650000Y-62380000D03*
X106110000Y-62380000D03*
X103570000Y-62380000D03*
X101030000Y-62380000D03*
X98490000Y-62380000D03*
X98490000Y-64920000D03*
X98490000Y-67460000D03*
X98490000Y-70000000D03*
X98490000Y-72540000D03*
X98490000Y-75080000D03*
X98490000Y-77620000D03*
X101030000Y-77620000D03*
X103570000Y-77620000D03*
X106110000Y-77620000D03*
X108650000Y-77620000D03*
X111190000Y-77620000D03*
X113730000Y-77620000D03*
X116270000Y-77620000D03*
X118810000Y-77620000D03*
X121350000Y-77620000D03*
X123890000Y-77620000D03*
X126430000Y-77620000D03*
X128970000Y-77620000D03*
X131510000Y-77620000D03*
X128970000Y-75080000D03*
D20*
X103570000Y-75080000D03*
X106110000Y-75080000D03*
X103570000Y-72540000D03*
X106110000Y-72540000D03*
X103570000Y-70000000D03*
X106110000Y-70000000D03*
X103570000Y-67460000D03*
X106110000Y-67460000D03*
X103570000Y-64920000D03*
X106110000Y-64920000D03*
D21*
X124371600Y-73500000D03*
X124371600Y-72500000D03*
X124371600Y-71500000D03*
X124371600Y-70500000D03*
X124371600Y-69500000D03*
X124371600Y-68500000D03*
X124371600Y-67500000D03*
X124371600Y-66500000D03*
D20*
X130240000Y-71270000D03*
X130240000Y-68730000D03*
D16*
X62971000Y-48167800D03*
D15*
X61174949Y-49963851D03*
D22*
X65765000Y-74700000D03*
D23*
X65765000Y-70000000D03*
X65765000Y-65300000D03*
X56235000Y-76605000D03*
X56235000Y-63395000D03*
D24*
X126832200Y-49971000D03*
D15*
X125036149Y-48174949D03*
D14*
X128000000Y-59000000D03*
D15*
X128000000Y-56460000D03*
D24*
X128730200Y-48072900D03*
D15*
X126934149Y-46276849D03*
D12*
X72000000Y-76000000D03*
D13*
X72000000Y-74000000D03*
D14*
X125000000Y-59000000D03*
D15*
X125000000Y-56460000D03*
D25*
X107937500Y-106500000D03*
X111062500Y-106500000D03*
X76937500Y-101500000D03*
X80062500Y-101500000D03*
X76937500Y-106500000D03*
X80062500Y-106500000D03*
X107937500Y-101500000D03*
X111062500Y-101500000D03*
M02*
