M48
; DRILL file {KiCad 9.0.0} date 2025-03-14T13:45:36-0400
; FORMAT={-:-/ absolute / metric / decimal}
; #@! TF.CreationDate,2025-03-14T13:45:36-04:00
; #@! TF.GenerationSoftware,Kicad,Pcbnew,9.0.0
; #@! TF.FileFunction,Plated,1,4,PTH
FMAT,2
METRIC
; #@! TA.AperFunction,Plated,PTH,ViaDrill
T1C0.300
; #@! TA.AperFunction,Plated,PTH,ViaDrill
T2C0.381
; #@! TA.AperFunction,Plated,PTH,ComponentDrill
T3C0.500
; #@! TA.AperFunction,Plated,PTH,ComponentDrill
T4C0.750
; #@! TA.AperFunction,Plated,PTH,ComponentDrill
T5C0.889
; #@! TA.AperFunction,Plated,PTH,ComponentDrill
T6C0.900
; #@! TA.AperFunction,Plated,PTH,ComponentDrill
T7C1.000
; #@! TA.AperFunction,Plated,PTH,ComponentDrill
T8C1.100
; #@! TA.AperFunction,Plated,PTH,ComponentDrill
T9C1.850
%
G90
G05
T1
X57.0Y-53.0
X61.5Y-54.0
X62.2Y-53.2
X63.5Y-45.0
X63.8Y-53.7
X66.5Y-49.5
X67.5Y-45.0
X68.0Y-56.5
X70.0Y-67.0
X70.4Y-134.9
X70.8Y-134.05
X71.6Y-132.3
X75.0Y-54.0
X75.0Y-59.0
X75.9Y-104.6
X76.05Y-135.35
X76.45Y-134.4
X76.8Y-122.7
X78.5Y-67.0
X79.5Y-122.0
X80.3Y-100.077
X80.3Y-107.91
X80.3Y-122.0
X80.5Y-44.4
X81.6Y-130.0
X81.95Y-59.3
X82.1Y-131.35
X83.425Y-109.175
X83.55Y-60.0
X83.8Y-132.5
X84.806Y-98.972
X85.089Y-85.579
X85.728Y-97.948
X86.3Y-109.4
X86.519Y-102.15
X86.7Y-96.8
X87.25Y-128.5
X87.55Y-109.35
X87.641Y-98.004
X87.838Y-96.807
X87.9Y-102.3
X88.06Y-76.737
X88.323Y-135.391
X89.212Y-98.317
X89.8Y-131.5
X89.8Y-132.5
X90.2Y-109.3
X90.547Y-135.194
X93.1Y-71.8
X93.5Y-79.5
X93.647Y-133.8
X94.291Y-135.194
X94.4Y-69.0
X95.0Y-73.5
X95.0Y-75.75
X96.0Y-78.75
X96.0Y-81.5
X96.65Y-77.0
X96.85Y-69.95
X97.457Y-76.153
X98.1Y-93.9
X98.4Y-96.4
X99.0Y-109.5
X99.4Y-97.9
X99.512Y-96.688
X99.531Y-102.15
X99.9Y-70.9
X100.6Y-96.8
X101.7Y-102.0
X101.975Y-97.925
X102.0Y-126.5
X102.7Y-96.5
X103.0Y-109.5
X103.08Y-130.42
X103.4Y-97.7
X104.5Y-45.7
X104.9Y-94.6
X106.0Y-131.0
X106.4Y-104.3
X108.252Y-96.399
X108.5Y-50.438
X108.8Y-84.8
X110.0Y-60.3
X110.4Y-84.8
X111.3Y-100.071
X111.3Y-107.926
X111.717Y-79.634
X112.2Y-60.4
X113.25Y-127.5
X114.95Y-45.1
X115.75Y-132.5
X117.0Y-59.55
X117.6Y-71.33
X118.75Y-129.75
X118.75Y-137.0
X119.1Y-48.85
X120.0Y-54.0
X122.5Y-51.5
X126.8Y-72.65
X130.15Y-58.6
X130.5Y-75.5
X130.75Y-49.15
X132.0Y-64.0
T2
X74.65Y-102.7
X76.7Y-97.5
X79.1Y-62.6
X81.3Y-99.9
X81.4Y-108.1
X84.5Y-73.0
X85.0Y-109.5
X85.8Y-59.4
X88.15Y-95.5
X89.0Y-109.5
X90.6Y-59.2
X93.0Y-121.4
X94.5Y-137.5
X96.6Y-119.8
X96.6Y-121.4
X97.45Y-95.5
X97.6Y-109.0
X100.3Y-109.0
X105.85Y-99.65
X112.2Y-107.9
X112.3Y-100.0
T3
X124.372Y-66.5
X124.372Y-67.5
X124.372Y-68.5
X124.372Y-69.5
X124.372Y-70.5
X124.372Y-71.5
X124.372Y-72.5
X124.372Y-73.5
T4
X72.0Y-74.0
X72.0Y-76.0
X79.0Y-74.0
X79.0Y-76.0
T5
X98.0Y-129.38
X98.0Y-137.0
X100.54Y-129.38
X100.54Y-137.0
X103.08Y-129.38
X103.08Y-137.0
X105.62Y-129.38
X105.62Y-137.0
X108.16Y-129.38
X108.16Y-137.0
X110.7Y-129.38
X110.7Y-137.0
T6
X59.277Y-48.066
X60.0Y-56.46
X60.0Y-59.0
X61.073Y-46.27
X61.175Y-49.964
X62.971Y-48.168
X63.0Y-56.46
X63.0Y-59.0
X75.46Y-45.485
X75.5Y-48.0
X78.0Y-45.485
X78.04Y-48.0
X110.0Y-45.485
X110.0Y-48.0
X112.54Y-45.485
X112.54Y-48.0
X125.0Y-56.46
X125.0Y-59.0
X125.036Y-48.175
X126.832Y-49.971
X126.934Y-46.277
X128.0Y-56.46
X128.0Y-59.0
X128.73Y-48.073
T7
X85.22Y-57.0
X87.76Y-57.0
X90.3Y-57.0
X92.84Y-57.0
X95.38Y-57.0
X97.92Y-57.0
X100.46Y-57.0
X103.0Y-57.0
X103.57Y-64.92
X103.57Y-67.46
X103.57Y-70.0
X103.57Y-72.54
X103.57Y-75.08
X106.11Y-64.92
X106.11Y-67.46
X106.11Y-70.0
X106.11Y-72.54
X106.11Y-75.08
X130.24Y-68.73
X130.24Y-71.27
T8
X98.49Y-62.38
X98.49Y-64.92
X98.49Y-67.46
X98.49Y-70.0
X98.49Y-72.54
X98.49Y-75.08
X98.49Y-77.62
X101.03Y-62.38
X101.03Y-77.62
X103.57Y-62.38
X103.57Y-77.62
X106.11Y-62.38
X106.11Y-77.62
X108.65Y-62.38
X108.65Y-77.62
X111.19Y-62.38
X111.19Y-77.62
X113.73Y-62.38
X113.73Y-77.62
X116.27Y-62.38
X116.27Y-77.62
X118.81Y-62.38
X118.81Y-77.62
X121.35Y-62.38
X121.35Y-77.62
X123.89Y-62.38
X123.89Y-77.62
X126.43Y-62.38
X126.43Y-77.62
X128.97Y-62.38
X128.97Y-75.08
X128.97Y-77.62
X131.51Y-62.38
X131.51Y-77.62
T9
X56.235Y-63.395
X56.235Y-76.605
X65.765Y-65.3
X65.765Y-70.0
X65.765Y-74.7
M30
