%TF.GenerationSoftware,KiCad,Pcbnew,9.0.0*%
%TF.CreationDate,2025-03-14T13:45:36-04:00*%
%TF.ProjectId,Gmouse,476d6f75-7365-42e6-9b69-6361645f7063,rev?*%
%TF.SameCoordinates,Original*%
%TF.FileFunction,Drillmap*%
%TF.FilePolarity,Positive*%
%FSLAX45Y45*%
G04 Gerber Fmt 4.5, Leading zero omitted, Abs format (unit mm)*
G04 Created by KiCad (PCBNEW 9.0.0) date 2025-03-14 13:45:36*
%MOMM*%
%LPD*%
G01*
G04 APERTURE LIST*
%ADD10C,0.050000*%
%ADD11C,0.200000*%
G04 APERTURE END LIST*
D10*
X9400000Y-4000000D02*
X9306981Y-4000001D01*
X9261017Y-4000003D01*
X9215414Y-4000008D01*
X9170173Y-4000015D01*
X9125290Y-4000026D01*
X9080765Y-4000041D01*
X9036597Y-4000061D01*
X8992783Y-4000087D01*
X8949322Y-4000119D01*
X8906213Y-4000159D01*
X8884791Y-4000181D01*
X8863455Y-4000206D01*
X8842207Y-4000233D01*
X8821046Y-4000262D01*
X8799972Y-4000293D01*
X8778985Y-4000327D01*
X8758084Y-4000363D01*
X8737269Y-4000402D01*
X8716541Y-4000444D01*
X8695898Y-4000488D01*
X8675342Y-4000535D01*
X8654871Y-4000586D01*
X8634486Y-4000639D01*
X8614186Y-4000695D01*
X8593971Y-4000755D01*
X8573841Y-4000818D01*
X8553796Y-4000884D01*
X8533835Y-4000954D01*
X8513959Y-4001027D01*
X8494167Y-4001104D01*
X8474459Y-4001185D01*
X8454834Y-4001269D01*
X8435294Y-4001358D01*
X8415837Y-4001450D01*
X8396463Y-4001547D01*
X8377173Y-4001648D01*
X8357965Y-4001753D01*
X8338841Y-4001863D01*
X8319798Y-4001977D01*
X8300839Y-4002095D01*
X8281961Y-4002218D01*
X8263166Y-4002346D01*
X8244453Y-4002479D01*
X8225821Y-4002617D01*
X8207271Y-4002760D01*
X8188802Y-4002907D01*
X8170414Y-4003060D01*
X8152108Y-4003219D01*
X8133882Y-4003382D01*
X8115737Y-4003551D01*
X8097672Y-4003726D01*
X8079687Y-4003906D01*
X8061783Y-4004092D01*
X8043959Y-4004284D01*
X8026214Y-4004482D01*
X8008549Y-4004685D01*
X7990963Y-4004895D01*
X7973457Y-4005111D01*
X7956030Y-4005333D01*
X7938681Y-4005562D01*
X7921411Y-4005797D01*
X7904220Y-4006038D01*
X7887107Y-4006286D01*
X7870072Y-4006541D01*
X7861584Y-4006671D01*
X7853115Y-4006803D01*
X7844665Y-4006936D01*
X7836236Y-4007071D01*
X7827825Y-4007208D01*
X7819434Y-4007347D01*
X7811062Y-4007487D01*
X7802710Y-4007629D01*
X7794377Y-4007773D01*
X7786063Y-4007919D01*
X7777768Y-4008067D01*
X7769493Y-4008216D01*
X7761237Y-4008367D01*
X7753000Y-4008520D01*
X7744783Y-4008675D01*
X7736584Y-4008832D01*
X7728405Y-4008991D01*
X7720244Y-4009151D01*
X7712103Y-4009314D01*
X7703981Y-4009478D01*
X7695878Y-4009644D01*
X7687794Y-4009812D01*
X7679729Y-4009983D01*
X7671683Y-4010155D01*
X7663656Y-4010329D01*
X7655647Y-4010505D01*
X7647658Y-4010683D01*
X7639688Y-4010863D01*
X7631736Y-4011045D01*
X7623803Y-4011229D01*
X7615889Y-4011415D01*
X7607994Y-4011603D01*
X7600118Y-4011794D01*
X7592261Y-4011986D01*
X7584422Y-4012180D01*
X7576602Y-4012377D01*
X7568800Y-4012575D01*
X7561017Y-4012776D01*
X7553253Y-4012979D01*
X7545508Y-4013184D01*
X7537781Y-4013391D01*
X7530073Y-4013600D01*
X7522383Y-4013811D01*
X7514711Y-4014025D01*
X7507059Y-4014241D01*
X7499424Y-4014459D01*
X7491809Y-4014679D01*
X7484211Y-4014901D01*
X7476632Y-4015126D01*
X7469072Y-4015353D01*
X7461530Y-4015582D01*
X7454006Y-4015813D01*
X7446500Y-4016047D01*
X7439013Y-4016283D01*
X7431544Y-4016521D01*
X7424094Y-4016762D01*
X7416661Y-4017005D01*
X7409247Y-4017250D01*
X7401851Y-4017498D01*
X7394473Y-4017747D01*
X7387113Y-4018000D01*
X7379772Y-4018255D01*
X7372449Y-4018512D01*
X7365143Y-4018771D01*
X7357856Y-4019033D01*
X7350587Y-4019297D01*
X7343335Y-4019564D01*
X7336102Y-4019833D01*
X7328887Y-4020105D01*
X7321689Y-4020379D01*
X7314510Y-4020656D01*
X7307349Y-4020935D01*
X7300205Y-4021217D01*
X7293079Y-4021501D01*
X7285971Y-4021787D01*
X7278881Y-4022077D01*
X7271809Y-4022368D01*
X7264754Y-4022663D01*
X7257717Y-4022960D01*
X7250698Y-4023259D01*
X7243697Y-4023561D01*
X7236713Y-4023866D01*
X7229747Y-4024173D01*
X7222799Y-4024483D01*
X7215868Y-4024796D01*
X7208955Y-4025111D01*
X7202059Y-4025429D01*
X7195181Y-4025749D01*
X7188321Y-4026072D01*
X7181478Y-4026398D01*
X7174652Y-4026727D01*
X7167844Y-4027058D01*
X7161053Y-4027392D01*
X7154280Y-4027729D01*
X7147524Y-4028069D01*
X7140786Y-4028411D01*
X7134064Y-4028756D01*
X7127361Y-4029104D01*
X7120674Y-4029454D01*
X7114005Y-4029808D01*
X7107353Y-4030164D01*
X7100718Y-4030523D01*
X7094100Y-4030885D01*
X7087500Y-4031250D01*
X7080917Y-4031618D01*
X7074351Y-4031988D01*
X7067802Y-4032362D01*
X7061270Y-4032738D01*
X7054755Y-4033117D01*
X7048257Y-4033499D01*
X7041777Y-4033884D01*
X7035313Y-4034272D01*
X7028866Y-4034663D01*
X7022437Y-4035057D01*
X7016024Y-4035454D01*
X7009628Y-4035854D01*
X7003249Y-4036257D01*
X6996887Y-4036662D01*
X6990542Y-4037071D01*
X6984213Y-4037483D01*
X6977902Y-4037898D01*
X6971607Y-4038316D01*
X6965329Y-4038737D01*
X6959067Y-4039161D01*
X6952823Y-4039588D01*
X6946595Y-4040019D01*
X6940384Y-4040452D01*
X6934189Y-4040889D01*
X6928011Y-4041328D01*
X6921850Y-4041771D01*
X6915705Y-4042217D01*
X6909577Y-4042666D01*
X6903465Y-4043119D01*
X6897370Y-4043574D01*
X6891292Y-4044033D01*
X6885229Y-4044495D01*
X6879184Y-4044960D01*
X6873154Y-4045428D01*
X6867142Y-4045900D01*
X6861145Y-4046374D01*
X6855165Y-4046852D01*
X6849201Y-4047334D01*
X6843254Y-4047818D01*
X6837323Y-4048306D01*
X6831408Y-4048798D01*
X6825509Y-4049292D01*
X6819627Y-4049790D01*
X6813760Y-4050291D01*
X6807910Y-4050796D01*
X6802076Y-4051304D01*
X6796259Y-4051815D01*
X6790457Y-4052330D01*
X6784672Y-4052848D01*
X6778902Y-4053370D01*
X6773149Y-4053895D01*
X6767411Y-4054423D01*
X6761690Y-4054955D01*
X6755985Y-4055490D01*
X6750295Y-4056029D01*
X6744622Y-4056571D01*
X6738964Y-4057117D01*
X6733322Y-4057666D01*
X6727697Y-4058219D01*
X6722087Y-4058775D01*
X6716492Y-4059335D01*
X6710914Y-4059898D01*
X6705351Y-4060465D01*
X6699805Y-4061035D01*
X6694274Y-4061609D01*
X6688758Y-4062187D01*
X6683259Y-4062768D01*
X6677775Y-4063353D01*
X6672306Y-4063941D01*
X6666853Y-4064533D01*
X6661416Y-4065129D01*
X6655995Y-4065728D01*
X6650589Y-4066331D01*
X6645198Y-4066938D01*
X6639823Y-4067548D01*
X6634464Y-4068162D01*
X6629120Y-4068780D01*
X6623791Y-4069402D01*
X6618478Y-4070027D01*
X6613180Y-4070656D01*
X6607898Y-4071289D01*
X6602631Y-4071925D01*
X6597379Y-4072565D01*
X6592143Y-4073209D01*
X6586922Y-4073857D01*
X6581716Y-4074509D01*
X6576526Y-4075164D01*
X6571350Y-4075824D01*
X6566190Y-4076487D01*
X6561045Y-4077154D01*
X6555916Y-4077825D01*
X6550801Y-4078500D01*
X6545701Y-4079178D01*
X6540617Y-4079861D01*
X6535547Y-4080547D01*
X6530493Y-4081238D01*
X6525454Y-4081932D01*
X6520429Y-4082630D01*
X6515420Y-4083333D01*
X6510426Y-4084039D01*
X6505446Y-4084749D01*
X6500482Y-4085463D01*
X6495532Y-4086181D01*
X6490597Y-4086904D01*
X6485677Y-4087630D01*
X6480772Y-4088360D01*
X6475882Y-4089094D01*
X6471006Y-4089833D01*
X6466145Y-4090575D01*
X6461299Y-4091322D01*
X6456468Y-4092072D01*
X6451651Y-4092827D01*
X6446849Y-4093586D01*
X6442061Y-4094349D01*
X6437289Y-4095116D01*
X6432530Y-4095887D01*
X6427787Y-4096662D01*
X6423058Y-4097442D01*
X6418343Y-4098225D01*
X6413643Y-4099013D01*
X6408958Y-4099805D01*
X6404287Y-4100602D01*
X6399630Y-4101402D01*
X6394988Y-4102207D01*
X6390360Y-4103016D01*
X6385746Y-4103829D01*
X6381147Y-4104647D01*
X6376562Y-4105469D01*
X6371992Y-4106295D01*
X6367436Y-4107125D01*
X6362894Y-4107960D01*
X6358366Y-4108799D01*
X6353853Y-4109642D01*
X6349353Y-4110490D01*
X6344868Y-4111342D01*
X6340397Y-4112199D01*
X6335940Y-4113060D01*
X6331498Y-4113925D01*
X6327069Y-4114795D01*
X6322654Y-4115669D01*
X6318254Y-4116547D01*
X6313867Y-4117430D01*
X6309495Y-4118317D01*
X6305136Y-4119209D01*
X6300791Y-4120106D01*
X6296461Y-4121006D01*
X6292144Y-4121912D01*
X6287841Y-4122821D01*
X6283552Y-4123736D01*
X6279277Y-4124655D01*
X6275015Y-4125578D01*
X6270768Y-4126506D01*
X6266534Y-4127438D01*
X6262314Y-4128375D01*
X6258107Y-4129317D01*
X6253914Y-4130263D01*
X6249735Y-4131214D01*
X6245570Y-4132169D01*
X6241418Y-4133129D01*
X6237280Y-4134094D01*
X6233156Y-4135064D01*
X6229045Y-4136038D01*
X6224947Y-4137016D01*
X6220863Y-4138000D01*
X6216793Y-4138988D01*
X6212736Y-4139980D01*
X6208693Y-4140978D01*
X6204663Y-4141980D01*
X6200646Y-4142987D01*
X6196643Y-4143999D01*
X6192653Y-4145015D01*
X6188676Y-4146036D01*
X6184713Y-4147062D01*
X6182737Y-4147577D01*
X6180763Y-4148093D01*
X6178793Y-4148610D01*
X6176827Y-4149129D01*
X6174863Y-4149649D01*
X6172903Y-4150169D01*
X6170947Y-4150691D01*
X6168993Y-4151215D01*
X6167043Y-4151739D01*
X6165096Y-4152265D01*
X6163153Y-4152792D01*
X6161213Y-4153320D01*
X6159276Y-4153849D01*
X6157342Y-4154379D01*
X6155412Y-4154911D01*
X6153485Y-4155444D01*
X6151561Y-4155978D01*
X6149640Y-4156514D01*
X6147723Y-4157050D01*
X6145809Y-4157588D01*
X6143898Y-4158127D01*
X6141991Y-4158668D01*
X6140087Y-4159209D01*
X6138186Y-4159752D01*
X6136288Y-4160296D01*
X6134394Y-4160841D01*
X6132503Y-4161387D01*
X6130615Y-4161935D01*
X6128730Y-4162484D01*
X6126849Y-4163034D01*
X6124971Y-4163586D01*
X6123096Y-4164138D01*
X6121224Y-4164692D01*
X6119356Y-4165247D01*
X6117490Y-4165804D01*
X6115628Y-4166361D01*
X6113770Y-4166920D01*
X6111914Y-4167480D01*
X6110062Y-4168042D01*
X6108213Y-4168604D01*
X6106367Y-4169168D01*
X6104524Y-4169733D01*
X6102684Y-4170300D01*
X6100848Y-4170868D01*
X6099015Y-4171436D01*
X6097185Y-4172007D01*
X6095359Y-4172578D01*
X6093535Y-4173151D01*
X6091715Y-4173725D01*
X6089898Y-4174300D01*
X6088084Y-4174877D01*
X6086273Y-4175454D01*
X6084465Y-4176033D01*
X6082661Y-4176614D01*
X6080860Y-4177195D01*
X6079062Y-4177778D01*
X6077267Y-4178362D01*
X6075475Y-4178948D01*
X6073687Y-4179535D01*
X6071901Y-4180123D01*
X6070119Y-4180712D01*
X6068340Y-4181302D01*
X6066564Y-4181894D01*
X6064791Y-4182487D01*
X6063022Y-4183082D01*
X6061255Y-4183677D01*
X6059492Y-4184274D01*
X6057732Y-4184873D01*
X6055974Y-4185472D01*
X6054221Y-4186073D01*
X6052470Y-4186675D01*
X6050722Y-4187279D01*
X6048977Y-4187884D01*
X6047236Y-4188490D01*
X6045498Y-4189097D01*
X6043762Y-4189706D01*
X6042030Y-4190316D01*
X6040301Y-4190927D01*
X6038576Y-4191540D01*
X6036853Y-4192154D01*
X6035133Y-4192769D01*
X6033417Y-4193385D01*
X6031703Y-4194003D01*
X6029993Y-4194622D01*
X6028285Y-4195243D01*
X6026581Y-4195865D01*
X6024880Y-4196488D01*
X6023182Y-4197112D01*
X6021487Y-4197738D01*
X6019795Y-4198365D01*
X6018106Y-4198993D01*
X6016421Y-4199623D01*
X6014738Y-4200254D01*
X6013058Y-4200887D01*
X6011382Y-4201520D01*
X6009708Y-4202155D01*
X6008038Y-4202792D01*
X6006370Y-4203429D01*
X6004706Y-4204069D01*
X6003045Y-4204709D01*
X6001387Y-4205351D01*
X5999731Y-4205994D01*
X5998079Y-4206638D01*
X5996430Y-4207284D01*
X5994784Y-4207931D01*
X5993141Y-4208579D01*
X5991501Y-4209229D01*
X5989864Y-4209880D01*
X5988230Y-4210533D01*
X5986599Y-4211187D01*
X5984971Y-4211842D01*
X5983346Y-4212498D01*
X5981724Y-4213156D01*
X5980105Y-4213815D01*
X5978490Y-4214476D01*
X5976877Y-4215138D01*
X5975267Y-4215801D01*
X5973660Y-4216466D01*
X5972056Y-4217132D01*
X5970455Y-4217799D01*
X5968857Y-4218468D01*
X5967262Y-4219138D01*
X5965670Y-4219810D01*
X5964081Y-4220483D01*
X5962495Y-4221157D01*
X5960912Y-4221833D01*
X5959332Y-4222510D01*
X5957755Y-4223188D01*
X5956181Y-4223868D01*
X5954610Y-4224549D01*
X5953042Y-4225231D01*
X5951477Y-4225915D01*
X5949914Y-4226601D01*
X5948355Y-4227287D01*
X5946799Y-4227975D01*
X5945245Y-4228665D01*
X5943695Y-4229356D01*
X5942147Y-4230048D01*
X5940603Y-4230741D01*
X5939061Y-4231437D01*
X5937522Y-4232133D01*
X5935987Y-4232831D01*
X5934454Y-4233530D01*
X5932924Y-4234230D01*
X5931397Y-4234932D01*
X5929873Y-4235636D01*
X5928352Y-4236341D01*
X5926833Y-4237047D01*
X5925318Y-4237754D01*
X5923806Y-4238463D01*
X5922296Y-4239174D01*
X5920789Y-4239886D01*
X5919286Y-4240599D01*
X5917785Y-4241314D01*
X5916287Y-4242030D01*
X5914792Y-4242747D01*
X5913300Y-4243466D01*
X5911810Y-4244186D01*
X5910324Y-4244908D01*
X5908841Y-4245631D01*
X5907360Y-4246356D01*
X5905882Y-4247082D01*
X5904407Y-4247809D01*
X5902935Y-4248538D01*
X5901466Y-4249268D01*
X5900000Y-4250000D01*
X5898537Y-4250733D01*
X5897076Y-4251468D01*
X5895618Y-4252204D01*
X5894163Y-4252941D01*
X5892711Y-4253680D01*
X5891262Y-4254420D01*
X5889816Y-4255162D01*
X5888373Y-4255905D01*
X5886932Y-4256650D01*
X5885494Y-4257396D01*
X5884059Y-4258144D01*
X5882627Y-4258893D01*
X5881198Y-4259643D01*
X5879771Y-4260395D01*
X5878348Y-4261148D01*
X5876927Y-4261903D01*
X5875509Y-4262659D01*
X5874094Y-4263417D01*
X5872681Y-4264176D01*
X5871272Y-4264936D01*
X5869865Y-4265698D01*
X5868461Y-4266462D01*
X5867060Y-4267227D01*
X5865661Y-4267993D01*
X5864266Y-4268761D01*
X5862873Y-4269531D01*
X5861483Y-4270301D01*
X5860096Y-4271074D01*
X5858711Y-4271847D01*
X5857330Y-4272623D01*
X5855951Y-4273399D01*
X5854575Y-4274178D01*
X5853201Y-4274957D01*
X5851831Y-4275738D01*
X5850463Y-4276521D01*
X5849098Y-4277305D01*
X5847736Y-4278091D01*
X5846376Y-4278878D01*
X5845019Y-4279666D01*
X5843665Y-4280456D01*
X5842314Y-4281248D01*
X5840965Y-4282041D01*
X5839620Y-4282835D01*
X5838277Y-4283631D01*
X5836936Y-4284429D01*
X5835599Y-4285228D01*
X5834264Y-4286028D01*
X5832932Y-4286830D01*
X5831602Y-4287633D01*
X5830276Y-4288438D01*
X5828952Y-4289245D01*
X5827631Y-4290053D01*
X5826312Y-4290862D01*
X5824996Y-4291673D01*
X5823683Y-4292486D01*
X5822373Y-4293300D01*
X5821065Y-4294115D01*
X5819760Y-4294932D01*
X5818458Y-4295751D01*
X5817159Y-4296571D01*
X5815862Y-4297392D01*
X5814568Y-4298215D01*
X5813276Y-4299040D01*
X5811987Y-4299866D01*
X5810701Y-4300693D01*
X5809418Y-4301522D01*
X5808137Y-4302353D01*
X5806859Y-4303185D01*
X5805583Y-4304019D01*
X5804311Y-4304854D01*
X5803041Y-4305691D01*
X5801773Y-4306529D01*
X5800508Y-4307369D01*
X5799246Y-4308210D01*
X5797987Y-4309053D01*
X5796730Y-4309898D01*
X5795476Y-4310744D01*
X5794224Y-4311591D01*
X5792976Y-4312440D01*
X5791729Y-4313291D01*
X5790486Y-4314143D01*
X5789245Y-4314996D01*
X5788006Y-4315852D01*
X5786771Y-4316708D01*
X5785538Y-4317567D01*
X5784307Y-4318426D01*
X5783079Y-4319288D01*
X5781854Y-4320151D01*
X5780632Y-4321015D01*
X5779412Y-4321881D01*
X5778194Y-4322749D01*
X5776980Y-4323618D01*
X5775767Y-4324489D01*
X5774558Y-4325361D01*
X5773351Y-4326235D01*
X5772147Y-4327110D01*
X5770945Y-4327987D01*
X5769746Y-4328866D01*
X5768549Y-4329746D01*
X5767355Y-4330628D01*
X5766164Y-4331511D01*
X5764975Y-4332396D01*
X5763788Y-4333282D01*
X5762605Y-4334170D01*
X5761424Y-4335060D01*
X5760245Y-4335951D01*
X5759069Y-4336843D01*
X5757896Y-4337738D01*
X5756725Y-4338634D01*
X5755557Y-4339531D01*
X5754391Y-4340430D01*
X5753228Y-4341331D01*
X5752067Y-4342233D01*
X5750909Y-4343137D01*
X5749753Y-4344042D01*
X5748600Y-4344949D01*
X5747450Y-4345857D01*
X5746302Y-4346768D01*
X5745156Y-4347679D01*
X5744013Y-4348593D01*
X5742873Y-4349508D01*
X5741735Y-4350424D01*
X5740600Y-4351342D01*
X5739467Y-4352262D01*
X5738337Y-4353183D01*
X5737209Y-4354106D01*
X5736084Y-4355031D01*
X5734961Y-4355957D01*
X5733841Y-4356885D01*
X5732723Y-4357814D01*
X5731608Y-4358745D01*
X5730495Y-4359678D01*
X5729385Y-4360612D01*
X5728277Y-4361548D01*
X5727171Y-4362485D01*
X5726069Y-4363424D01*
X5724968Y-4364365D01*
X5723870Y-4365307D01*
X5722775Y-4366251D01*
X5721682Y-4367197D01*
X5720592Y-4368144D01*
X5719504Y-4369093D01*
X5718418Y-4370043D01*
X5717335Y-4370996D01*
X5716254Y-4371949D01*
X5715176Y-4372905D01*
X5714101Y-4373862D01*
X5713027Y-4374820D01*
X5711957Y-4375780D01*
X5710888Y-4376742D01*
X5709822Y-4377706D01*
X5708759Y-4378671D01*
X5707698Y-4379638D01*
X5706639Y-4380606D01*
X5705583Y-4381576D01*
X5704529Y-4382548D01*
X5703478Y-4383522D01*
X5702429Y-4384497D01*
X5701383Y-4385473D01*
X5700339Y-4386452D01*
X5699297Y-4387432D01*
X5698258Y-4388413D01*
X5697221Y-4389397D01*
X5696187Y-4390382D01*
X5695155Y-4391368D01*
X5694125Y-4392357D01*
X5693098Y-4393347D01*
X5692073Y-4394338D01*
X5691051Y-4395332D01*
X5690031Y-4396327D01*
X5689013Y-4397323D01*
X5687998Y-4398321D01*
X5686985Y-4399321D01*
X5685974Y-4400323D01*
X5684966Y-4401326D01*
X5683960Y-4402331D01*
X5682957Y-4403338D01*
X5681956Y-4404346D01*
X5680957Y-4405356D01*
X5679961Y-4406368D01*
X5678967Y-4407382D01*
X5677975Y-4408397D01*
X5676986Y-4409413D01*
X5675999Y-4410432D01*
X5675015Y-4411452D01*
X5674033Y-4412474D01*
X5673053Y-4413497D01*
X5672075Y-4414522D01*
X5671100Y-4415549D01*
X5670127Y-4416578D01*
X5669157Y-4417608D01*
X5668188Y-4418640D01*
X5667223Y-4419674D01*
X5666259Y-4420709D01*
X5665298Y-4421746D01*
X5664339Y-4422785D01*
X5663382Y-4423826D01*
X5662428Y-4424868D01*
X5661476Y-4425912D01*
X5660526Y-4426957D01*
X5659579Y-4428005D01*
X5658634Y-4429054D01*
X5657691Y-4430104D01*
X5656751Y-4431157D01*
X5655812Y-4432211D01*
X5654877Y-4433267D01*
X5653943Y-4434325D01*
X5653012Y-4435384D01*
X5652083Y-4436445D01*
X5651156Y-4437508D01*
X5650231Y-4438572D01*
X5649309Y-4439638D01*
X5648389Y-4440706D01*
X5647471Y-4441776D01*
X5646556Y-4442847D01*
X5645643Y-4443921D01*
X5644732Y-4444995D01*
X5643823Y-4446072D01*
X5642917Y-4447150D01*
X5642013Y-4448230D01*
X5641111Y-4449312D01*
X5640211Y-4450396D01*
X5639314Y-4451481D01*
X5638419Y-4452568D01*
X5637526Y-4453657D01*
X5636635Y-4454747D01*
X5635746Y-4455840D01*
X5634860Y-4456934D01*
X5633976Y-4458029D01*
X5633094Y-4459127D01*
X5632215Y-4460226D01*
X5631337Y-4461327D01*
X5630462Y-4462430D01*
X5629589Y-4463535D01*
X5628718Y-4464641D01*
X5627850Y-4465749D01*
X5626983Y-4466859D01*
X5626119Y-4467970D01*
X5625257Y-4469084D01*
X5624398Y-4470199D01*
X5623540Y-4471316D01*
X5622685Y-4472434D01*
X5621831Y-4473555D01*
X5620980Y-4474677D01*
X5620132Y-4475801D01*
X5619285Y-4476926D01*
X5618440Y-4478054D01*
X5617598Y-4479183D01*
X5616758Y-4480314D01*
X5615920Y-4481447D01*
X5615084Y-4482582D01*
X5614251Y-4483718D01*
X5613419Y-4484856D01*
X5612590Y-4485996D01*
X5611762Y-4487138D01*
X5610937Y-4488281D01*
X5610115Y-4489427D01*
X5609294Y-4490574D01*
X5608475Y-4491723D01*
X5607659Y-4492873D01*
X5606844Y-4494026D01*
X5606032Y-4495180D01*
X5605222Y-4496336D01*
X5604414Y-4497494D01*
X5603608Y-4498654D01*
X5602805Y-4499815D01*
X5602003Y-4500978D01*
X5601203Y-4502143D01*
X5600406Y-4503310D01*
X5599611Y-4504479D01*
X5598818Y-4505649D01*
X5598027Y-4506822D01*
X5597238Y-4507996D01*
X5596451Y-4509172D01*
X5595666Y-4510349D01*
X5594883Y-4511529D01*
X5594103Y-4512710D01*
X5593324Y-4513894D01*
X5592548Y-4515079D01*
X5591774Y-4516265D01*
X5591001Y-4517454D01*
X5590231Y-4518644D01*
X5589463Y-4519837D01*
X5588697Y-4521031D01*
X5587933Y-4522227D01*
X5587171Y-4523425D01*
X5586412Y-4524624D01*
X5585654Y-4525826D01*
X5584898Y-4527029D01*
X5584144Y-4528234D01*
X5583393Y-4529441D01*
X5582643Y-4530650D01*
X5581896Y-4531860D01*
X5581150Y-4533073D01*
X5580407Y-4534287D01*
X5579665Y-4535503D01*
X5578926Y-4536721D01*
X5578189Y-4537941D01*
X5577453Y-4539163D01*
X5576720Y-4540386D01*
X5575989Y-4541611D01*
X5575260Y-4542839D01*
X5574532Y-4544068D01*
X5573807Y-4545299D01*
X5573084Y-4546531D01*
X5572363Y-4547766D01*
X5571644Y-4549003D01*
X5570926Y-4550241D01*
X5570211Y-4551481D01*
X5569498Y-4552723D01*
X5568787Y-4553967D01*
X5568078Y-4555213D01*
X5567371Y-4556461D01*
X5566665Y-4557710D01*
X5565962Y-4558962D01*
X5565261Y-4560215D01*
X5564562Y-4561470D01*
X5563864Y-4562727D01*
X5563169Y-4563986D01*
X5562476Y-4565247D01*
X5561784Y-4566509D01*
X5561095Y-4567774D01*
X5560407Y-4569040D01*
X5559722Y-4570309D01*
X5559038Y-4571579D01*
X5558357Y-4572851D01*
X5557677Y-4574125D01*
X5556999Y-4575401D01*
X5556324Y-4576678D01*
X5555650Y-4577958D01*
X5554978Y-4579239D01*
X5554308Y-4580523D01*
X5553640Y-4581808D01*
X5552974Y-4583095D01*
X5552310Y-4584384D01*
X5551648Y-4585675D01*
X5550987Y-4586968D01*
X5550329Y-4588263D01*
X5549672Y-4589560D01*
X5549018Y-4590858D01*
X5548365Y-4592159D01*
X5547715Y-4593461D01*
X5547066Y-4594765D01*
X5546419Y-4596072D01*
X5545774Y-4597380D01*
X5545131Y-4598690D01*
X5544490Y-4600002D01*
X5543850Y-4601316D01*
X5543213Y-4602631D01*
X5542577Y-4603949D01*
X5541943Y-4605269D01*
X5541312Y-4606590D01*
X5540682Y-4607914D01*
X5540054Y-4609239D01*
X5539428Y-4610567D01*
X5538803Y-4611896D01*
X5538181Y-4613227D01*
X5537560Y-4614560D01*
X5536942Y-4615895D01*
X5536325Y-4617232D01*
X5535710Y-4618571D01*
X5535097Y-4619912D01*
X5534485Y-4621255D01*
X5533876Y-4622599D01*
X5533268Y-4623946D01*
X5532662Y-4625294D01*
X5532059Y-4626645D01*
X5531456Y-4627997D01*
X5530856Y-4629352D01*
X5530258Y-4630708D01*
X5529661Y-4632067D01*
X5529066Y-4633427D01*
X5528473Y-4634789D01*
X5527882Y-4636153D01*
X5527293Y-4637519D01*
X5526705Y-4638887D01*
X5526120Y-4640257D01*
X5525536Y-4641629D01*
X5524954Y-4643003D01*
X5524374Y-4644379D01*
X5523795Y-4645757D01*
X5523218Y-4647137D01*
X5522643Y-4648519D01*
X5522070Y-4649902D01*
X5521499Y-4651288D01*
X5520930Y-4652676D01*
X5520362Y-4654065D01*
X5519796Y-4655457D01*
X5519232Y-4656851D01*
X5518669Y-4658246D01*
X5518109Y-4659644D01*
X5517550Y-4661043D01*
X5516993Y-4662445D01*
X5516437Y-4663848D01*
X5515884Y-4665254D01*
X5515332Y-4666661D01*
X5514782Y-4668071D01*
X5514233Y-4669482D01*
X5513687Y-4670895D01*
X5513142Y-4672311D01*
X5512599Y-4673728D01*
X5512058Y-4675148D01*
X5511518Y-4676569D01*
X5510980Y-4677992D01*
X5510444Y-4679418D01*
X5509910Y-4680845D01*
X5509377Y-4682274D01*
X5508846Y-4683706D01*
X5508317Y-4685139D01*
X5507789Y-4686574D01*
X5507263Y-4688012D01*
X5506739Y-4689451D01*
X5506217Y-4690892D01*
X5505696Y-4692336D01*
X5505177Y-4693781D01*
X5504660Y-4695229D01*
X5504145Y-4696678D01*
X5503631Y-4698129D01*
X5503118Y-4699583D01*
X5502608Y-4701038D01*
X5502099Y-4702496D01*
X5501592Y-4703955D01*
X5501087Y-4705417D01*
X5500583Y-4706880D01*
X5500081Y-4708346D01*
X5499580Y-4709813D01*
X5499082Y-4711283D01*
X5498585Y-4712755D01*
X5498089Y-4714228D01*
X5497595Y-4715704D01*
X5497103Y-4717182D01*
X5496613Y-4718661D01*
X5496124Y-4720143D01*
X5495637Y-4721627D01*
X5495152Y-4723113D01*
X5494668Y-4724601D01*
X5494186Y-4726091D01*
X5493705Y-4727583D01*
X5493226Y-4729077D01*
X5492749Y-4730573D01*
X5492273Y-4732071D01*
X5491799Y-4733571D01*
X5491327Y-4735073D01*
X5490856Y-4736577D01*
X5490387Y-4738084D01*
X5489920Y-4739592D01*
X5489454Y-4741102D01*
X5488989Y-4742615D01*
X5488527Y-4744129D01*
X5488066Y-4745646D01*
X5487606Y-4747164D01*
X5487148Y-4748685D01*
X5486692Y-4750208D01*
X5486237Y-4751733D01*
X5485784Y-4753260D01*
X5485333Y-4754789D01*
X5484883Y-4756320D01*
X5484434Y-4757853D01*
X5483988Y-4759388D01*
X5483543Y-4760925D01*
X5483099Y-4762464D01*
X5482657Y-4764006D01*
X5482216Y-4765549D01*
X5481778Y-4767095D01*
X5481340Y-4768642D01*
X5480905Y-4770192D01*
X5480470Y-4771744D01*
X5480038Y-4773298D01*
X5479607Y-4774853D01*
X5479177Y-4776411D01*
X5478749Y-4777972D01*
X5478323Y-4779534D01*
X5477898Y-4781098D01*
X5477474Y-4782664D01*
X5477053Y-4784233D01*
X5476632Y-4785803D01*
X5476214Y-4787376D01*
X5475796Y-4788951D01*
X5475381Y-4790528D01*
X5474966Y-4792107D01*
X5474143Y-4795271D01*
X5473325Y-4798444D01*
X5472513Y-4801625D01*
X5471708Y-4804814D01*
X5470908Y-4808012D01*
X5470114Y-4811218D01*
X5469326Y-4814433D01*
X5468544Y-4817657D01*
X5467768Y-4820888D01*
X5466998Y-4824129D01*
X5466234Y-4827378D01*
X5465476Y-4830635D01*
X5464723Y-4833901D01*
X5463976Y-4837175D01*
X5463235Y-4840458D01*
X5462500Y-4843750D01*
X5461770Y-4847050D01*
X5461047Y-4850359D01*
X5460328Y-4853676D01*
X5459616Y-4857002D01*
X5458909Y-4860337D01*
X5458208Y-4863680D01*
X5457512Y-4867032D01*
X5456822Y-4870393D01*
X5456137Y-4873762D01*
X5455458Y-4877140D01*
X5454785Y-4880527D01*
X5454117Y-4883922D01*
X5453454Y-4887326D01*
X5452797Y-4890739D01*
X5452145Y-4894160D01*
X5451498Y-4897591D01*
X5450857Y-4901030D01*
X5450222Y-4904478D01*
X5449591Y-4907934D01*
X5448966Y-4911400D01*
X5448346Y-4914874D01*
X5447732Y-4918357D01*
X5447123Y-4921849D01*
X5446518Y-4925349D01*
X5445919Y-4928859D01*
X5445326Y-4932377D01*
X5444737Y-4935904D01*
X5444154Y-4939441D01*
X5443575Y-4942986D01*
X5443002Y-4946540D01*
X5442433Y-4950103D01*
X5441870Y-4953674D01*
X5441312Y-4957255D01*
X5440759Y-4960845D01*
X5440210Y-4964443D01*
X5439667Y-4968051D01*
X5439128Y-4971668D01*
X5438595Y-4975293D01*
X5438066Y-4978928D01*
X5437542Y-4982572D01*
X5437023Y-4986224D01*
X5436509Y-4989886D01*
X5436000Y-4993557D01*
X5435495Y-4997237D01*
X5434995Y-5000926D01*
X5434500Y-5004624D01*
X5434009Y-5008331D01*
X5433524Y-5012047D01*
X5433042Y-5015772D01*
X5432566Y-5019507D01*
X5432094Y-5023250D01*
X5431627Y-5027003D01*
X5431164Y-5030765D01*
X5430705Y-5034536D01*
X5430252Y-5038316D01*
X5429802Y-5042106D01*
X5429358Y-5045904D01*
X5428917Y-5049712D01*
X5428481Y-5053529D01*
X5428050Y-5057356D01*
X5427623Y-5061191D01*
X5427200Y-5065036D01*
X5426781Y-5068891D01*
X5426367Y-5072754D01*
X5425957Y-5076627D01*
X5425552Y-5080509D01*
X5425150Y-5084400D01*
X5424753Y-5088301D01*
X5424360Y-5092211D01*
X5423972Y-5096130D01*
X5423587Y-5100059D01*
X5423207Y-5103997D01*
X5422830Y-5107945D01*
X5422458Y-5111902D01*
X5422090Y-5115868D01*
X5421726Y-5119844D01*
X5421366Y-5123829D01*
X5421010Y-5127824D01*
X5420658Y-5131828D01*
X5420309Y-5135841D01*
X5419965Y-5139864D01*
X5419625Y-5143897D01*
X5419289Y-5147939D01*
X5418956Y-5151991D01*
X5418627Y-5156052D01*
X5418302Y-5160122D01*
X5417981Y-5164202D01*
X5417664Y-5168292D01*
X5417350Y-5172391D01*
X5417041Y-5176500D01*
X5416735Y-5180619D01*
X5416432Y-5184747D01*
X5416133Y-5188884D01*
X5415838Y-5193032D01*
X5415547Y-5197188D01*
X5415259Y-5201355D01*
X5414975Y-5205531D01*
X5414694Y-5209717D01*
X5414417Y-5213913D01*
X5414143Y-5218118D01*
X5413873Y-5222333D01*
X5413606Y-5226557D01*
X5413342Y-5230792D01*
X5413083Y-5235036D01*
X5412826Y-5239290D01*
X5412573Y-5243553D01*
X5412323Y-5247827D01*
X5412077Y-5252110D01*
X5411834Y-5256403D01*
X5411594Y-5260706D01*
X5411357Y-5265018D01*
X5411124Y-5269341D01*
X5410894Y-5273673D01*
X5410667Y-5278015D01*
X5410443Y-5282367D01*
X5410222Y-5286729D01*
X5410005Y-5291100D01*
X5409790Y-5295482D01*
X5409579Y-5299873D01*
X5409371Y-5304275D01*
X5409166Y-5308686D01*
X5408963Y-5313107D01*
X5408764Y-5317538D01*
X5408568Y-5321979D01*
X5408375Y-5326431D01*
X5408185Y-5330892D01*
X5407997Y-5335363D01*
X5407813Y-5339844D01*
X5407631Y-5344335D01*
X5407452Y-5348836D01*
X5407276Y-5353347D01*
X5407103Y-5357868D01*
X5406932Y-5362400D01*
X5406765Y-5366941D01*
X5406600Y-5371492D01*
X5406437Y-5376054D01*
X5406278Y-5380625D01*
X5406121Y-5385207D01*
X5405967Y-5389799D01*
X5405815Y-5394401D01*
X5405666Y-5399013D01*
X5405519Y-5403635D01*
X5405375Y-5408268D01*
X5405234Y-5412911D01*
X5405095Y-5417563D01*
X5404958Y-5422226D01*
X5404824Y-5426900D01*
X5404693Y-5431583D01*
X5404564Y-5436277D01*
X5404437Y-5440981D01*
X5404313Y-5445695D01*
X5404190Y-5450419D01*
X5404071Y-5455154D01*
X5403953Y-5459899D01*
X5403838Y-5464655D01*
X5403725Y-5469420D01*
X5403615Y-5474196D01*
X5403506Y-5478983D01*
X5403400Y-5483779D01*
X5403296Y-5488586D01*
X5403194Y-5493404D01*
X5403094Y-5498232D01*
X5402997Y-5503070D01*
X5402901Y-5507919D01*
X5402807Y-5512778D01*
X5402716Y-5517647D01*
X5402626Y-5522527D01*
X5402539Y-5527417D01*
X5402453Y-5532318D01*
X5402370Y-5537229D01*
X5402288Y-5542151D01*
X5402208Y-5547083D01*
X5402130Y-5552026D01*
X5402054Y-5556979D01*
X5401907Y-5566917D01*
X5401768Y-5576898D01*
X5401635Y-5586920D01*
X5401510Y-5596985D01*
X5401391Y-5607093D01*
X5401278Y-5617243D01*
X5401171Y-5627436D01*
X5401071Y-5637671D01*
X5400977Y-5647949D01*
X5400888Y-5658270D01*
X5400805Y-5668634D01*
X5400727Y-5679042D01*
X5400654Y-5689492D01*
X5400587Y-5699986D01*
X5400524Y-5710523D01*
X5400466Y-5721103D01*
X5400412Y-5731728D01*
X5400363Y-5742395D01*
X5400317Y-5753107D01*
X5400276Y-5763862D01*
X5400238Y-5774661D01*
X5400204Y-5785504D01*
X5400174Y-5796391D01*
X5400146Y-5807323D01*
X5400122Y-5818298D01*
X5400101Y-5829318D01*
X5400082Y-5840383D01*
X5400066Y-5851492D01*
X5400052Y-5862645D01*
X5400040Y-5873843D01*
X5400030Y-5885086D01*
X5400015Y-5907707D01*
X5400006Y-5930508D01*
X5400002Y-5953490D01*
X5400000Y-6000000D01*
X11800000Y-8400000D02*
G75*
G02*
X11500000Y-8400000I-150000J0D01*
G01*
X11500000Y-8400000D02*
G75*
G02*
X11800000Y-8400000I150000J0D01*
G01*
X9400000Y-4000000D02*
X9493020Y-4000001D01*
X9538984Y-4000003D01*
X9584586Y-4000008D01*
X9629827Y-4000015D01*
X9674710Y-4000026D01*
X9719235Y-4000041D01*
X9763403Y-4000061D01*
X9807217Y-4000087D01*
X9850678Y-4000119D01*
X9893787Y-4000159D01*
X9915209Y-4000181D01*
X9936545Y-4000206D01*
X9957793Y-4000233D01*
X9978954Y-4000262D01*
X10000028Y-4000293D01*
X10021016Y-4000327D01*
X10041916Y-4000363D01*
X10062731Y-4000402D01*
X10083459Y-4000444D01*
X10104102Y-4000488D01*
X10124658Y-4000535D01*
X10145129Y-4000586D01*
X10165514Y-4000639D01*
X10185814Y-4000695D01*
X10206029Y-4000755D01*
X10226159Y-4000818D01*
X10246205Y-4000884D01*
X10266165Y-4000954D01*
X10286041Y-4001027D01*
X10305834Y-4001104D01*
X10325542Y-4001185D01*
X10345166Y-4001269D01*
X10364706Y-4001358D01*
X10384163Y-4001450D01*
X10403537Y-4001547D01*
X10422827Y-4001648D01*
X10442035Y-4001753D01*
X10461159Y-4001863D01*
X10480202Y-4001977D01*
X10499161Y-4002095D01*
X10518039Y-4002218D01*
X10536834Y-4002346D01*
X10555547Y-4002479D01*
X10574179Y-4002617D01*
X10592729Y-4002760D01*
X10611198Y-4002907D01*
X10629586Y-4003060D01*
X10647892Y-4003219D01*
X10666118Y-4003382D01*
X10684263Y-4003551D01*
X10702328Y-4003726D01*
X10720313Y-4003906D01*
X10738217Y-4004092D01*
X10756041Y-4004284D01*
X10773786Y-4004482D01*
X10791451Y-4004685D01*
X10809037Y-4004895D01*
X10826543Y-4005111D01*
X10843970Y-4005333D01*
X10861319Y-4005562D01*
X10878589Y-4005797D01*
X10895780Y-4006038D01*
X10912893Y-4006286D01*
X10929928Y-4006541D01*
X10938416Y-4006671D01*
X10946885Y-4006803D01*
X10955335Y-4006936D01*
X10963764Y-4007071D01*
X10972175Y-4007208D01*
X10980566Y-4007347D01*
X10988938Y-4007487D01*
X10997290Y-4007629D01*
X11005623Y-4007773D01*
X11013937Y-4007919D01*
X11022232Y-4008067D01*
X11030507Y-4008216D01*
X11038763Y-4008367D01*
X11047000Y-4008520D01*
X11055217Y-4008675D01*
X11063416Y-4008832D01*
X11071595Y-4008991D01*
X11079756Y-4009151D01*
X11087897Y-4009314D01*
X11096019Y-4009478D01*
X11104122Y-4009644D01*
X11112206Y-4009812D01*
X11120271Y-4009983D01*
X11128317Y-4010155D01*
X11136344Y-4010329D01*
X11144353Y-4010505D01*
X11152342Y-4010683D01*
X11160312Y-4010863D01*
X11168264Y-4011045D01*
X11176197Y-4011229D01*
X11184111Y-4011415D01*
X11192005Y-4011603D01*
X11199882Y-4011794D01*
X11207739Y-4011986D01*
X11215578Y-4012180D01*
X11223398Y-4012377D01*
X11231200Y-4012575D01*
X11238983Y-4012776D01*
X11246747Y-4012979D01*
X11254492Y-4013184D01*
X11262219Y-4013391D01*
X11269927Y-4013600D01*
X11277617Y-4013811D01*
X11285288Y-4014025D01*
X11292941Y-4014241D01*
X11300575Y-4014459D01*
X11308191Y-4014679D01*
X11315789Y-4014901D01*
X11323368Y-4015126D01*
X11330928Y-4015353D01*
X11338470Y-4015582D01*
X11345994Y-4015813D01*
X11353500Y-4016047D01*
X11360987Y-4016283D01*
X11368456Y-4016521D01*
X11375906Y-4016762D01*
X11383339Y-4017005D01*
X11390753Y-4017250D01*
X11398149Y-4017498D01*
X11405527Y-4017747D01*
X11412886Y-4018000D01*
X11420228Y-4018255D01*
X11427551Y-4018512D01*
X11434857Y-4018771D01*
X11442144Y-4019033D01*
X11449413Y-4019297D01*
X11456665Y-4019564D01*
X11463898Y-4019833D01*
X11471113Y-4020105D01*
X11478310Y-4020379D01*
X11485490Y-4020656D01*
X11492651Y-4020935D01*
X11499795Y-4021217D01*
X11506921Y-4021501D01*
X11514029Y-4021787D01*
X11521119Y-4022077D01*
X11528191Y-4022368D01*
X11535246Y-4022663D01*
X11542282Y-4022960D01*
X11549301Y-4023259D01*
X11556303Y-4023561D01*
X11563287Y-4023866D01*
X11570253Y-4024173D01*
X11577201Y-4024483D01*
X11584132Y-4024796D01*
X11591045Y-4025111D01*
X11597941Y-4025429D01*
X11604819Y-4025749D01*
X11611679Y-4026072D01*
X11618522Y-4026398D01*
X11625348Y-4026727D01*
X11632156Y-4027058D01*
X11638947Y-4027392D01*
X11645720Y-4027729D01*
X11652476Y-4028069D01*
X11659214Y-4028411D01*
X11665936Y-4028756D01*
X11672639Y-4029104D01*
X11679326Y-4029454D01*
X11685995Y-4029808D01*
X11692647Y-4030164D01*
X11699282Y-4030523D01*
X11705900Y-4030885D01*
X11712500Y-4031250D01*
X11719083Y-4031618D01*
X11725649Y-4031988D01*
X11732198Y-4032362D01*
X11738730Y-4032738D01*
X11745245Y-4033117D01*
X11751743Y-4033499D01*
X11758223Y-4033884D01*
X11764687Y-4034272D01*
X11771134Y-4034663D01*
X11777563Y-4035057D01*
X11783976Y-4035454D01*
X11790372Y-4035854D01*
X11796751Y-4036257D01*
X11803113Y-4036662D01*
X11809458Y-4037071D01*
X11815787Y-4037483D01*
X11822098Y-4037898D01*
X11828393Y-4038316D01*
X11834671Y-4038737D01*
X11840932Y-4039161D01*
X11847177Y-4039588D01*
X11853405Y-4040019D01*
X11859616Y-4040452D01*
X11865811Y-4040889D01*
X11871989Y-4041328D01*
X11878150Y-4041771D01*
X11884295Y-4042217D01*
X11890423Y-4042666D01*
X11896535Y-4043119D01*
X11902630Y-4043574D01*
X11908708Y-4044033D01*
X11914770Y-4044495D01*
X11920816Y-4044960D01*
X11926845Y-4045428D01*
X11932858Y-4045900D01*
X11938855Y-4046374D01*
X11944835Y-4046852D01*
X11950799Y-4047334D01*
X11956746Y-4047818D01*
X11962677Y-4048306D01*
X11968592Y-4048798D01*
X11974491Y-4049292D01*
X11980373Y-4049790D01*
X11986240Y-4050291D01*
X11992090Y-4050796D01*
X11997923Y-4051304D01*
X12003741Y-4051815D01*
X12009543Y-4052330D01*
X12015328Y-4052848D01*
X12021098Y-4053370D01*
X12026851Y-4053895D01*
X12032589Y-4054423D01*
X12038310Y-4054955D01*
X12044015Y-4055490D01*
X12049705Y-4056029D01*
X12055378Y-4056571D01*
X12061036Y-4057117D01*
X12066678Y-4057666D01*
X12072303Y-4058219D01*
X12077913Y-4058775D01*
X12083508Y-4059335D01*
X12089086Y-4059898D01*
X12094648Y-4060465D01*
X12100195Y-4061035D01*
X12105726Y-4061609D01*
X12111242Y-4062187D01*
X12116741Y-4062768D01*
X12122225Y-4063353D01*
X12127694Y-4063941D01*
X12133146Y-4064533D01*
X12138584Y-4065129D01*
X12144005Y-4065728D01*
X12149411Y-4066331D01*
X12154802Y-4066938D01*
X12160177Y-4067548D01*
X12165536Y-4068162D01*
X12170880Y-4068780D01*
X12176209Y-4069402D01*
X12181522Y-4070027D01*
X12186819Y-4070656D01*
X12192102Y-4071289D01*
X12197369Y-4071925D01*
X12202620Y-4072565D01*
X12207857Y-4073209D01*
X12213078Y-4073857D01*
X12218284Y-4074509D01*
X12223474Y-4075164D01*
X12228649Y-4075824D01*
X12233810Y-4076487D01*
X12238955Y-4077154D01*
X12244084Y-4077825D01*
X12249199Y-4078500D01*
X12254299Y-4079178D01*
X12259383Y-4079861D01*
X12264452Y-4080547D01*
X12269507Y-4081238D01*
X12274546Y-4081932D01*
X12279570Y-4082630D01*
X12284580Y-4083333D01*
X12289574Y-4084039D01*
X12294554Y-4084749D01*
X12299518Y-4085463D01*
X12304468Y-4086181D01*
X12309403Y-4086904D01*
X12314323Y-4087630D01*
X12319228Y-4088360D01*
X12324118Y-4089094D01*
X12328994Y-4089833D01*
X12333855Y-4090575D01*
X12338701Y-4091322D01*
X12343532Y-4092072D01*
X12348349Y-4092827D01*
X12353151Y-4093586D01*
X12357938Y-4094349D01*
X12362711Y-4095116D01*
X12367469Y-4095887D01*
X12372213Y-4096662D01*
X12376942Y-4097442D01*
X12381657Y-4098225D01*
X12386357Y-4099013D01*
X12391042Y-4099805D01*
X12395713Y-4100602D01*
X12400370Y-4101402D01*
X12405012Y-4102207D01*
X12409640Y-4103016D01*
X12414254Y-4103829D01*
X12418853Y-4104647D01*
X12423437Y-4105469D01*
X12428008Y-4106295D01*
X12432564Y-4107125D01*
X12437106Y-4107960D01*
X12441634Y-4108799D01*
X12446147Y-4109642D01*
X12450647Y-4110490D01*
X12455132Y-4111342D01*
X12459603Y-4112199D01*
X12464060Y-4113060D01*
X12468502Y-4113925D01*
X12472931Y-4114795D01*
X12477346Y-4115669D01*
X12481746Y-4116547D01*
X12486133Y-4117430D01*
X12490505Y-4118317D01*
X12494864Y-4119209D01*
X12499208Y-4120106D01*
X12503539Y-4121006D01*
X12507856Y-4121912D01*
X12512159Y-4122821D01*
X12516448Y-4123736D01*
X12520723Y-4124655D01*
X12524985Y-4125578D01*
X12529232Y-4126506D01*
X12533466Y-4127438D01*
X12537686Y-4128375D01*
X12541893Y-4129317D01*
X12546085Y-4130263D01*
X12550264Y-4131214D01*
X12554430Y-4132169D01*
X12558582Y-4133129D01*
X12562720Y-4134094D01*
X12566844Y-4135064D01*
X12570955Y-4136038D01*
X12575053Y-4137016D01*
X12579136Y-4138000D01*
X12583207Y-4138988D01*
X12587264Y-4139980D01*
X12591307Y-4140978D01*
X12595337Y-4141980D01*
X12599354Y-4142987D01*
X12603357Y-4143999D01*
X12607347Y-4145015D01*
X12611323Y-4146036D01*
X12615287Y-4147062D01*
X12617263Y-4147577D01*
X12619237Y-4148093D01*
X12621206Y-4148610D01*
X12623173Y-4149129D01*
X12625136Y-4149649D01*
X12627097Y-4150169D01*
X12629053Y-4150691D01*
X12631007Y-4151215D01*
X12632957Y-4151739D01*
X12634904Y-4152265D01*
X12636847Y-4152792D01*
X12638787Y-4153320D01*
X12640724Y-4153849D01*
X12642658Y-4154379D01*
X12644588Y-4154911D01*
X12646515Y-4155444D01*
X12648439Y-4155978D01*
X12650360Y-4156514D01*
X12652277Y-4157050D01*
X12654191Y-4157588D01*
X12656101Y-4158127D01*
X12658009Y-4158668D01*
X12659913Y-4159209D01*
X12661814Y-4159752D01*
X12663712Y-4160296D01*
X12665606Y-4160841D01*
X12667497Y-4161387D01*
X12669385Y-4161935D01*
X12671270Y-4162484D01*
X12673151Y-4163034D01*
X12675029Y-4163586D01*
X12676904Y-4164138D01*
X12678776Y-4164692D01*
X12680644Y-4165247D01*
X12682510Y-4165804D01*
X12684372Y-4166361D01*
X12686230Y-4166920D01*
X12688086Y-4167480D01*
X12689938Y-4168042D01*
X12691787Y-4168604D01*
X12693633Y-4169168D01*
X12695476Y-4169733D01*
X12697315Y-4170300D01*
X12699152Y-4170868D01*
X12700985Y-4171436D01*
X12702815Y-4172007D01*
X12704641Y-4172578D01*
X12706465Y-4173151D01*
X12708285Y-4173725D01*
X12710102Y-4174300D01*
X12711916Y-4174877D01*
X12713727Y-4175454D01*
X12715535Y-4176033D01*
X12717339Y-4176614D01*
X12719140Y-4177195D01*
X12720938Y-4177778D01*
X12722733Y-4178362D01*
X12724525Y-4178948D01*
X12726313Y-4179535D01*
X12728099Y-4180123D01*
X12729881Y-4180712D01*
X12731660Y-4181302D01*
X12733436Y-4181894D01*
X12735209Y-4182487D01*
X12736978Y-4183082D01*
X12738745Y-4183677D01*
X12740508Y-4184274D01*
X12742268Y-4184873D01*
X12744025Y-4185472D01*
X12745779Y-4186073D01*
X12747530Y-4186675D01*
X12749278Y-4187279D01*
X12751022Y-4187884D01*
X12752764Y-4188490D01*
X12754502Y-4189097D01*
X12756237Y-4189706D01*
X12757969Y-4190316D01*
X12759698Y-4190927D01*
X12761424Y-4191540D01*
X12763147Y-4192154D01*
X12764867Y-4192769D01*
X12766583Y-4193385D01*
X12768297Y-4194003D01*
X12770007Y-4194622D01*
X12771715Y-4195243D01*
X12773419Y-4195865D01*
X12775120Y-4196488D01*
X12776818Y-4197112D01*
X12778513Y-4197738D01*
X12780205Y-4198365D01*
X12781894Y-4198993D01*
X12783579Y-4199623D01*
X12785262Y-4200254D01*
X12786942Y-4200887D01*
X12788618Y-4201520D01*
X12790292Y-4202155D01*
X12791962Y-4202792D01*
X12793629Y-4203429D01*
X12795294Y-4204069D01*
X12796955Y-4204709D01*
X12798613Y-4205351D01*
X12800269Y-4205994D01*
X12801921Y-4206638D01*
X12803570Y-4207284D01*
X12805216Y-4207931D01*
X12806859Y-4208579D01*
X12808499Y-4209229D01*
X12810136Y-4209880D01*
X12811770Y-4210533D01*
X12813401Y-4211187D01*
X12815029Y-4211842D01*
X12816654Y-4212498D01*
X12818276Y-4213156D01*
X12819894Y-4213815D01*
X12821510Y-4214476D01*
X12823123Y-4215138D01*
X12824733Y-4215801D01*
X12826340Y-4216466D01*
X12827944Y-4217132D01*
X12829545Y-4217799D01*
X12831143Y-4218468D01*
X12832738Y-4219138D01*
X12834330Y-4219810D01*
X12835919Y-4220483D01*
X12837505Y-4221157D01*
X12839088Y-4221833D01*
X12840668Y-4222510D01*
X12842245Y-4223188D01*
X12843819Y-4223868D01*
X12845390Y-4224549D01*
X12846958Y-4225231D01*
X12848523Y-4225915D01*
X12850086Y-4226601D01*
X12851645Y-4227287D01*
X12853201Y-4227975D01*
X12854755Y-4228665D01*
X12856305Y-4229356D01*
X12857853Y-4230048D01*
X12859397Y-4230741D01*
X12860939Y-4231437D01*
X12862478Y-4232133D01*
X12864013Y-4232831D01*
X12865546Y-4233530D01*
X12867076Y-4234230D01*
X12868603Y-4234932D01*
X12870127Y-4235636D01*
X12871648Y-4236341D01*
X12873167Y-4237047D01*
X12874682Y-4237754D01*
X12876194Y-4238463D01*
X12877704Y-4239174D01*
X12879210Y-4239886D01*
X12880714Y-4240599D01*
X12882215Y-4241314D01*
X12883713Y-4242030D01*
X12885208Y-4242747D01*
X12886700Y-4243466D01*
X12888189Y-4244186D01*
X12889676Y-4244908D01*
X12891159Y-4245631D01*
X12892640Y-4246356D01*
X12894118Y-4247082D01*
X12895593Y-4247809D01*
X12897065Y-4248538D01*
X12898534Y-4249268D01*
X12900000Y-4250000D01*
X12901463Y-4250733D01*
X12902924Y-4251468D01*
X12904382Y-4252204D01*
X12905836Y-4252941D01*
X12907288Y-4253680D01*
X12908738Y-4254420D01*
X12910184Y-4255162D01*
X12911627Y-4255905D01*
X12913068Y-4256650D01*
X12914506Y-4257396D01*
X12915941Y-4258144D01*
X12917373Y-4258893D01*
X12918802Y-4259643D01*
X12920229Y-4260395D01*
X12921652Y-4261148D01*
X12923073Y-4261903D01*
X12924491Y-4262659D01*
X12925906Y-4263417D01*
X12927319Y-4264176D01*
X12928728Y-4264936D01*
X12930135Y-4265698D01*
X12931539Y-4266462D01*
X12932940Y-4267227D01*
X12934339Y-4267993D01*
X12935734Y-4268761D01*
X12937127Y-4269531D01*
X12938517Y-4270301D01*
X12939904Y-4271074D01*
X12941289Y-4271847D01*
X12942670Y-4272623D01*
X12944049Y-4273399D01*
X12945425Y-4274178D01*
X12946799Y-4274957D01*
X12948169Y-4275738D01*
X12949537Y-4276521D01*
X12950902Y-4277305D01*
X12952264Y-4278091D01*
X12953624Y-4278878D01*
X12954981Y-4279666D01*
X12956335Y-4280456D01*
X12957686Y-4281248D01*
X12959034Y-4282041D01*
X12960380Y-4282835D01*
X12961723Y-4283631D01*
X12963064Y-4284429D01*
X12964401Y-4285228D01*
X12965736Y-4286028D01*
X12967068Y-4286830D01*
X12968397Y-4287633D01*
X12969724Y-4288438D01*
X12971048Y-4289245D01*
X12972369Y-4290053D01*
X12973688Y-4290862D01*
X12975003Y-4291673D01*
X12976317Y-4292486D01*
X12977627Y-4293300D01*
X12978935Y-4294115D01*
X12980240Y-4294932D01*
X12981542Y-4295751D01*
X12982841Y-4296571D01*
X12984138Y-4297392D01*
X12985432Y-4298215D01*
X12986724Y-4299040D01*
X12988013Y-4299866D01*
X12989299Y-4300693D01*
X12990582Y-4301522D01*
X12991863Y-4302353D01*
X12993141Y-4303185D01*
X12994416Y-4304019D01*
X12995689Y-4304854D01*
X12996959Y-4305691D01*
X12998227Y-4306529D01*
X12999491Y-4307369D01*
X13000754Y-4308210D01*
X13002013Y-4309053D01*
X13003270Y-4309898D01*
X13004524Y-4310744D01*
X13005776Y-4311591D01*
X13007024Y-4312440D01*
X13008271Y-4313291D01*
X13009514Y-4314143D01*
X13010755Y-4314996D01*
X13011993Y-4315852D01*
X13013229Y-4316708D01*
X13014462Y-4317567D01*
X13015693Y-4318426D01*
X13016920Y-4319288D01*
X13018146Y-4320151D01*
X13019368Y-4321015D01*
X13020588Y-4321881D01*
X13021806Y-4322749D01*
X13023020Y-4323618D01*
X13024232Y-4324489D01*
X13025442Y-4325361D01*
X13026649Y-4326235D01*
X13027853Y-4327110D01*
X13029055Y-4327987D01*
X13030254Y-4328866D01*
X13031451Y-4329746D01*
X13032645Y-4330628D01*
X13033836Y-4331511D01*
X13035025Y-4332396D01*
X13036211Y-4333282D01*
X13037395Y-4334170D01*
X13038576Y-4335060D01*
X13039755Y-4335951D01*
X13040931Y-4336843D01*
X13042104Y-4337738D01*
X13043275Y-4338634D01*
X13044443Y-4339531D01*
X13045609Y-4340430D01*
X13046772Y-4341331D01*
X13047933Y-4342233D01*
X13049091Y-4343137D01*
X13050247Y-4344042D01*
X13051400Y-4344949D01*
X13052550Y-4345857D01*
X13053698Y-4346768D01*
X13054844Y-4347679D01*
X13055986Y-4348593D01*
X13057127Y-4349508D01*
X13058265Y-4350424D01*
X13059400Y-4351342D01*
X13060533Y-4352262D01*
X13061663Y-4353183D01*
X13062791Y-4354106D01*
X13063916Y-4355031D01*
X13065039Y-4355957D01*
X13066159Y-4356885D01*
X13067277Y-4357814D01*
X13068392Y-4358745D01*
X13069505Y-4359678D01*
X13070615Y-4360612D01*
X13071723Y-4361548D01*
X13072828Y-4362485D01*
X13073931Y-4363424D01*
X13075032Y-4364365D01*
X13076130Y-4365307D01*
X13077225Y-4366251D01*
X13078318Y-4367197D01*
X13079408Y-4368144D01*
X13080496Y-4369093D01*
X13081582Y-4370043D01*
X13082665Y-4370996D01*
X13083745Y-4371949D01*
X13084824Y-4372905D01*
X13085899Y-4373862D01*
X13086972Y-4374820D01*
X13088043Y-4375780D01*
X13089112Y-4376742D01*
X13090178Y-4377706D01*
X13091241Y-4378671D01*
X13092302Y-4379638D01*
X13093361Y-4380606D01*
X13094417Y-4381576D01*
X13095470Y-4382548D01*
X13096522Y-4383522D01*
X13097571Y-4384497D01*
X13098617Y-4385473D01*
X13099661Y-4386452D01*
X13100703Y-4387432D01*
X13101742Y-4388413D01*
X13102779Y-4389397D01*
X13103813Y-4390382D01*
X13104845Y-4391368D01*
X13105875Y-4392357D01*
X13106902Y-4393347D01*
X13107927Y-4394338D01*
X13108949Y-4395332D01*
X13109969Y-4396327D01*
X13110987Y-4397323D01*
X13112002Y-4398321D01*
X13113015Y-4399321D01*
X13114026Y-4400323D01*
X13115034Y-4401326D01*
X13116040Y-4402331D01*
X13117043Y-4403338D01*
X13118044Y-4404346D01*
X13119043Y-4405356D01*
X13120039Y-4406368D01*
X13121033Y-4407382D01*
X13122025Y-4408397D01*
X13123014Y-4409413D01*
X13124001Y-4410432D01*
X13124985Y-4411452D01*
X13125967Y-4412474D01*
X13126947Y-4413497D01*
X13127925Y-4414522D01*
X13128900Y-4415549D01*
X13129873Y-4416578D01*
X13130843Y-4417608D01*
X13131811Y-4418640D01*
X13132777Y-4419674D01*
X13133741Y-4420709D01*
X13134702Y-4421746D01*
X13135661Y-4422785D01*
X13136618Y-4423826D01*
X13137572Y-4424868D01*
X13138524Y-4425912D01*
X13139474Y-4426957D01*
X13140421Y-4428005D01*
X13141366Y-4429054D01*
X13142309Y-4430104D01*
X13143249Y-4431157D01*
X13144187Y-4432211D01*
X13145123Y-4433267D01*
X13146057Y-4434325D01*
X13146988Y-4435384D01*
X13147917Y-4436445D01*
X13148844Y-4437508D01*
X13149769Y-4438572D01*
X13150691Y-4439638D01*
X13151611Y-4440706D01*
X13152528Y-4441776D01*
X13153444Y-4442847D01*
X13154357Y-4443921D01*
X13155268Y-4444995D01*
X13156177Y-4446072D01*
X13157083Y-4447150D01*
X13157987Y-4448230D01*
X13158889Y-4449312D01*
X13159789Y-4450396D01*
X13160686Y-4451481D01*
X13161581Y-4452568D01*
X13162474Y-4453657D01*
X13163365Y-4454747D01*
X13164254Y-4455840D01*
X13165140Y-4456934D01*
X13166024Y-4458029D01*
X13166906Y-4459127D01*
X13167785Y-4460226D01*
X13168663Y-4461327D01*
X13169538Y-4462430D01*
X13170411Y-4463535D01*
X13171282Y-4464641D01*
X13172150Y-4465749D01*
X13173016Y-4466859D01*
X13173881Y-4467970D01*
X13174743Y-4469084D01*
X13175602Y-4470199D01*
X13176460Y-4471316D01*
X13177315Y-4472434D01*
X13178168Y-4473555D01*
X13179019Y-4474677D01*
X13179868Y-4475801D01*
X13180715Y-4476926D01*
X13181559Y-4478054D01*
X13182402Y-4479183D01*
X13183242Y-4480314D01*
X13184080Y-4481447D01*
X13184916Y-4482582D01*
X13185749Y-4483718D01*
X13186581Y-4484856D01*
X13187410Y-4485996D01*
X13188237Y-4487138D01*
X13189062Y-4488281D01*
X13189885Y-4489427D01*
X13190706Y-4490574D01*
X13191525Y-4491723D01*
X13192341Y-4492873D01*
X13193156Y-4494026D01*
X13193968Y-4495180D01*
X13194778Y-4496336D01*
X13195586Y-4497494D01*
X13196392Y-4498654D01*
X13197195Y-4499815D01*
X13197997Y-4500978D01*
X13198796Y-4502143D01*
X13199594Y-4503310D01*
X13200389Y-4504479D01*
X13201182Y-4505649D01*
X13201973Y-4506822D01*
X13202762Y-4507996D01*
X13203549Y-4509172D01*
X13204334Y-4510349D01*
X13205117Y-4511529D01*
X13205897Y-4512710D01*
X13206676Y-4513894D01*
X13207452Y-4515079D01*
X13208226Y-4516265D01*
X13208999Y-4517454D01*
X13209769Y-4518644D01*
X13210537Y-4519837D01*
X13211303Y-4521031D01*
X13212067Y-4522227D01*
X13212829Y-4523425D01*
X13213588Y-4524624D01*
X13214346Y-4525826D01*
X13215102Y-4527029D01*
X13215856Y-4528234D01*
X13216607Y-4529441D01*
X13217357Y-4530650D01*
X13218104Y-4531860D01*
X13218850Y-4533073D01*
X13219593Y-4534287D01*
X13220335Y-4535503D01*
X13221074Y-4536721D01*
X13221811Y-4537941D01*
X13222547Y-4539163D01*
X13223280Y-4540386D01*
X13224011Y-4541611D01*
X13224740Y-4542839D01*
X13225468Y-4544068D01*
X13226193Y-4545299D01*
X13226916Y-4546531D01*
X13227637Y-4547766D01*
X13228356Y-4549003D01*
X13229074Y-4550241D01*
X13229789Y-4551481D01*
X13230502Y-4552723D01*
X13231213Y-4553967D01*
X13231922Y-4555213D01*
X13232629Y-4556461D01*
X13233335Y-4557710D01*
X13234038Y-4558962D01*
X13234739Y-4560215D01*
X13235438Y-4561470D01*
X13236136Y-4562727D01*
X13236831Y-4563986D01*
X13237524Y-4565247D01*
X13238216Y-4566509D01*
X13238905Y-4567774D01*
X13239593Y-4569040D01*
X13240278Y-4570309D01*
X13240962Y-4571579D01*
X13241643Y-4572851D01*
X13242323Y-4574125D01*
X13243001Y-4575401D01*
X13243676Y-4576678D01*
X13244350Y-4577958D01*
X13245022Y-4579239D01*
X13245692Y-4580523D01*
X13246360Y-4581808D01*
X13247026Y-4583095D01*
X13247690Y-4584384D01*
X13248352Y-4585675D01*
X13249013Y-4586968D01*
X13249671Y-4588263D01*
X13250328Y-4589560D01*
X13250982Y-4590858D01*
X13251635Y-4592159D01*
X13252285Y-4593461D01*
X13252934Y-4594765D01*
X13253581Y-4596072D01*
X13254226Y-4597380D01*
X13254869Y-4598690D01*
X13255510Y-4600002D01*
X13256150Y-4601316D01*
X13256787Y-4602631D01*
X13257423Y-4603949D01*
X13258057Y-4605269D01*
X13258688Y-4606590D01*
X13259318Y-4607914D01*
X13259946Y-4609239D01*
X13260572Y-4610567D01*
X13261197Y-4611896D01*
X13261819Y-4613227D01*
X13262440Y-4614560D01*
X13263058Y-4615895D01*
X13263675Y-4617232D01*
X13264290Y-4618571D01*
X13264903Y-4619912D01*
X13265515Y-4621255D01*
X13266124Y-4622599D01*
X13266732Y-4623946D01*
X13267338Y-4625294D01*
X13267941Y-4626645D01*
X13268544Y-4627997D01*
X13269144Y-4629352D01*
X13269742Y-4630708D01*
X13270339Y-4632067D01*
X13270934Y-4633427D01*
X13271527Y-4634789D01*
X13272118Y-4636153D01*
X13272707Y-4637519D01*
X13273295Y-4638887D01*
X13273880Y-4640257D01*
X13274464Y-4641629D01*
X13275046Y-4643003D01*
X13275626Y-4644379D01*
X13276205Y-4645757D01*
X13276782Y-4647137D01*
X13277357Y-4648519D01*
X13277930Y-4649902D01*
X13278501Y-4651288D01*
X13279070Y-4652676D01*
X13279638Y-4654065D01*
X13280204Y-4655457D01*
X13280768Y-4656851D01*
X13281331Y-4658246D01*
X13281891Y-4659644D01*
X13282450Y-4661043D01*
X13283007Y-4662445D01*
X13283563Y-4663848D01*
X13284116Y-4665254D01*
X13284668Y-4666661D01*
X13285218Y-4668071D01*
X13285767Y-4669482D01*
X13286313Y-4670895D01*
X13286858Y-4672311D01*
X13287401Y-4673728D01*
X13287942Y-4675148D01*
X13288482Y-4676569D01*
X13289020Y-4677992D01*
X13289556Y-4679418D01*
X13290090Y-4680845D01*
X13290623Y-4682274D01*
X13291154Y-4683706D01*
X13291683Y-4685139D01*
X13292211Y-4686574D01*
X13292737Y-4688012D01*
X13293261Y-4689451D01*
X13293783Y-4690892D01*
X13294304Y-4692336D01*
X13294823Y-4693781D01*
X13295340Y-4695229D01*
X13295855Y-4696678D01*
X13296369Y-4698129D01*
X13296882Y-4699583D01*
X13297392Y-4701038D01*
X13297901Y-4702496D01*
X13298408Y-4703955D01*
X13298913Y-4705417D01*
X13299417Y-4706880D01*
X13299919Y-4708346D01*
X13300420Y-4709813D01*
X13300918Y-4711283D01*
X13301415Y-4712755D01*
X13301911Y-4714228D01*
X13302405Y-4715704D01*
X13302897Y-4717182D01*
X13303387Y-4718661D01*
X13303876Y-4720143D01*
X13304363Y-4721627D01*
X13304848Y-4723113D01*
X13305332Y-4724601D01*
X13305814Y-4726091D01*
X13306295Y-4727583D01*
X13306774Y-4729077D01*
X13307251Y-4730573D01*
X13307727Y-4732071D01*
X13308201Y-4733571D01*
X13308673Y-4735073D01*
X13309144Y-4736577D01*
X13309613Y-4738084D01*
X13310080Y-4739592D01*
X13310546Y-4741102D01*
X13311011Y-4742615D01*
X13311473Y-4744129D01*
X13311934Y-4745646D01*
X13312394Y-4747164D01*
X13312852Y-4748685D01*
X13313308Y-4750208D01*
X13313763Y-4751733D01*
X13314216Y-4753260D01*
X13314667Y-4754789D01*
X13315117Y-4756320D01*
X13315566Y-4757853D01*
X13316012Y-4759388D01*
X13316457Y-4760925D01*
X13316901Y-4762464D01*
X13317343Y-4764006D01*
X13317784Y-4765549D01*
X13318222Y-4767095D01*
X13318660Y-4768642D01*
X13319095Y-4770192D01*
X13319530Y-4771744D01*
X13319962Y-4773298D01*
X13320393Y-4774853D01*
X13320823Y-4776411D01*
X13321251Y-4777972D01*
X13321677Y-4779534D01*
X13322102Y-4781098D01*
X13322526Y-4782664D01*
X13322947Y-4784233D01*
X13323368Y-4785803D01*
X13323786Y-4787376D01*
X13324204Y-4788951D01*
X13324619Y-4790528D01*
X13325034Y-4792107D01*
X13325857Y-4795271D01*
X13326675Y-4798444D01*
X13327487Y-4801625D01*
X13328292Y-4804814D01*
X13329092Y-4808012D01*
X13329886Y-4811218D01*
X13330674Y-4814433D01*
X13331456Y-4817657D01*
X13332232Y-4820888D01*
X13333002Y-4824129D01*
X13333766Y-4827378D01*
X13334524Y-4830635D01*
X13335277Y-4833901D01*
X13336024Y-4837175D01*
X13336765Y-4840458D01*
X13337500Y-4843750D01*
X13338230Y-4847050D01*
X13338953Y-4850359D01*
X13339672Y-4853676D01*
X13340384Y-4857002D01*
X13341091Y-4860337D01*
X13341792Y-4863680D01*
X13342488Y-4867032D01*
X13343178Y-4870393D01*
X13343863Y-4873762D01*
X13344542Y-4877140D01*
X13345215Y-4880527D01*
X13345883Y-4883922D01*
X13346546Y-4887326D01*
X13347203Y-4890739D01*
X13347855Y-4894160D01*
X13348502Y-4897591D01*
X13349143Y-4901030D01*
X13349778Y-4904478D01*
X13350409Y-4907934D01*
X13351034Y-4911400D01*
X13351654Y-4914874D01*
X13352268Y-4918357D01*
X13352877Y-4921849D01*
X13353482Y-4925349D01*
X13354081Y-4928859D01*
X13354674Y-4932377D01*
X13355263Y-4935904D01*
X13355846Y-4939441D01*
X13356425Y-4942986D01*
X13356998Y-4946540D01*
X13357567Y-4950103D01*
X13358130Y-4953674D01*
X13358688Y-4957255D01*
X13359241Y-4960845D01*
X13359790Y-4964443D01*
X13360333Y-4968051D01*
X13360872Y-4971668D01*
X13361405Y-4975293D01*
X13361934Y-4978928D01*
X13362458Y-4982572D01*
X13362977Y-4986224D01*
X13363491Y-4989886D01*
X13364000Y-4993557D01*
X13364505Y-4997237D01*
X13365005Y-5000926D01*
X13365500Y-5004624D01*
X13365991Y-5008331D01*
X13366476Y-5012047D01*
X13366958Y-5015772D01*
X13367434Y-5019507D01*
X13367906Y-5023250D01*
X13368373Y-5027003D01*
X13368836Y-5030765D01*
X13369295Y-5034536D01*
X13369748Y-5038316D01*
X13370198Y-5042106D01*
X13370642Y-5045904D01*
X13371083Y-5049712D01*
X13371519Y-5053529D01*
X13371950Y-5057356D01*
X13372377Y-5061191D01*
X13372800Y-5065036D01*
X13373219Y-5068891D01*
X13373633Y-5072754D01*
X13374043Y-5076627D01*
X13374448Y-5080509D01*
X13374850Y-5084400D01*
X13375247Y-5088301D01*
X13375640Y-5092211D01*
X13376028Y-5096130D01*
X13376413Y-5100059D01*
X13376793Y-5103997D01*
X13377170Y-5107945D01*
X13377542Y-5111902D01*
X13377910Y-5115868D01*
X13378274Y-5119844D01*
X13378634Y-5123829D01*
X13378990Y-5127824D01*
X13379342Y-5131828D01*
X13379691Y-5135841D01*
X13380035Y-5139864D01*
X13380375Y-5143897D01*
X13380711Y-5147939D01*
X13381044Y-5151991D01*
X13381373Y-5156052D01*
X13381698Y-5160122D01*
X13382019Y-5164202D01*
X13382336Y-5168292D01*
X13382650Y-5172391D01*
X13382959Y-5176500D01*
X13383265Y-5180619D01*
X13383568Y-5184747D01*
X13383867Y-5188884D01*
X13384162Y-5193032D01*
X13384453Y-5197188D01*
X13384741Y-5201355D01*
X13385025Y-5205531D01*
X13385306Y-5209717D01*
X13385583Y-5213913D01*
X13385857Y-5218118D01*
X13386127Y-5222333D01*
X13386394Y-5226557D01*
X13386658Y-5230792D01*
X13386917Y-5235036D01*
X13387174Y-5239290D01*
X13387427Y-5243553D01*
X13387677Y-5247827D01*
X13387923Y-5252110D01*
X13388166Y-5256403D01*
X13388406Y-5260706D01*
X13388643Y-5265018D01*
X13388876Y-5269341D01*
X13389106Y-5273673D01*
X13389333Y-5278015D01*
X13389557Y-5282367D01*
X13389778Y-5286729D01*
X13389995Y-5291100D01*
X13390210Y-5295482D01*
X13390421Y-5299873D01*
X13390629Y-5304275D01*
X13390834Y-5308686D01*
X13391037Y-5313107D01*
X13391236Y-5317538D01*
X13391432Y-5321979D01*
X13391625Y-5326431D01*
X13391815Y-5330892D01*
X13392003Y-5335363D01*
X13392187Y-5339844D01*
X13392369Y-5344335D01*
X13392548Y-5348836D01*
X13392724Y-5353347D01*
X13392897Y-5357868D01*
X13393068Y-5362400D01*
X13393235Y-5366941D01*
X13393400Y-5371492D01*
X13393563Y-5376054D01*
X13393722Y-5380625D01*
X13393879Y-5385207D01*
X13394033Y-5389799D01*
X13394185Y-5394401D01*
X13394334Y-5399013D01*
X13394481Y-5403635D01*
X13394625Y-5408268D01*
X13394766Y-5412911D01*
X13394905Y-5417563D01*
X13395042Y-5422226D01*
X13395176Y-5426900D01*
X13395307Y-5431583D01*
X13395436Y-5436277D01*
X13395563Y-5440981D01*
X13395687Y-5445695D01*
X13395810Y-5450419D01*
X13395929Y-5455154D01*
X13396047Y-5459899D01*
X13396162Y-5464655D01*
X13396275Y-5469420D01*
X13396385Y-5474196D01*
X13396494Y-5478983D01*
X13396600Y-5483779D01*
X13396704Y-5488586D01*
X13396806Y-5493404D01*
X13396906Y-5498232D01*
X13397003Y-5503070D01*
X13397099Y-5507919D01*
X13397193Y-5512778D01*
X13397284Y-5517647D01*
X13397374Y-5522527D01*
X13397461Y-5527417D01*
X13397547Y-5532318D01*
X13397630Y-5537229D01*
X13397712Y-5542151D01*
X13397792Y-5547083D01*
X13397870Y-5552026D01*
X13397946Y-5556979D01*
X13398093Y-5566917D01*
X13398232Y-5576898D01*
X13398365Y-5586920D01*
X13398490Y-5596985D01*
X13398609Y-5607093D01*
X13398722Y-5617243D01*
X13398829Y-5627436D01*
X13398929Y-5637671D01*
X13399023Y-5647949D01*
X13399112Y-5658270D01*
X13399195Y-5668634D01*
X13399273Y-5679042D01*
X13399346Y-5689492D01*
X13399413Y-5699986D01*
X13399476Y-5710523D01*
X13399534Y-5721103D01*
X13399588Y-5731728D01*
X13399637Y-5742395D01*
X13399683Y-5753107D01*
X13399724Y-5763862D01*
X13399762Y-5774661D01*
X13399796Y-5785504D01*
X13399826Y-5796391D01*
X13399854Y-5807323D01*
X13399878Y-5818298D01*
X13399899Y-5829318D01*
X13399918Y-5840383D01*
X13399934Y-5851492D01*
X13399948Y-5862645D01*
X13399960Y-5873843D01*
X13399970Y-5885086D01*
X13399985Y-5907707D01*
X13399994Y-5930508D01*
X13399998Y-5953490D01*
X13400000Y-6000000D01*
X6900000Y-14000000D02*
X12000000Y-14000000D01*
X12000000Y-14000000D02*
X12000000Y-8000000D01*
X7400000Y-8400000D02*
G75*
G02*
X7100000Y-8400000I-150000J0D01*
G01*
X7100000Y-8400000D02*
G75*
G02*
X7400000Y-8400000I150000J0D01*
G01*
X7400000Y-12400000D02*
G75*
G02*
X7100000Y-12400000I-150000J0D01*
G01*
X7100000Y-12400000D02*
G75*
G02*
X7400000Y-12400000I150000J0D01*
G01*
X13400000Y-6000000D02*
X13400000Y-8000000D01*
X6900000Y-14000000D02*
X6900000Y-8000000D01*
X6900000Y-8000000D02*
X5400000Y-8000000D01*
X7400000Y-10400000D02*
G75*
G02*
X7100000Y-10400000I-150000J0D01*
G01*
X7100000Y-10400000D02*
G75*
G02*
X7400000Y-10400000I150000J0D01*
G01*
X12000000Y-8000000D02*
X13400000Y-8000000D01*
X11800000Y-12400000D02*
G75*
G02*
X11500000Y-12400000I-150000J0D01*
G01*
X11500000Y-12400000D02*
G75*
G02*
X11800000Y-12400000I150000J0D01*
G01*
X5400000Y-6000000D02*
X5400000Y-8000000D01*
X11800000Y-10400000D02*
G75*
G02*
X11500000Y-10400000I-150000J0D01*
G01*
X11500000Y-10400000D02*
G75*
G02*
X11800000Y-10400000I150000J0D01*
G01*
D11*
X5658277Y-14313984D02*
X5658277Y-14113984D01*
X5658277Y-14113984D02*
X5705896Y-14113984D01*
X5705896Y-14113984D02*
X5734467Y-14123508D01*
X5734467Y-14123508D02*
X5753515Y-14142555D01*
X5753515Y-14142555D02*
X5763039Y-14161603D01*
X5763039Y-14161603D02*
X5772562Y-14199698D01*
X5772562Y-14199698D02*
X5772562Y-14228269D01*
X5772562Y-14228269D02*
X5763039Y-14266365D01*
X5763039Y-14266365D02*
X5753515Y-14285412D01*
X5753515Y-14285412D02*
X5734467Y-14304460D01*
X5734467Y-14304460D02*
X5705896Y-14313984D01*
X5705896Y-14313984D02*
X5658277Y-14313984D01*
X5858277Y-14313984D02*
X5858277Y-14180650D01*
X5858277Y-14218746D02*
X5867801Y-14199698D01*
X5867801Y-14199698D02*
X5877324Y-14190174D01*
X5877324Y-14190174D02*
X5896372Y-14180650D01*
X5896372Y-14180650D02*
X5915420Y-14180650D01*
X5982086Y-14313984D02*
X5982086Y-14180650D01*
X5982086Y-14113984D02*
X5972562Y-14123508D01*
X5972562Y-14123508D02*
X5982086Y-14133031D01*
X5982086Y-14133031D02*
X5991610Y-14123508D01*
X5991610Y-14123508D02*
X5982086Y-14113984D01*
X5982086Y-14113984D02*
X5982086Y-14133031D01*
X6105896Y-14313984D02*
X6086848Y-14304460D01*
X6086848Y-14304460D02*
X6077324Y-14285412D01*
X6077324Y-14285412D02*
X6077324Y-14113984D01*
X6210658Y-14313984D02*
X6191610Y-14304460D01*
X6191610Y-14304460D02*
X6182086Y-14285412D01*
X6182086Y-14285412D02*
X6182086Y-14113984D01*
X6439229Y-14313984D02*
X6439229Y-14113984D01*
X6439229Y-14113984D02*
X6505896Y-14256841D01*
X6505896Y-14256841D02*
X6572562Y-14113984D01*
X6572562Y-14113984D02*
X6572562Y-14313984D01*
X6753515Y-14313984D02*
X6753515Y-14209222D01*
X6753515Y-14209222D02*
X6743991Y-14190174D01*
X6743991Y-14190174D02*
X6724943Y-14180650D01*
X6724943Y-14180650D02*
X6686848Y-14180650D01*
X6686848Y-14180650D02*
X6667801Y-14190174D01*
X6753515Y-14304460D02*
X6734467Y-14313984D01*
X6734467Y-14313984D02*
X6686848Y-14313984D01*
X6686848Y-14313984D02*
X6667801Y-14304460D01*
X6667801Y-14304460D02*
X6658277Y-14285412D01*
X6658277Y-14285412D02*
X6658277Y-14266365D01*
X6658277Y-14266365D02*
X6667801Y-14247317D01*
X6667801Y-14247317D02*
X6686848Y-14237793D01*
X6686848Y-14237793D02*
X6734467Y-14237793D01*
X6734467Y-14237793D02*
X6753515Y-14228269D01*
X6848753Y-14180650D02*
X6848753Y-14380650D01*
X6848753Y-14190174D02*
X6867801Y-14180650D01*
X6867801Y-14180650D02*
X6905896Y-14180650D01*
X6905896Y-14180650D02*
X6924943Y-14190174D01*
X6924943Y-14190174D02*
X6934467Y-14199698D01*
X6934467Y-14199698D02*
X6943991Y-14218746D01*
X6943991Y-14218746D02*
X6943991Y-14275888D01*
X6943991Y-14275888D02*
X6934467Y-14294936D01*
X6934467Y-14294936D02*
X6924943Y-14304460D01*
X6924943Y-14304460D02*
X6905896Y-14313984D01*
X6905896Y-14313984D02*
X6867801Y-14313984D01*
X6867801Y-14313984D02*
X6848753Y-14304460D01*
X7029705Y-14294936D02*
X7039229Y-14304460D01*
X7039229Y-14304460D02*
X7029705Y-14313984D01*
X7029705Y-14313984D02*
X7020182Y-14304460D01*
X7020182Y-14304460D02*
X7029705Y-14294936D01*
X7029705Y-14294936D02*
X7029705Y-14313984D01*
X7029705Y-14190174D02*
X7039229Y-14199698D01*
X7039229Y-14199698D02*
X7029705Y-14209222D01*
X7029705Y-14209222D02*
X7020182Y-14199698D01*
X7020182Y-14199698D02*
X7029705Y-14190174D01*
X7029705Y-14190174D02*
X7029705Y-14209222D01*
M02*
