G04 #@! TF.GenerationSoftware,KiCad,Pcbnew,9.0.0*
G04 #@! TF.CreationDate,2025-03-26T13:11:35-04:00*
G04 #@! TF.ProjectId,Gmouse,476d6f75-7365-42e6-9b69-6361645f7063,rev?*
G04 #@! TF.SameCoordinates,Original*
G04 #@! TF.FileFunction,Copper,L1,Top*
G04 #@! TF.FilePolarity,Positive*
%FSLAX46Y46*%
G04 Gerber Fmt 4.6, Leading zero omitted, Abs format (unit mm)*
G04 Created by KiCad (PCBNEW 9.0.0) date 2025-03-26 13:11:35*
%MOMM*%
%LPD*%
G01*
G04 APERTURE LIST*
G04 Aperture macros list*
%AMRoundRect*
0 Rectangle with rounded corners*
0 $1 Rounding radius*
0 $2 $3 $4 $5 $6 $7 $8 $9 X,Y pos of 4 corners*
0 Add a 4 corners polygon primitive as box body*
4,1,4,$2,$3,$4,$5,$6,$7,$8,$9,$2,$3,0*
0 Add four circle primitives for the rounded corners*
1,1,$1+$1,$2,$3*
1,1,$1+$1,$4,$5*
1,1,$1+$1,$6,$7*
1,1,$1+$1,$8,$9*
0 Add four rect primitives between the rounded corners*
20,1,$1+$1,$2,$3,$4,$5,0*
20,1,$1+$1,$4,$5,$6,$7,0*
20,1,$1+$1,$6,$7,$8,$9,0*
20,1,$1+$1,$8,$9,$2,$3,0*%
%AMRotRect*
0 Rectangle, with rotation*
0 The origin of the aperture is its center*
0 $1 length*
0 $2 width*
0 $3 Rotation angle, in degrees counterclockwise*
0 Add horizontal line*
21,1,$1,$2,0,0,$3*%
G04 Aperture macros list end*
G04 #@! TA.AperFunction,SMDPad,CuDef*
%ADD10RoundRect,0.150000X-0.587500X-0.150000X0.587500X-0.150000X0.587500X0.150000X-0.587500X0.150000X0*%
G04 #@! TD*
G04 #@! TA.AperFunction,SMDPad,CuDef*
%ADD11RoundRect,0.250000X0.625000X-0.400000X0.625000X0.400000X-0.625000X0.400000X-0.625000X-0.400000X0*%
G04 #@! TD*
G04 #@! TA.AperFunction,ComponentPad*
%ADD12RoundRect,0.250000X0.625000X-0.350000X0.625000X0.350000X-0.625000X0.350000X-0.625000X-0.350000X0*%
G04 #@! TD*
G04 #@! TA.AperFunction,ComponentPad*
%ADD13O,1.750000X1.200000*%
G04 #@! TD*
G04 #@! TA.AperFunction,SMDPad,CuDef*
%ADD14RoundRect,0.250000X-0.400000X-0.625000X0.400000X-0.625000X0.400000X0.625000X-0.400000X0.625000X0*%
G04 #@! TD*
G04 #@! TA.AperFunction,SMDPad,CuDef*
%ADD15RoundRect,0.250000X-0.625000X0.400000X-0.625000X-0.400000X0.625000X-0.400000X0.625000X0.400000X0*%
G04 #@! TD*
G04 #@! TA.AperFunction,SMDPad,CuDef*
%ADD16RoundRect,0.250000X-1.050000X-0.550000X1.050000X-0.550000X1.050000X0.550000X-1.050000X0.550000X0*%
G04 #@! TD*
G04 #@! TA.AperFunction,ComponentPad*
%ADD17R,1.800000X1.800000*%
G04 #@! TD*
G04 #@! TA.AperFunction,ComponentPad*
%ADD18C,1.800000*%
G04 #@! TD*
G04 #@! TA.AperFunction,SMDPad,CuDef*
%ADD19RoundRect,0.250000X-0.650000X0.412500X-0.650000X-0.412500X0.650000X-0.412500X0.650000X0.412500X0*%
G04 #@! TD*
G04 #@! TA.AperFunction,SMDPad,CuDef*
%ADD20RoundRect,0.250000X-0.159099X0.724784X-0.724784X0.159099X0.159099X-0.724784X0.724784X-0.159099X0*%
G04 #@! TD*
G04 #@! TA.AperFunction,SMDPad,CuDef*
%ADD21RoundRect,0.250000X-0.724784X-0.159099X-0.159099X-0.724784X0.724784X0.159099X0.159099X0.724784X0*%
G04 #@! TD*
G04 #@! TA.AperFunction,ComponentPad*
%ADD22RotRect,1.800000X1.800000X225.000000*%
G04 #@! TD*
G04 #@! TA.AperFunction,SMDPad,CuDef*
%ADD23RoundRect,0.150000X0.625000X-0.150000X0.625000X0.150000X-0.625000X0.150000X-0.625000X-0.150000X0*%
G04 #@! TD*
G04 #@! TA.AperFunction,SMDPad,CuDef*
%ADD24RoundRect,0.250000X0.650000X-0.350000X0.650000X0.350000X-0.650000X0.350000X-0.650000X-0.350000X0*%
G04 #@! TD*
G04 #@! TA.AperFunction,SMDPad,CuDef*
%ADD25RoundRect,0.250000X0.400000X0.625000X-0.400000X0.625000X-0.400000X-0.625000X0.400000X-0.625000X0*%
G04 #@! TD*
G04 #@! TA.AperFunction,SMDPad,CuDef*
%ADD26RoundRect,0.250000X0.650000X-0.412500X0.650000X0.412500X-0.650000X0.412500X-0.650000X-0.412500X0*%
G04 #@! TD*
G04 #@! TA.AperFunction,ComponentPad*
%ADD27R,1.397000X1.397000*%
G04 #@! TD*
G04 #@! TA.AperFunction,ComponentPad*
%ADD28C,1.397000*%
G04 #@! TD*
G04 #@! TA.AperFunction,ComponentPad*
%ADD29C,1.404000*%
G04 #@! TD*
G04 #@! TA.AperFunction,ComponentPad*
%ADD30C,1.304000*%
G04 #@! TD*
G04 #@! TA.AperFunction,ComponentPad*
%ADD31C,0.804000*%
G04 #@! TD*
G04 #@! TA.AperFunction,SMDPad,CuDef*
%ADD32R,0.450000X1.750000*%
G04 #@! TD*
G04 #@! TA.AperFunction,SMDPad,CuDef*
%ADD33R,0.750000X1.000000*%
G04 #@! TD*
G04 #@! TA.AperFunction,ComponentPad*
%ADD34R,1.700000X1.700000*%
G04 #@! TD*
G04 #@! TA.AperFunction,ComponentPad*
%ADD35O,1.700000X1.700000*%
G04 #@! TD*
G04 #@! TA.AperFunction,ComponentPad*
%ADD36R,2.775000X2.775000*%
G04 #@! TD*
G04 #@! TA.AperFunction,ComponentPad*
%ADD37C,2.775000*%
G04 #@! TD*
G04 #@! TA.AperFunction,ComponentPad*
%ADD38RotRect,1.800000X1.800000X135.000000*%
G04 #@! TD*
G04 #@! TA.AperFunction,SMDPad,CuDef*
%ADD39R,1.800000X0.900000*%
G04 #@! TD*
G04 #@! TA.AperFunction,SMDPad,CuDef*
%ADD40RoundRect,0.375000X0.375000X-0.625000X0.375000X0.625000X-0.375000X0.625000X-0.375000X-0.625000X0*%
G04 #@! TD*
G04 #@! TA.AperFunction,SMDPad,CuDef*
%ADD41RoundRect,0.500000X1.400000X-0.500000X1.400000X0.500000X-1.400000X0.500000X-1.400000X-0.500000X0*%
G04 #@! TD*
G04 #@! TA.AperFunction,SMDPad,CuDef*
%ADD42RoundRect,0.250000X-0.250000X0.250000X-0.250000X-0.250000X0.250000X-0.250000X0.250000X0.250000X0*%
G04 #@! TD*
G04 #@! TA.AperFunction,ViaPad*
%ADD43C,0.762000*%
G04 #@! TD*
G04 #@! TA.AperFunction,ViaPad*
%ADD44C,0.600000*%
G04 #@! TD*
G04 #@! TA.AperFunction,Conductor*
%ADD45C,1.270000*%
G04 #@! TD*
G04 #@! TA.AperFunction,Conductor*
%ADD46C,0.304800*%
G04 #@! TD*
G04 #@! TA.AperFunction,Conductor*
%ADD47C,0.381000*%
G04 #@! TD*
G04 #@! TA.AperFunction,Conductor*
%ADD48C,0.200000*%
G04 #@! TD*
G04 #@! TA.AperFunction,Conductor*
%ADD49C,0.635000*%
G04 #@! TD*
G04 #@! TA.AperFunction,Conductor*
%ADD50C,0.762000*%
G04 #@! TD*
G04 #@! TA.AperFunction,Conductor*
%ADD51C,0.508000*%
G04 #@! TD*
G04 #@! TA.AperFunction,Conductor*
%ADD52C,0.254000*%
G04 #@! TD*
G04 APERTURE END LIST*
D10*
X84062500Y-126050000D03*
X84062500Y-127950000D03*
X85937500Y-127000000D03*
D11*
X118500000Y-53550000D03*
X118500000Y-50450000D03*
D12*
X79000000Y-76000000D03*
D13*
X79000000Y-74000000D03*
D14*
X103450000Y-126000000D03*
X106550000Y-126000000D03*
D15*
X115500000Y-55950000D03*
X115500000Y-59050000D03*
D16*
X76700000Y-106500000D03*
X80300000Y-106500000D03*
X76700000Y-101500000D03*
X80300000Y-101500000D03*
X107700000Y-106500000D03*
X111300000Y-106500000D03*
D17*
X78000000Y-45485000D03*
D18*
X75460000Y-45485000D03*
D19*
X69000000Y-50937500D03*
X69000000Y-54062500D03*
D17*
X112540000Y-45485000D03*
D18*
X110000000Y-45485000D03*
D20*
X122596016Y-45403984D03*
X120403984Y-47596016D03*
D21*
X56403984Y-49903984D03*
X58596016Y-52096016D03*
D22*
X61072900Y-46269800D03*
D18*
X59276849Y-48065851D03*
D17*
X112540000Y-48000000D03*
D18*
X110000000Y-48000000D03*
D23*
X74325000Y-136500000D03*
X74325000Y-135500000D03*
X74325000Y-134500000D03*
X74325000Y-133500000D03*
X74325000Y-132500000D03*
X74325000Y-131500000D03*
D24*
X71800000Y-137800000D03*
X71800000Y-130200000D03*
D25*
X92000000Y-127000000D03*
X88900000Y-127000000D03*
D26*
X113500000Y-53562500D03*
X113500000Y-50437500D03*
D27*
X98000000Y-137000000D03*
D28*
X100540000Y-137000000D03*
X103080000Y-137000000D03*
X105620000Y-137000000D03*
X108160000Y-137000000D03*
X110700000Y-137000000D03*
X110700000Y-129380000D03*
X108160000Y-129380000D03*
X105620000Y-129380000D03*
X103080000Y-129380000D03*
X100540000Y-129380000D03*
X98000000Y-129380000D03*
D17*
X78040000Y-48000000D03*
D18*
X75500000Y-48000000D03*
D26*
X116000000Y-53562500D03*
X116000000Y-50437500D03*
D29*
X131510000Y-62380000D03*
X128970000Y-62380000D03*
X126430000Y-62380000D03*
X123890000Y-62380000D03*
X121350000Y-62380000D03*
X118810000Y-62380000D03*
X116270000Y-62380000D03*
X113730000Y-62380000D03*
X111190000Y-62380000D03*
X108650000Y-62380000D03*
X106110000Y-62380000D03*
X103570000Y-62380000D03*
X101030000Y-62380000D03*
X98490000Y-62380000D03*
X98490000Y-64920000D03*
X98490000Y-67460000D03*
X98490000Y-70000000D03*
X98490000Y-72540000D03*
X98490000Y-75080000D03*
X98490000Y-77620000D03*
X101030000Y-77620000D03*
X103570000Y-77620000D03*
X106110000Y-77620000D03*
X108650000Y-77620000D03*
X111190000Y-77620000D03*
X113730000Y-77620000D03*
X116270000Y-77620000D03*
X118810000Y-77620000D03*
X121350000Y-77620000D03*
X123890000Y-77620000D03*
X126430000Y-77620000D03*
X128970000Y-77620000D03*
X131510000Y-77620000D03*
X128970000Y-75080000D03*
D30*
X103570000Y-75080000D03*
X106110000Y-75080000D03*
X103570000Y-72540000D03*
X106110000Y-72540000D03*
X103570000Y-70000000D03*
X106110000Y-70000000D03*
X103570000Y-67460000D03*
X106110000Y-67460000D03*
X103570000Y-64920000D03*
X106110000Y-64920000D03*
D31*
X124371600Y-73500000D03*
X124371600Y-72500000D03*
X124371600Y-71500000D03*
X124371600Y-70500000D03*
X124371600Y-69500000D03*
X124371600Y-68500000D03*
X124371600Y-67500000D03*
X124371600Y-66500000D03*
D30*
X130240000Y-71270000D03*
X130240000Y-68730000D03*
D10*
X77062500Y-51550000D03*
X77062500Y-53450000D03*
X78937500Y-52500000D03*
D11*
X109600000Y-53500000D03*
X109600000Y-50400000D03*
D15*
X66500000Y-50950000D03*
X66500000Y-54050000D03*
D25*
X72550000Y-46000000D03*
X69450000Y-46000000D03*
D10*
X118562500Y-56600000D03*
X118562500Y-58500000D03*
X120437500Y-57550000D03*
D11*
X79500000Y-59000000D03*
X79500000Y-55900000D03*
D32*
X97425000Y-107600000D03*
X98075000Y-107600000D03*
X98725000Y-107600000D03*
X99375000Y-107600000D03*
X100025000Y-107600000D03*
X100675000Y-107600000D03*
X101325000Y-107600000D03*
X101975000Y-107600000D03*
X102625000Y-107600000D03*
X103275000Y-107600000D03*
X103925000Y-107600000D03*
X104575000Y-107600000D03*
X104575000Y-100400000D03*
X103925000Y-100400000D03*
X103275000Y-100400000D03*
X102625000Y-100400000D03*
X101975000Y-100400000D03*
X101325000Y-100400000D03*
X100675000Y-100400000D03*
X100025000Y-100400000D03*
X99375000Y-100400000D03*
X98725000Y-100400000D03*
X98075000Y-100400000D03*
X97425000Y-100400000D03*
D33*
X114925000Y-126750000D03*
X114925000Y-131250000D03*
X117075000Y-126750000D03*
X117075000Y-131250000D03*
D34*
X82575000Y-53900000D03*
D35*
X85115000Y-53900000D03*
X87655000Y-53900000D03*
X90195000Y-53900000D03*
X92735000Y-53900000D03*
X95275000Y-53900000D03*
X97815000Y-53900000D03*
X100355000Y-53900000D03*
X102895000Y-53900000D03*
X105435000Y-53900000D03*
D16*
X107700000Y-101500000D03*
X111300000Y-101500000D03*
D22*
X62971000Y-48167800D03*
D18*
X61174949Y-49963851D03*
D36*
X65765000Y-74700000D03*
D37*
X65765000Y-70000000D03*
X65765000Y-65300000D03*
X56235000Y-76605000D03*
X56235000Y-63395000D03*
D23*
X80325000Y-136500000D03*
X80325000Y-135500000D03*
X80325000Y-134500000D03*
X80325000Y-133500000D03*
X80325000Y-132500000D03*
X80325000Y-131500000D03*
D24*
X77800000Y-137800000D03*
X77800000Y-130200000D03*
D38*
X126832200Y-49971000D03*
D18*
X125036149Y-48174949D03*
D33*
X114925000Y-133750000D03*
X114925000Y-138250000D03*
X117075000Y-133750000D03*
X117075000Y-138250000D03*
D39*
X78000000Y-127750000D03*
X78000000Y-124250000D03*
D32*
X83425000Y-107600000D03*
X84075000Y-107600000D03*
X84725000Y-107600000D03*
X85375000Y-107600000D03*
X86025000Y-107600000D03*
X86675000Y-107600000D03*
X87325000Y-107600000D03*
X87975000Y-107600000D03*
X88625000Y-107600000D03*
X89275000Y-107600000D03*
X89925000Y-107600000D03*
X90575000Y-107600000D03*
X90575000Y-100400000D03*
X89925000Y-100400000D03*
X89275000Y-100400000D03*
X88625000Y-100400000D03*
X87975000Y-100400000D03*
X87325000Y-100400000D03*
X86675000Y-100400000D03*
X86025000Y-100400000D03*
X85375000Y-100400000D03*
X84725000Y-100400000D03*
X84075000Y-100400000D03*
X83425000Y-100400000D03*
D38*
X128730200Y-48072900D03*
D18*
X126934149Y-46276849D03*
D23*
X92325000Y-136500000D03*
X92325000Y-135500000D03*
X92325000Y-134500000D03*
X92325000Y-133500000D03*
X92325000Y-132500000D03*
X92325000Y-131500000D03*
D24*
X89800000Y-137800000D03*
X89800000Y-130200000D03*
D12*
X72000000Y-76000000D03*
D13*
X72000000Y-74000000D03*
D15*
X77000000Y-55900000D03*
X77000000Y-59000000D03*
D40*
X71700000Y-69150000D03*
X74000000Y-69150000D03*
D41*
X74000000Y-62850000D03*
D40*
X76300000Y-69150000D03*
D23*
X86325000Y-136500000D03*
X86325000Y-135500000D03*
X86325000Y-134500000D03*
X86325000Y-133500000D03*
X86325000Y-132500000D03*
X86325000Y-131500000D03*
D24*
X83800000Y-137800000D03*
X83800000Y-130200000D03*
D19*
X71500000Y-50937500D03*
X71500000Y-54062500D03*
D42*
X81500000Y-125250000D03*
X81500000Y-127750000D03*
D14*
X109450000Y-126000000D03*
X112550000Y-126000000D03*
D11*
X113000000Y-59050000D03*
X113000000Y-55950000D03*
D40*
X80700000Y-69150000D03*
X83000000Y-69150000D03*
D41*
X83000000Y-62850000D03*
D40*
X85300000Y-69150000D03*
D43*
X112200000Y-107900000D03*
X112300000Y-100000000D03*
X94500000Y-137500000D03*
X85000000Y-109500000D03*
D44*
X75000000Y-59000000D03*
D43*
X81300000Y-99900000D03*
D44*
X99000000Y-109500000D03*
X103000000Y-109500000D03*
X57000000Y-53000000D03*
X87900000Y-102300000D03*
D43*
X81400000Y-108100000D03*
D44*
X68000000Y-56500000D03*
X78500000Y-67000000D03*
X117000000Y-59550000D03*
X111300000Y-107926000D03*
X80300000Y-107909800D03*
X67500000Y-45000000D03*
X70000000Y-67000000D03*
X80300000Y-100077100D03*
X111300000Y-100071000D03*
X75000000Y-54000000D03*
X101700000Y-102000000D03*
X117600000Y-46800000D03*
D43*
X89000000Y-109500000D03*
D44*
X87250000Y-128500000D03*
D43*
X97450000Y-95500000D03*
X105850000Y-99650000D03*
X88150000Y-95500000D03*
X76700000Y-97500000D03*
X74650000Y-102700000D03*
D44*
X106400000Y-104300000D03*
X99531000Y-102150000D03*
X75900000Y-104600000D03*
X120000000Y-54000000D03*
X71600000Y-132300000D03*
D43*
X79100000Y-62600000D03*
D44*
X115750000Y-132500000D03*
X86519000Y-102150000D03*
X66500000Y-49500000D03*
X76800000Y-122700000D03*
X93646900Y-133800300D03*
X89800000Y-131500000D03*
D43*
X97600000Y-109000000D03*
D44*
X89800000Y-132500000D03*
D43*
X100300000Y-109000000D03*
D44*
X94291500Y-135194100D03*
D43*
X96600000Y-121400000D03*
X93000000Y-121400000D03*
D44*
X88322700Y-135391200D03*
X99900000Y-70900000D03*
X93100000Y-71800000D03*
X79500000Y-122000000D03*
X76050000Y-135350000D03*
X80300000Y-122000000D03*
X76450000Y-134400000D03*
X94400000Y-69000000D03*
X86300000Y-109400000D03*
X82100000Y-131350000D03*
X70400000Y-134900000D03*
X70800000Y-134050000D03*
X63800000Y-53700000D03*
X62200000Y-53200000D03*
X112200000Y-60400000D03*
X107600000Y-48700000D03*
X107900000Y-53800000D03*
X81950000Y-59300000D03*
X83550000Y-60000000D03*
X83800000Y-132500000D03*
D43*
X96600000Y-119800000D03*
D44*
X90547100Y-135194100D03*
X108800000Y-84800000D03*
X110400000Y-84800000D03*
X98400000Y-96400000D03*
X98100000Y-93900000D03*
X104900000Y-94600000D03*
X103400000Y-97700000D03*
X123000000Y-57000000D03*
X119100000Y-48850000D03*
X99511700Y-96688300D03*
X102700000Y-96500000D03*
X99400000Y-97900000D03*
X101975000Y-97925000D03*
X88059600Y-76737300D03*
X87838100Y-96807100D03*
X87641200Y-98003500D03*
X85728400Y-97948500D03*
X97457400Y-76152600D03*
X89212300Y-98316700D03*
X96600000Y-97900000D03*
X111717100Y-79634300D03*
X84805800Y-98972200D03*
X85089200Y-85578600D03*
X81600000Y-130000000D03*
X83425000Y-109175000D03*
X95700000Y-57800000D03*
X95395000Y-59555000D03*
X113250000Y-127500000D03*
X118750000Y-129750000D03*
X118750000Y-137000000D03*
X102000000Y-126500000D03*
X96650000Y-77000000D03*
X93500000Y-79500000D03*
X96000000Y-78750000D03*
X96000000Y-81500000D03*
X95000000Y-75750000D03*
X95000000Y-73500000D03*
X112400000Y-86600000D03*
D45*
X73500000Y-74000000D02*
X75500000Y-76000000D01*
X72000000Y-74000000D02*
X73500000Y-74000000D01*
X75500000Y-76000000D02*
X79000000Y-76000000D01*
X69500000Y-75000000D02*
X69500000Y-73735000D01*
X70500000Y-76000000D02*
X69500000Y-75000000D01*
X72000000Y-76000000D02*
X70500000Y-76000000D01*
X69500000Y-73735000D02*
X65765000Y-70000000D01*
D46*
X68000000Y-56500000D02*
X69000000Y-55500000D01*
D47*
X101325000Y-101625000D02*
X101700000Y-102000000D01*
D46*
X113500000Y-50437500D02*
X116000000Y-50437500D01*
X71500000Y-54062500D02*
X69000000Y-54062500D01*
D47*
X84725000Y-107600000D02*
X84725000Y-109225000D01*
D48*
X118562000Y-58500000D02*
X118562500Y-58500000D01*
D47*
X89000000Y-109500000D02*
X89275000Y-109225000D01*
X88625000Y-107600000D02*
X88625000Y-109125000D01*
D46*
X75550000Y-53450000D02*
X75000000Y-54000000D01*
X115500000Y-59050000D02*
X116500000Y-59050000D01*
X99375000Y-109125000D02*
X99375000Y-107600000D01*
X84062500Y-127950000D02*
X86700000Y-127950000D01*
D49*
X92325000Y-136500000D02*
X93500000Y-136500000D01*
D46*
X116500000Y-59050000D02*
X117000000Y-59550000D01*
X69450000Y-46000000D02*
X68500000Y-46000000D01*
D49*
X106550000Y-128450000D02*
X105620000Y-129380000D01*
D47*
X87325000Y-100400000D02*
X87325000Y-101725000D01*
D48*
X111300000Y-100071000D02*
X111300000Y-101500000D01*
D47*
X85375000Y-109125000D02*
X85375000Y-107600000D01*
D49*
X86325000Y-136500000D02*
X92325000Y-136500000D01*
D46*
X103275000Y-109225000D02*
X103275000Y-107600000D01*
X71150000Y-69150000D02*
X70000000Y-68000000D01*
X118841000Y-47596000D02*
X118396000Y-47596000D01*
X118841000Y-47596000D02*
X116000000Y-50437500D01*
X98725000Y-109225000D02*
X99000000Y-109500000D01*
D47*
X87325000Y-101725000D02*
X87900000Y-102300000D01*
D46*
X99000000Y-109500000D02*
X99375000Y-109125000D01*
X118396000Y-47596000D02*
X117600000Y-46800000D01*
X70000000Y-68000000D02*
X70000000Y-67000000D01*
X57692000Y-53000000D02*
X57000000Y-53000000D01*
X79150000Y-69150000D02*
X78500000Y-68500000D01*
X58596000Y-52096000D02*
X57692000Y-53000000D01*
X80700000Y-69150000D02*
X79150000Y-69150000D01*
D49*
X80325000Y-136500000D02*
X86325000Y-136500000D01*
D46*
X103000000Y-109500000D02*
X103275000Y-109225000D01*
X86700000Y-127950000D02*
X87250000Y-128500000D01*
D47*
X101325000Y-100400000D02*
X101325000Y-101625000D01*
D49*
X109450000Y-128090000D02*
X108160000Y-129380000D01*
D46*
X117000000Y-59050000D02*
X117550000Y-58500000D01*
X117550000Y-58500000D02*
X118562000Y-58500000D01*
D47*
X88625000Y-109125000D02*
X89000000Y-109500000D01*
D46*
X77000000Y-59000000D02*
X75000000Y-59000000D01*
D49*
X93500000Y-136500000D02*
X94500000Y-137500000D01*
D46*
X113500000Y-50437500D02*
X113237500Y-50437500D01*
X113237500Y-50437500D02*
X113200000Y-50400000D01*
X77062500Y-53450000D02*
X75550000Y-53450000D01*
D47*
X85000000Y-109500000D02*
X85375000Y-109125000D01*
D46*
X120404000Y-47596000D02*
X118841000Y-47596000D01*
D49*
X109450000Y-126000000D02*
X109450000Y-128090000D01*
D46*
X69000000Y-55500000D02*
X69000000Y-54062500D01*
X102625000Y-107600000D02*
X102625000Y-109125000D01*
D48*
X80300000Y-107909800D02*
X80300000Y-106500000D01*
D47*
X89275000Y-109225000D02*
X89275000Y-107600000D01*
D46*
X78500000Y-68500000D02*
X78500000Y-67000000D01*
D47*
X84725000Y-109225000D02*
X85000000Y-109500000D01*
D46*
X117000000Y-59550000D02*
X117000000Y-59050000D01*
X98725000Y-107600000D02*
X98725000Y-109225000D01*
X71700000Y-69150000D02*
X71150000Y-69150000D01*
D49*
X74325000Y-136500000D02*
X80325000Y-136500000D01*
D48*
X80300000Y-100077100D02*
X80300000Y-101500000D01*
D49*
X106550000Y-126000000D02*
X106550000Y-128450000D01*
D46*
X68500000Y-46000000D02*
X67500000Y-45000000D01*
X102625000Y-109125000D02*
X103000000Y-109500000D01*
D48*
X111300000Y-106500000D02*
X111300000Y-107926000D01*
D46*
X113200000Y-50400000D02*
X109600000Y-50400000D01*
D45*
X76700000Y-95500000D02*
X76700000Y-97500000D01*
X75500000Y-72000000D02*
X71000000Y-72000000D01*
X88150000Y-95500000D02*
X76700000Y-95500000D01*
D47*
X104575000Y-99075000D02*
X104250000Y-98750000D01*
X97425000Y-95525000D02*
X97450000Y-95500000D01*
X90575000Y-97925000D02*
X89925000Y-97275000D01*
D45*
X89925000Y-97275000D02*
X88150000Y-95500000D01*
D50*
X104300000Y-98700000D02*
X104250000Y-98750000D01*
X104300000Y-95500000D02*
X105200000Y-95500000D01*
D45*
X76700000Y-80400000D02*
X76700000Y-95500000D01*
X76300000Y-69150000D02*
X76300000Y-71200000D01*
D50*
X105850000Y-99650000D02*
X107700000Y-101500000D01*
D45*
X74250000Y-77950000D02*
X76700000Y-80400000D01*
X65765000Y-65300000D02*
X62600000Y-65300000D01*
X62600000Y-65300000D02*
X60750000Y-67150000D01*
X60750000Y-67150000D02*
X60750000Y-76600000D01*
X71000000Y-72000000D02*
X68500000Y-69500000D01*
X84250000Y-71200000D02*
X85300000Y-70150000D01*
D47*
X104575000Y-100400000D02*
X104575000Y-99075000D01*
D45*
X76300000Y-71200000D02*
X75500000Y-72000000D01*
X76300000Y-71200000D02*
X84250000Y-71200000D01*
X68500000Y-69500000D02*
X68500000Y-68035000D01*
D47*
X83425000Y-100400000D02*
X83425000Y-98975000D01*
X104250000Y-98750000D02*
X103925000Y-99075000D01*
D50*
X81950000Y-97500000D02*
X76700000Y-97500000D01*
D45*
X62100000Y-77950000D02*
X74250000Y-77950000D01*
D47*
X90575000Y-100400000D02*
X90575000Y-97925000D01*
D45*
X76700000Y-97500000D02*
X76700000Y-101500000D01*
D50*
X97450000Y-95500000D02*
X104300000Y-95500000D01*
X105200000Y-95500000D02*
X105850000Y-96150000D01*
X83425000Y-98975000D02*
X81950000Y-97500000D01*
D47*
X89925000Y-100400000D02*
X89925000Y-97275000D01*
D45*
X60750000Y-76600000D02*
X62100000Y-77950000D01*
X68500000Y-68035000D02*
X65765000Y-65300000D01*
X85300000Y-70150000D02*
X85300000Y-69150000D01*
D50*
X104300000Y-95500000D02*
X104300000Y-98700000D01*
X105850000Y-96150000D02*
X105850000Y-99650000D01*
D47*
X103925000Y-99075000D02*
X103925000Y-100400000D01*
X97425000Y-100400000D02*
X97425000Y-95525000D01*
D49*
X59596500Y-66503500D02*
X59596500Y-77077800D01*
X59596500Y-77077800D02*
X61622200Y-79103500D01*
X61622200Y-79103500D02*
X73772200Y-79103500D01*
X74000000Y-65950000D02*
X71450000Y-65950000D01*
X68550000Y-63050000D02*
X63050000Y-63050000D01*
X75546500Y-97253500D02*
X74650000Y-98150000D01*
X74650000Y-98150000D02*
X74650000Y-102700000D01*
X71450000Y-65950000D02*
X68550000Y-63050000D01*
X74000000Y-65950000D02*
X74000000Y-62850000D01*
X75546500Y-80877800D02*
X75546500Y-97253500D01*
X74000000Y-69150000D02*
X74000000Y-65950000D01*
X63050000Y-63050000D02*
X59596500Y-66503500D01*
X73772200Y-79103500D02*
X75546500Y-80877800D01*
X76700000Y-106500000D02*
X75900000Y-105700000D01*
D46*
X78000000Y-124250000D02*
X80500000Y-124250000D01*
D47*
X100025000Y-101656000D02*
X100025000Y-100400000D01*
D48*
X69000000Y-50943800D02*
X69000000Y-50937500D01*
D46*
X118500000Y-53550000D02*
X119550000Y-53550000D01*
X116000000Y-53562500D02*
X118488000Y-53562500D01*
D45*
X83000000Y-62850000D02*
X79350000Y-62850000D01*
D48*
X114925000Y-133325000D02*
X114925000Y-133750000D01*
D46*
X78000000Y-123900000D02*
X76800000Y-122700000D01*
D51*
X80325000Y-133500000D02*
X74325000Y-133500000D01*
X86325000Y-133500000D02*
X92325000Y-133500000D01*
D46*
X78000000Y-124250000D02*
X78000000Y-123900000D01*
D45*
X79350000Y-62850000D02*
X79100000Y-62600000D01*
D48*
X114925000Y-126750000D02*
X114925000Y-131250000D01*
D46*
X66500000Y-50950000D02*
X68993800Y-50950000D01*
D48*
X114925000Y-133750000D02*
X114925000Y-138250000D01*
D46*
X66500000Y-50950000D02*
X66500000Y-49500000D01*
X71487500Y-50950000D02*
X71500000Y-50937500D01*
D49*
X107700000Y-106500000D02*
X106400000Y-105200000D01*
D51*
X74325000Y-133500000D02*
X72800000Y-133500000D01*
D46*
X118488000Y-53562500D02*
X118500000Y-53550000D01*
D49*
X75900000Y-105700000D02*
X75900000Y-104600000D01*
D47*
X86025000Y-101656000D02*
X86025000Y-100400000D01*
D49*
X106400000Y-105200000D02*
X106400000Y-104300000D01*
X100550000Y-129370000D02*
X100540000Y-129380000D01*
D47*
X99531000Y-102150000D02*
X100025000Y-101656000D01*
D45*
X83000000Y-69150000D02*
X83000000Y-62850000D01*
D46*
X119550000Y-53550000D02*
X120000000Y-54000000D01*
X68993800Y-50950000D02*
X71487500Y-50950000D01*
X80500000Y-124250000D02*
X81500000Y-125250000D01*
D51*
X80325000Y-133500000D02*
X86325000Y-133500000D01*
X72800000Y-133500000D02*
X71600000Y-132300000D01*
D48*
X114925000Y-131675000D02*
X115750000Y-132500000D01*
X68993800Y-50950000D02*
X69000000Y-50943800D01*
D47*
X86519000Y-102150000D02*
X86025000Y-101656000D01*
D46*
X113500000Y-53562500D02*
X116000000Y-53562500D01*
D48*
X115750000Y-132500000D02*
X114925000Y-133325000D01*
X114925000Y-131250000D02*
X114925000Y-131675000D01*
X93646900Y-133800300D02*
X92947200Y-134500000D01*
X92947200Y-134500000D02*
X92325000Y-134500000D01*
D47*
X92325000Y-131500000D02*
X89800000Y-131500000D01*
X97600000Y-109000000D02*
X98075000Y-108525000D01*
X97425000Y-108825000D02*
X97600000Y-109000000D01*
X98075000Y-108525000D02*
X98075000Y-107600000D01*
X97425000Y-107600000D02*
X97425000Y-108825000D01*
X100025000Y-107600000D02*
X100025000Y-108725000D01*
X100300000Y-109000000D02*
X100675000Y-108625000D01*
X100675000Y-108625000D02*
X100675000Y-107600000D01*
X100025000Y-108725000D02*
X100300000Y-109000000D01*
X92325000Y-132500000D02*
X89800000Y-132500000D01*
D48*
X92630900Y-135194100D02*
X92325000Y-135500000D01*
X94291500Y-135194100D02*
X92630900Y-135194100D01*
D47*
X104200000Y-109000000D02*
X104575000Y-108625000D01*
X93000000Y-121400000D02*
X90200000Y-124200000D01*
X100600000Y-121400000D02*
X96600000Y-121400000D01*
X104200000Y-109000000D02*
X104200000Y-117800000D01*
X103925000Y-108725000D02*
X104200000Y-109000000D01*
X87400000Y-131500000D02*
X86325000Y-131500000D01*
X87900000Y-131000000D02*
X87400000Y-131500000D01*
X88200000Y-128800000D02*
X87900000Y-129100000D01*
X90200000Y-127900000D02*
X89300000Y-128800000D01*
X87900000Y-129100000D02*
X87900000Y-131000000D01*
X104200000Y-117800000D02*
X100600000Y-121400000D01*
X104575000Y-108625000D02*
X104575000Y-107600000D01*
X89300000Y-128800000D02*
X88200000Y-128800000D01*
X103925000Y-107600000D02*
X103925000Y-108725000D01*
X90200000Y-124200000D02*
X90200000Y-127900000D01*
D48*
X86325000Y-135500000D02*
X88213900Y-135500000D01*
X88213900Y-135500000D02*
X88322700Y-135391200D01*
X92498000Y-77334900D02*
X93366400Y-76466400D01*
X93448000Y-76384900D02*
X93448000Y-72148000D01*
X93448000Y-72148000D02*
X93100000Y-71800000D01*
X80325000Y-135500000D02*
X76200000Y-135500000D01*
X91833900Y-117399000D02*
X93047000Y-116186000D01*
X79500000Y-121633000D02*
X83499000Y-117634000D01*
X83499000Y-117634000D02*
X83733900Y-117399000D01*
X93047000Y-116186000D02*
X93047000Y-86066100D01*
X92498000Y-85517100D02*
X92498000Y-77334900D01*
X93047000Y-86066100D02*
X92690400Y-85709600D01*
X92690400Y-85709600D02*
X92498000Y-85517100D01*
X99900000Y-70900000D02*
X99900000Y-69100000D01*
X79500000Y-122000000D02*
X79500000Y-121633000D01*
X93366400Y-76466400D02*
X93448000Y-76384900D01*
X76200000Y-135500000D02*
X76050000Y-135350000D01*
X101540000Y-67460000D02*
X103570000Y-67460000D01*
X83733900Y-117399000D02*
X91833900Y-117399000D01*
X99900000Y-69100000D02*
X101540000Y-67460000D01*
X83900000Y-117800000D02*
X92000000Y-117800000D01*
X80325000Y-134500000D02*
X76550000Y-134500000D01*
X92899000Y-85351000D02*
X92899000Y-77501000D01*
X80300000Y-121400000D02*
X83900000Y-117800000D01*
X92000000Y-117800000D02*
X93448000Y-116352000D01*
X80300000Y-122000000D02*
X80300000Y-121400000D01*
X93849000Y-69551000D02*
X94400000Y-69000000D01*
X93849000Y-76551000D02*
X93849000Y-69551000D01*
X76550000Y-134500000D02*
X76450000Y-134400000D01*
X92899000Y-77501000D02*
X93849000Y-76551000D01*
X93448000Y-116352000D02*
X93448000Y-85900000D01*
X93448000Y-85900000D02*
X92899000Y-85351000D01*
D47*
X86025000Y-107600000D02*
X86025000Y-109125000D01*
X86025000Y-109125000D02*
X86300000Y-109400000D01*
X86300000Y-109400000D02*
X86675000Y-109025000D01*
X80950000Y-132500000D02*
X80325000Y-132500000D01*
X82100000Y-131350000D02*
X80950000Y-132500000D01*
X86675000Y-109025000D02*
X86675000Y-107600000D01*
X87325000Y-109125000D02*
X87550000Y-109350000D01*
X87550000Y-109350000D02*
X87975000Y-108925000D01*
X72550000Y-131600000D02*
X72550000Y-132150000D01*
X75100000Y-121800000D02*
X75100000Y-129050000D01*
X72550000Y-132150000D02*
X72900000Y-132500000D01*
X87975000Y-108925000D02*
X87975000Y-107600000D01*
X75100000Y-129050000D02*
X72550000Y-131600000D01*
X72900000Y-132500000D02*
X74325000Y-132500000D01*
X87325000Y-107600000D02*
X87325000Y-109125000D01*
X87550000Y-109350000D02*
X75100000Y-121800000D01*
D48*
X71000000Y-135500000D02*
X70400000Y-134900000D01*
X74325000Y-135500000D02*
X71000000Y-135500000D01*
X74325000Y-134500000D02*
X71250000Y-134500000D01*
X71250000Y-134500000D02*
X70800000Y-134050000D01*
D46*
X82750000Y-127000000D02*
X85937500Y-127000000D01*
X78000000Y-127750000D02*
X81500000Y-127750000D01*
X82000000Y-127750000D02*
X82750000Y-127000000D01*
X81500000Y-127750000D02*
X82000000Y-127750000D01*
X56404000Y-49904000D02*
X57438800Y-49904000D01*
D48*
X59276800Y-48066000D02*
X59276800Y-48065900D01*
D46*
X59276800Y-48066000D02*
X59276900Y-48065900D01*
X62700000Y-53700000D02*
X63800000Y-53700000D01*
X62200000Y-53200000D02*
X62700000Y-53700000D01*
X57438800Y-49904000D02*
X59276800Y-48066000D01*
X74945000Y-46000000D02*
X75460000Y-45485000D01*
X75460000Y-45485000D02*
X76721600Y-46746600D01*
X84800000Y-51000000D02*
X108371600Y-51000000D01*
X80546600Y-46746600D02*
X84800000Y-51000000D01*
X111200000Y-59400000D02*
X112200000Y-60400000D01*
X111200000Y-52900000D02*
X111200000Y-59400000D01*
X108718136Y-51403400D02*
X109703400Y-51403400D01*
X108371600Y-51000000D02*
X108371600Y-51056864D01*
X72550000Y-46000000D02*
X74945000Y-46000000D01*
X108371600Y-51056864D02*
X108718136Y-51403400D01*
X76721600Y-46746600D02*
X80546600Y-46746600D01*
X109703400Y-51403400D02*
X111200000Y-52900000D01*
X109965000Y-45450000D02*
X110000000Y-45485000D01*
X109300000Y-53800000D02*
X109600000Y-53500000D01*
X107600000Y-48700000D02*
X107600000Y-47885000D01*
X107900000Y-53800000D02*
X109300000Y-53800000D01*
X107600000Y-47885000D02*
X110000000Y-45485000D01*
D48*
X126085600Y-45428300D02*
X126085500Y-45428300D01*
X126085500Y-45428300D02*
X126085400Y-45428400D01*
D46*
X126085400Y-45428400D02*
X126934000Y-46276900D01*
D48*
X126934100Y-46276800D02*
X126085600Y-45428300D01*
D46*
X122596000Y-45404000D02*
X126061000Y-45404000D01*
X126061000Y-45404000D02*
X126085400Y-45428400D01*
D48*
X87950000Y-126050000D02*
X88900000Y-127000000D01*
X84062500Y-126050000D02*
X87950000Y-126050000D01*
X120150000Y-62950000D02*
X120150000Y-61650000D01*
X84600000Y-61050000D02*
X83550000Y-60000000D01*
X123890000Y-62380000D02*
X122670000Y-63600000D01*
X81950000Y-59300000D02*
X81650000Y-59000000D01*
X122670000Y-63600000D02*
X120800000Y-63600000D01*
X120150000Y-61650000D02*
X119550000Y-61050000D01*
X119550000Y-61050000D02*
X84600000Y-61050000D01*
X81650000Y-59000000D02*
X79500000Y-59000000D01*
X120800000Y-63600000D02*
X120150000Y-62950000D01*
D46*
X114450000Y-60500000D02*
X113000000Y-59050000D01*
X121350000Y-61850000D02*
X120000000Y-60500000D01*
X121350000Y-62380000D02*
X121350000Y-61850000D01*
X120000000Y-60500000D02*
X114450000Y-60500000D01*
D47*
X101325000Y-108725000D02*
X101600000Y-109000000D01*
X101325000Y-107600000D02*
X101325000Y-108725000D01*
X101600000Y-118900000D02*
X100700000Y-119800000D01*
X101600000Y-109000000D02*
X101600000Y-118900000D01*
X100700000Y-119800000D02*
X96600000Y-119800000D01*
X101975000Y-108625000D02*
X101975000Y-107600000D01*
X86325000Y-132500000D02*
X83800000Y-132500000D01*
X101600000Y-109000000D02*
X101975000Y-108625000D01*
D48*
X89853000Y-134500000D02*
X90547100Y-135194100D01*
X86325000Y-134500000D02*
X89853000Y-134500000D01*
D52*
X118810000Y-66510000D02*
X120600000Y-68300000D01*
X100100000Y-84800000D02*
X98100000Y-86800000D01*
X117500000Y-76100000D02*
X117500000Y-78900000D01*
X120600000Y-73000000D02*
X117500000Y-76100000D01*
X98100000Y-86800000D02*
X98100000Y-93900000D01*
X118810000Y-62380000D02*
X118810000Y-66510000D01*
X108800000Y-84800000D02*
X100100000Y-84800000D01*
X117500000Y-78900000D02*
X111600000Y-84800000D01*
X98075000Y-100400000D02*
X98075000Y-96725000D01*
X111600000Y-84800000D02*
X110400000Y-84800000D01*
X120600000Y-68300000D02*
X120600000Y-73000000D01*
X98075000Y-96725000D02*
X98400000Y-96400000D01*
X119600000Y-72900000D02*
X118400000Y-74100000D01*
X115000000Y-74900000D02*
X115000000Y-78800000D01*
X116270000Y-65970000D02*
X119600000Y-69300000D01*
X109600000Y-90200000D02*
X105200000Y-94600000D01*
X105200000Y-94600000D02*
X104900000Y-94600000D01*
X103275000Y-100400000D02*
X103275000Y-97825000D01*
X119600000Y-69300000D02*
X119600000Y-72900000D01*
X103275000Y-97825000D02*
X103400000Y-97700000D01*
X116270000Y-62380000D02*
X116270000Y-65970000D01*
X115800000Y-74100000D02*
X115000000Y-74900000D01*
X118400000Y-74100000D02*
X115800000Y-74100000D01*
X115000000Y-78800000D02*
X109600000Y-84200000D01*
X109600000Y-84200000D02*
X109600000Y-90200000D01*
D46*
X65261000Y-54050000D02*
X66500000Y-54050000D01*
X68050000Y-52500000D02*
X74000000Y-52500000D01*
X75500000Y-51000000D02*
X75500000Y-48000000D01*
X74000000Y-52500000D02*
X75500000Y-51000000D01*
X61174900Y-49963900D02*
X65261000Y-54050000D01*
X66500000Y-54050000D02*
X68050000Y-52500000D01*
X80500000Y-52000000D02*
X80500000Y-50500000D01*
X80500000Y-50500000D02*
X78040000Y-48040000D01*
X80000000Y-52500000D02*
X80500000Y-52000000D01*
X78040000Y-48040000D02*
X78040000Y-48000000D01*
X78937500Y-52500000D02*
X80000000Y-52500000D01*
X123000000Y-57000000D02*
X122450000Y-57550000D01*
X122450000Y-57550000D02*
X120437500Y-57550000D01*
D48*
X120438000Y-57550000D02*
X120437500Y-57550000D01*
D46*
X118500000Y-49450000D02*
X119100000Y-48850000D01*
X118500000Y-50450000D02*
X119450000Y-50450000D01*
X123898500Y-49312400D02*
X125036000Y-48174900D01*
D48*
X123898600Y-49312400D02*
X125036100Y-48174900D01*
D46*
X119450000Y-50450000D02*
X122761000Y-50450000D01*
X118500000Y-50450000D02*
X118500000Y-49450000D01*
X122761000Y-50450000D02*
X123898500Y-49312400D01*
X118500000Y-50450000D02*
X119450000Y-50450000D01*
D48*
X123898500Y-49312400D02*
X123898600Y-49312400D01*
D46*
X77062500Y-51550000D02*
X75950000Y-51550000D01*
X75400000Y-55900000D02*
X77000000Y-55900000D01*
X75950000Y-51550000D02*
X74000000Y-53500000D01*
X79500000Y-55900000D02*
X77000000Y-55900000D01*
X74000000Y-54500000D02*
X75400000Y-55900000D01*
X74000000Y-53500000D02*
X74000000Y-54500000D01*
D48*
X118562000Y-56600000D02*
X118562500Y-56600000D01*
D46*
X115500000Y-55950000D02*
X116400000Y-55950000D01*
X113000000Y-55950000D02*
X115500000Y-55950000D01*
X117050000Y-56600000D02*
X118562000Y-56600000D01*
X116400000Y-55950000D02*
X117050000Y-56600000D01*
D47*
X102625000Y-100400000D02*
X102625000Y-98252900D01*
X102700000Y-98177900D02*
X102700000Y-96500000D01*
X99511700Y-96688300D02*
X98700000Y-97500000D01*
X102625000Y-98252900D02*
X102700000Y-98177900D01*
X98700000Y-97500000D02*
X98700000Y-100375000D01*
X98700000Y-100375000D02*
X98725000Y-100400000D01*
X99375000Y-100400000D02*
X99375000Y-97925000D01*
X99375000Y-97925000D02*
X99400000Y-97900000D01*
X101975000Y-100400000D02*
X101975000Y-97925000D01*
X90575000Y-108925000D02*
X90575000Y-107600000D01*
X74325000Y-131500000D02*
X75050000Y-131500000D01*
X75682000Y-122041000D02*
X86973100Y-110750000D01*
X86973100Y-110750000D02*
X89400000Y-110750000D01*
X90200000Y-109300000D02*
X90575000Y-108925000D01*
X75682000Y-130868000D02*
X75682000Y-122041000D01*
X75050000Y-131500000D02*
X75682000Y-130868000D01*
X90200000Y-109950000D02*
X90200000Y-109300000D01*
X89400000Y-110750000D02*
X90200000Y-109950000D01*
X89925000Y-107600000D02*
X89925000Y-109025000D01*
X89925000Y-109025000D02*
X90200000Y-109300000D01*
D48*
X86051800Y-102903500D02*
X88220200Y-102903500D01*
X84725000Y-101576700D02*
X86051800Y-102903500D01*
X84725000Y-100400000D02*
X84725000Y-101576700D01*
X88625000Y-102498700D02*
X88625000Y-100400000D01*
X88220200Y-102903500D02*
X88625000Y-102498700D01*
X88576400Y-99174700D02*
X88625000Y-99223300D01*
X87838100Y-96807100D02*
X88576400Y-97545400D01*
X88625000Y-100400000D02*
X88625000Y-99223300D01*
X88576400Y-97545400D02*
X88576400Y-99174700D01*
X85728400Y-98920200D02*
X85728400Y-97948500D01*
X85375000Y-99273600D02*
X85728400Y-98920200D01*
X87975000Y-98337300D02*
X87975000Y-100400000D01*
X85375000Y-100400000D02*
X85375000Y-99273600D01*
X87641200Y-98003500D02*
X87975000Y-98337300D01*
D52*
X109900000Y-76400000D02*
X113600000Y-72700000D01*
X109900000Y-78900000D02*
X109900000Y-76400000D01*
X99800000Y-84150000D02*
X104650000Y-84150000D01*
X117700000Y-72700000D02*
X118300000Y-72100000D01*
D48*
X89275000Y-98379400D02*
X89212300Y-98316700D01*
D52*
X97350000Y-86600000D02*
X99800000Y-84150000D01*
X118300000Y-72100000D02*
X118300000Y-70800000D01*
X96600000Y-97900000D02*
X96600000Y-94750000D01*
X118300000Y-70800000D02*
X111190000Y-63690000D01*
X111190000Y-63690000D02*
X111190000Y-62380000D01*
D48*
X89275000Y-100400000D02*
X89275000Y-98379400D01*
D52*
X97350000Y-94000000D02*
X97350000Y-86600000D01*
X104650000Y-84150000D02*
X109900000Y-78900000D01*
X96600000Y-94750000D02*
X97350000Y-94000000D01*
X113600000Y-72700000D02*
X117700000Y-72700000D01*
X118800000Y-70000000D02*
X118800000Y-72500000D01*
X118800000Y-72500000D02*
X117900000Y-73400000D01*
D48*
X84075000Y-100400000D02*
X84075000Y-99521700D01*
X84624500Y-98972200D02*
X84805800Y-98972200D01*
D52*
X112500000Y-74800000D02*
X112500000Y-78800000D01*
X113730000Y-62380000D02*
X113730000Y-64930000D01*
X117900000Y-73400000D02*
X113900000Y-73400000D01*
X111691400Y-79608600D02*
X111600000Y-79700000D01*
X113730000Y-64930000D02*
X118800000Y-70000000D01*
D48*
X84075000Y-99521700D02*
X84624500Y-98972200D01*
X111717100Y-79634300D02*
X111691400Y-79608600D01*
D52*
X113900000Y-73400000D02*
X112500000Y-74800000D01*
X112500000Y-78800000D02*
X111691400Y-79608600D01*
D47*
X84075000Y-107600000D02*
X84075000Y-108525000D01*
X80950000Y-131500000D02*
X81600000Y-130850000D01*
X84075000Y-108525000D02*
X83425000Y-109175000D01*
X83425000Y-107600000D02*
X83425000Y-109175000D01*
X80325000Y-131500000D02*
X80950000Y-131500000D01*
X81600000Y-130850000D02*
X81600000Y-130000000D01*
D52*
X94095000Y-57800000D02*
X90195000Y-53900000D01*
X95700000Y-57800000D02*
X94095000Y-57800000D01*
X93310000Y-59555000D02*
X87655000Y-53900000D01*
X95395000Y-59555000D02*
X93310000Y-59555000D01*
D48*
X118750000Y-130250000D02*
X117750000Y-131250000D01*
X112550000Y-126800000D02*
X113250000Y-127500000D01*
X112550000Y-126000000D02*
X112550000Y-126800000D01*
X118750000Y-129750000D02*
X118750000Y-130250000D01*
X117750000Y-131250000D02*
X117075000Y-131250000D01*
X102500000Y-126000000D02*
X102000000Y-126500000D01*
X118750000Y-137000000D02*
X117500000Y-138250000D01*
X117500000Y-138250000D02*
X117075000Y-138250000D01*
X103450000Y-126000000D02*
X102500000Y-126000000D01*
X96403000Y-76753000D02*
X96403000Y-72617800D01*
X93849000Y-79849000D02*
X93500000Y-79500000D01*
X92000000Y-127000000D02*
X93849000Y-125151000D01*
X97053000Y-68750000D02*
X99150000Y-68750000D01*
X96203000Y-72417800D02*
X96203000Y-69600000D01*
X99750000Y-66317100D02*
X100151000Y-65916100D01*
X100151000Y-65916100D02*
X100151000Y-64816100D01*
X104940000Y-63550000D02*
X106110000Y-62380000D01*
X96403000Y-72617800D02*
X96203000Y-72417800D01*
X103000000Y-63550000D02*
X104940000Y-63550000D01*
X96203000Y-69600000D02*
X97053000Y-68750000D01*
X93849000Y-125151000D02*
X93849000Y-79849000D01*
X102549000Y-64001000D02*
X103000000Y-63550000D01*
X99750000Y-68150000D02*
X99750000Y-66317100D01*
X99150000Y-68750000D02*
X99750000Y-68150000D01*
X96650000Y-77000000D02*
X96403000Y-76753000D01*
X100966000Y-64001000D02*
X102549000Y-64001000D01*
X100151000Y-64816100D02*
X100966000Y-64001000D01*
X95601000Y-72950000D02*
X95401000Y-72750000D01*
X95401000Y-72750000D02*
X95401000Y-66036100D01*
X95601000Y-73899000D02*
X95601000Y-72950000D01*
X94250000Y-130500000D02*
X94250000Y-75250000D01*
X99722900Y-63687100D02*
X101030000Y-62380000D01*
X97750000Y-63687100D02*
X99722900Y-63687100D01*
X101502000Y-132882000D02*
X96631500Y-132882000D01*
X96631500Y-132882000D02*
X94250000Y-130500000D01*
X95401000Y-66036100D02*
X97750000Y-63687100D01*
X105620000Y-137000000D02*
X101502000Y-132882000D01*
X94250000Y-75250000D02*
X95601000Y-73899000D01*
X95052000Y-130168000D02*
X95052000Y-81058000D01*
X105780000Y-132080000D02*
X96963700Y-132080000D01*
X110700000Y-137000000D02*
X105780000Y-132080000D01*
X96963700Y-132080000D02*
X95052000Y-130168000D01*
X95052000Y-81058000D02*
X98490000Y-77620000D01*
X96802000Y-66200000D02*
X99300000Y-66200000D01*
X95453000Y-130002000D02*
X95453000Y-82047000D01*
X100800000Y-63600000D02*
X102350000Y-63600000D01*
X99300000Y-66200000D02*
X99750000Y-65750000D01*
X95802000Y-72583900D02*
X95802000Y-67200000D01*
X102350000Y-63600000D02*
X103570000Y-62380000D01*
X96000000Y-78750000D02*
X96000000Y-75050000D01*
X97129800Y-131678000D02*
X95453000Y-130002000D01*
X99750000Y-64650000D02*
X100800000Y-63600000D01*
X95802000Y-67200000D02*
X96802000Y-66200000D01*
X96000000Y-75050000D02*
X96002000Y-75048000D01*
X96002000Y-72783900D02*
X95802000Y-72583900D01*
X95453000Y-82047000D02*
X96000000Y-81500000D01*
X99750000Y-65750000D02*
X99750000Y-64650000D01*
X110700000Y-129380000D02*
X108402000Y-131678000D01*
X96002000Y-75048000D02*
X96002000Y-72783900D01*
X108402000Y-131678000D02*
X97129800Y-131678000D01*
X94651000Y-130334000D02*
X94651000Y-79599000D01*
X94658600Y-130341000D02*
X94651000Y-130334000D01*
X95000000Y-79250000D02*
X95000000Y-75750000D01*
X103640000Y-132480000D02*
X96797600Y-132480000D01*
X95000000Y-65870000D02*
X98490000Y-62380000D01*
X96797600Y-132480000D02*
X94658600Y-130341000D01*
X94651000Y-79599000D02*
X95000000Y-79250000D01*
X108160000Y-137000000D02*
X103640000Y-132480000D01*
X95000000Y-73500000D02*
X95000000Y-65870000D01*
D52*
X117075000Y-126750000D02*
X118700000Y-125125000D01*
X116000000Y-86600000D02*
X112400000Y-86600000D01*
X118700000Y-89300000D02*
X116000000Y-86600000D01*
X118700000Y-125125000D02*
X118700000Y-89300000D01*
X117075000Y-132875000D02*
X115950000Y-131750000D01*
X119155000Y-79956900D02*
X119762000Y-79350000D01*
X122160000Y-79350000D02*
X123890000Y-77620000D01*
X115950000Y-131750000D02*
X115950000Y-130550000D01*
X115950000Y-130550000D02*
X119155000Y-127345000D01*
X117075000Y-133750000D02*
X117075000Y-132875000D01*
X119762000Y-79350000D02*
X122160000Y-79350000D01*
X119155000Y-127345000D02*
X119155000Y-79956900D01*
D48*
X124372000Y-73500000D02*
X124371600Y-73500000D01*
X124372000Y-72500000D02*
X124371600Y-72500000D01*
X104500000Y-68800000D02*
X104900000Y-68400000D01*
X95854000Y-86500000D02*
X95854000Y-83946000D01*
X105500000Y-66200000D02*
X107200000Y-66200000D01*
X108700000Y-64700000D02*
X108700000Y-62430000D01*
X101500000Y-79200000D02*
X102300000Y-78400000D01*
X104900000Y-66800000D02*
X105500000Y-66200000D01*
X102300000Y-69300000D02*
X102800000Y-68800000D01*
X100600000Y-79200000D02*
X101500000Y-79200000D01*
X102300000Y-78400000D02*
X102300000Y-69300000D01*
X102800000Y-68800000D02*
X104500000Y-68800000D01*
X104900000Y-68400000D02*
X104900000Y-66800000D01*
X95854000Y-125800000D02*
X95854000Y-86500000D01*
X95854000Y-127234000D02*
X95854000Y-125800000D01*
X98000000Y-129380000D02*
X95854000Y-127234000D01*
X108700000Y-62430000D02*
X108650000Y-62380000D01*
X96100000Y-83700000D02*
X100200000Y-79600000D01*
X100200000Y-79600000D02*
X100600000Y-79200000D01*
X107200000Y-66200000D02*
X108700000Y-64700000D01*
X95854000Y-83946000D02*
X96100000Y-83700000D01*
M02*
