G04 #@! TF.GenerationSoftware,KiCad,Pcbnew,8.0.7*
G04 #@! TF.CreationDate,2025-01-21T22:00:36-05:00*
G04 #@! TF.ProjectId,A-Stable,412d5374-6162-46c6-952e-6b696361645f,rev?*
G04 #@! TF.SameCoordinates,Original*
G04 #@! TF.FileFunction,Legend,Top*
G04 #@! TF.FilePolarity,Positive*
%FSLAX46Y46*%
G04 Gerber Fmt 4.6, Leading zero omitted, Abs format (unit mm)*
G04 Created by KiCad (PCBNEW 8.0.7) date 2025-01-21 22:00:36*
%MOMM*%
%LPD*%
G01*
G04 APERTURE LIST*
%ADD10C,0.100000*%
%ADD11C,0.150000*%
%ADD12C,0.120000*%
%ADD13R,1.700000X1.700000*%
%ADD14O,1.700000X1.700000*%
%ADD15R,1.600000X1.600000*%
%ADD16O,1.600000X1.600000*%
%ADD17C,1.400000*%
%ADD18O,1.400000X1.400000*%
%ADD19C,1.600000*%
G04 APERTURE END LIST*
D10*
X145256265Y-108586704D02*
X145732455Y-108586704D01*
X145161027Y-108872419D02*
X145494360Y-107872419D01*
X145494360Y-107872419D02*
X145827693Y-108872419D01*
X146161027Y-108872419D02*
X146161027Y-108205752D01*
X146161027Y-108396228D02*
X146208646Y-108300990D01*
X146208646Y-108300990D02*
X146256265Y-108253371D01*
X146256265Y-108253371D02*
X146351503Y-108205752D01*
X146351503Y-108205752D02*
X146446741Y-108205752D01*
X147208646Y-108872419D02*
X147208646Y-108348609D01*
X147208646Y-108348609D02*
X147161027Y-108253371D01*
X147161027Y-108253371D02*
X147065789Y-108205752D01*
X147065789Y-108205752D02*
X146875313Y-108205752D01*
X146875313Y-108205752D02*
X146780075Y-108253371D01*
X147208646Y-108824800D02*
X147113408Y-108872419D01*
X147113408Y-108872419D02*
X146875313Y-108872419D01*
X146875313Y-108872419D02*
X146780075Y-108824800D01*
X146780075Y-108824800D02*
X146732456Y-108729561D01*
X146732456Y-108729561D02*
X146732456Y-108634323D01*
X146732456Y-108634323D02*
X146780075Y-108539085D01*
X146780075Y-108539085D02*
X146875313Y-108491466D01*
X146875313Y-108491466D02*
X147113408Y-108491466D01*
X147113408Y-108491466D02*
X147208646Y-108443847D01*
X148113408Y-108205752D02*
X148113408Y-109015276D01*
X148113408Y-109015276D02*
X148065789Y-109110514D01*
X148065789Y-109110514D02*
X148018170Y-109158133D01*
X148018170Y-109158133D02*
X147922932Y-109205752D01*
X147922932Y-109205752D02*
X147780075Y-109205752D01*
X147780075Y-109205752D02*
X147684837Y-109158133D01*
X148113408Y-108824800D02*
X148018170Y-108872419D01*
X148018170Y-108872419D02*
X147827694Y-108872419D01*
X147827694Y-108872419D02*
X147732456Y-108824800D01*
X147732456Y-108824800D02*
X147684837Y-108777180D01*
X147684837Y-108777180D02*
X147637218Y-108681942D01*
X147637218Y-108681942D02*
X147637218Y-108396228D01*
X147637218Y-108396228D02*
X147684837Y-108300990D01*
X147684837Y-108300990D02*
X147732456Y-108253371D01*
X147732456Y-108253371D02*
X147827694Y-108205752D01*
X147827694Y-108205752D02*
X148018170Y-108205752D01*
X148018170Y-108205752D02*
X148113408Y-108253371D01*
X148494361Y-108205752D02*
X148732456Y-108872419D01*
X148970551Y-108205752D02*
X148732456Y-108872419D01*
X148732456Y-108872419D02*
X148637218Y-109110514D01*
X148637218Y-109110514D02*
X148589599Y-109158133D01*
X148589599Y-109158133D02*
X148494361Y-109205752D01*
X149780075Y-108872419D02*
X149780075Y-108348609D01*
X149780075Y-108348609D02*
X149732456Y-108253371D01*
X149732456Y-108253371D02*
X149637218Y-108205752D01*
X149637218Y-108205752D02*
X149446742Y-108205752D01*
X149446742Y-108205752D02*
X149351504Y-108253371D01*
X149780075Y-108824800D02*
X149684837Y-108872419D01*
X149684837Y-108872419D02*
X149446742Y-108872419D01*
X149446742Y-108872419D02*
X149351504Y-108824800D01*
X149351504Y-108824800D02*
X149303885Y-108729561D01*
X149303885Y-108729561D02*
X149303885Y-108634323D01*
X149303885Y-108634323D02*
X149351504Y-108539085D01*
X149351504Y-108539085D02*
X149446742Y-108491466D01*
X149446742Y-108491466D02*
X149684837Y-108491466D01*
X149684837Y-108491466D02*
X149780075Y-108443847D01*
X151541980Y-107920038D02*
X151446742Y-107872419D01*
X151446742Y-107872419D02*
X151303885Y-107872419D01*
X151303885Y-107872419D02*
X151161028Y-107920038D01*
X151161028Y-107920038D02*
X151065790Y-108015276D01*
X151065790Y-108015276D02*
X151018171Y-108110514D01*
X151018171Y-108110514D02*
X150970552Y-108300990D01*
X150970552Y-108300990D02*
X150970552Y-108443847D01*
X150970552Y-108443847D02*
X151018171Y-108634323D01*
X151018171Y-108634323D02*
X151065790Y-108729561D01*
X151065790Y-108729561D02*
X151161028Y-108824800D01*
X151161028Y-108824800D02*
X151303885Y-108872419D01*
X151303885Y-108872419D02*
X151399123Y-108872419D01*
X151399123Y-108872419D02*
X151541980Y-108824800D01*
X151541980Y-108824800D02*
X151589599Y-108777180D01*
X151589599Y-108777180D02*
X151589599Y-108443847D01*
X151589599Y-108443847D02*
X151399123Y-108443847D01*
X152161028Y-108872419D02*
X152065790Y-108824800D01*
X152065790Y-108824800D02*
X152018171Y-108777180D01*
X152018171Y-108777180D02*
X151970552Y-108681942D01*
X151970552Y-108681942D02*
X151970552Y-108396228D01*
X151970552Y-108396228D02*
X152018171Y-108300990D01*
X152018171Y-108300990D02*
X152065790Y-108253371D01*
X152065790Y-108253371D02*
X152161028Y-108205752D01*
X152161028Y-108205752D02*
X152303885Y-108205752D01*
X152303885Y-108205752D02*
X152399123Y-108253371D01*
X152399123Y-108253371D02*
X152446742Y-108300990D01*
X152446742Y-108300990D02*
X152494361Y-108396228D01*
X152494361Y-108396228D02*
X152494361Y-108681942D01*
X152494361Y-108681942D02*
X152446742Y-108777180D01*
X152446742Y-108777180D02*
X152399123Y-108824800D01*
X152399123Y-108824800D02*
X152303885Y-108872419D01*
X152303885Y-108872419D02*
X152161028Y-108872419D01*
X152827695Y-108205752D02*
X153065790Y-108872419D01*
X153303885Y-108205752D02*
X153065790Y-108872419D01*
X153065790Y-108872419D02*
X152970552Y-109110514D01*
X152970552Y-109110514D02*
X152922933Y-109158133D01*
X152922933Y-109158133D02*
X152827695Y-109205752D01*
X154113409Y-108872419D02*
X154113409Y-108348609D01*
X154113409Y-108348609D02*
X154065790Y-108253371D01*
X154065790Y-108253371D02*
X153970552Y-108205752D01*
X153970552Y-108205752D02*
X153780076Y-108205752D01*
X153780076Y-108205752D02*
X153684838Y-108253371D01*
X154113409Y-108824800D02*
X154018171Y-108872419D01*
X154018171Y-108872419D02*
X153780076Y-108872419D01*
X153780076Y-108872419D02*
X153684838Y-108824800D01*
X153684838Y-108824800D02*
X153637219Y-108729561D01*
X153637219Y-108729561D02*
X153637219Y-108634323D01*
X153637219Y-108634323D02*
X153684838Y-108539085D01*
X153684838Y-108539085D02*
X153780076Y-108491466D01*
X153780076Y-108491466D02*
X154018171Y-108491466D01*
X154018171Y-108491466D02*
X154113409Y-108443847D01*
X154732457Y-108872419D02*
X154637219Y-108824800D01*
X154637219Y-108824800D02*
X154589600Y-108729561D01*
X154589600Y-108729561D02*
X154589600Y-107872419D01*
D11*
X144284819Y-90328333D02*
X144999104Y-90328333D01*
X144999104Y-90328333D02*
X145141961Y-90375952D01*
X145141961Y-90375952D02*
X145237200Y-90471190D01*
X145237200Y-90471190D02*
X145284819Y-90614047D01*
X145284819Y-90614047D02*
X145284819Y-90709285D01*
X144380057Y-89899761D02*
X144332438Y-89852142D01*
X144332438Y-89852142D02*
X144284819Y-89756904D01*
X144284819Y-89756904D02*
X144284819Y-89518809D01*
X144284819Y-89518809D02*
X144332438Y-89423571D01*
X144332438Y-89423571D02*
X144380057Y-89375952D01*
X144380057Y-89375952D02*
X144475295Y-89328333D01*
X144475295Y-89328333D02*
X144570533Y-89328333D01*
X144570533Y-89328333D02*
X144713390Y-89375952D01*
X144713390Y-89375952D02*
X145284819Y-89947380D01*
X145284819Y-89947380D02*
X145284819Y-89328333D01*
X150748095Y-90324819D02*
X150748095Y-91134342D01*
X150748095Y-91134342D02*
X150795714Y-91229580D01*
X150795714Y-91229580D02*
X150843333Y-91277200D01*
X150843333Y-91277200D02*
X150938571Y-91324819D01*
X150938571Y-91324819D02*
X151129047Y-91324819D01*
X151129047Y-91324819D02*
X151224285Y-91277200D01*
X151224285Y-91277200D02*
X151271904Y-91229580D01*
X151271904Y-91229580D02*
X151319523Y-91134342D01*
X151319523Y-91134342D02*
X151319523Y-90324819D01*
X152319523Y-91324819D02*
X151748095Y-91324819D01*
X152033809Y-91324819D02*
X152033809Y-90324819D01*
X152033809Y-90324819D02*
X151938571Y-90467676D01*
X151938571Y-90467676D02*
X151843333Y-90562914D01*
X151843333Y-90562914D02*
X151748095Y-90610533D01*
X144284819Y-105103333D02*
X144999104Y-105103333D01*
X144999104Y-105103333D02*
X145141961Y-105150952D01*
X145141961Y-105150952D02*
X145237200Y-105246190D01*
X145237200Y-105246190D02*
X145284819Y-105389047D01*
X145284819Y-105389047D02*
X145284819Y-105484285D01*
X145284819Y-104103333D02*
X145284819Y-104674761D01*
X145284819Y-104389047D02*
X144284819Y-104389047D01*
X144284819Y-104389047D02*
X144427676Y-104484285D01*
X144427676Y-104484285D02*
X144522914Y-104579523D01*
X144522914Y-104579523D02*
X144570533Y-104674761D01*
X161874819Y-94666666D02*
X161398628Y-94999999D01*
X161874819Y-95238094D02*
X160874819Y-95238094D01*
X160874819Y-95238094D02*
X160874819Y-94857142D01*
X160874819Y-94857142D02*
X160922438Y-94761904D01*
X160922438Y-94761904D02*
X160970057Y-94714285D01*
X160970057Y-94714285D02*
X161065295Y-94666666D01*
X161065295Y-94666666D02*
X161208152Y-94666666D01*
X161208152Y-94666666D02*
X161303390Y-94714285D01*
X161303390Y-94714285D02*
X161351009Y-94761904D01*
X161351009Y-94761904D02*
X161398628Y-94857142D01*
X161398628Y-94857142D02*
X161398628Y-95238094D01*
X161874819Y-93714285D02*
X161874819Y-94285713D01*
X161874819Y-93999999D02*
X160874819Y-93999999D01*
X160874819Y-93999999D02*
X161017676Y-94095237D01*
X161017676Y-94095237D02*
X161112914Y-94190475D01*
X161112914Y-94190475D02*
X161160533Y-94285713D01*
X165874819Y-99666666D02*
X165398628Y-99999999D01*
X165874819Y-100238094D02*
X164874819Y-100238094D01*
X164874819Y-100238094D02*
X164874819Y-99857142D01*
X164874819Y-99857142D02*
X164922438Y-99761904D01*
X164922438Y-99761904D02*
X164970057Y-99714285D01*
X164970057Y-99714285D02*
X165065295Y-99666666D01*
X165065295Y-99666666D02*
X165208152Y-99666666D01*
X165208152Y-99666666D02*
X165303390Y-99714285D01*
X165303390Y-99714285D02*
X165351009Y-99761904D01*
X165351009Y-99761904D02*
X165398628Y-99857142D01*
X165398628Y-99857142D02*
X165398628Y-100238094D01*
X164970057Y-99285713D02*
X164922438Y-99238094D01*
X164922438Y-99238094D02*
X164874819Y-99142856D01*
X164874819Y-99142856D02*
X164874819Y-98904761D01*
X164874819Y-98904761D02*
X164922438Y-98809523D01*
X164922438Y-98809523D02*
X164970057Y-98761904D01*
X164970057Y-98761904D02*
X165065295Y-98714285D01*
X165065295Y-98714285D02*
X165160533Y-98714285D01*
X165160533Y-98714285D02*
X165303390Y-98761904D01*
X165303390Y-98761904D02*
X165874819Y-99333332D01*
X165874819Y-99333332D02*
X165874819Y-98714285D01*
X160083333Y-90659580D02*
X160035714Y-90707200D01*
X160035714Y-90707200D02*
X159892857Y-90754819D01*
X159892857Y-90754819D02*
X159797619Y-90754819D01*
X159797619Y-90754819D02*
X159654762Y-90707200D01*
X159654762Y-90707200D02*
X159559524Y-90611961D01*
X159559524Y-90611961D02*
X159511905Y-90516723D01*
X159511905Y-90516723D02*
X159464286Y-90326247D01*
X159464286Y-90326247D02*
X159464286Y-90183390D01*
X159464286Y-90183390D02*
X159511905Y-89992914D01*
X159511905Y-89992914D02*
X159559524Y-89897676D01*
X159559524Y-89897676D02*
X159654762Y-89802438D01*
X159654762Y-89802438D02*
X159797619Y-89754819D01*
X159797619Y-89754819D02*
X159892857Y-89754819D01*
X159892857Y-89754819D02*
X160035714Y-89802438D01*
X160035714Y-89802438D02*
X160083333Y-89850057D01*
X160464286Y-89850057D02*
X160511905Y-89802438D01*
X160511905Y-89802438D02*
X160607143Y-89754819D01*
X160607143Y-89754819D02*
X160845238Y-89754819D01*
X160845238Y-89754819D02*
X160940476Y-89802438D01*
X160940476Y-89802438D02*
X160988095Y-89850057D01*
X160988095Y-89850057D02*
X161035714Y-89945295D01*
X161035714Y-89945295D02*
X161035714Y-90040533D01*
X161035714Y-90040533D02*
X160988095Y-90183390D01*
X160988095Y-90183390D02*
X160416667Y-90754819D01*
X160416667Y-90754819D02*
X161035714Y-90754819D01*
X159333333Y-109154468D02*
X159285714Y-109202088D01*
X159285714Y-109202088D02*
X159142857Y-109249707D01*
X159142857Y-109249707D02*
X159047619Y-109249707D01*
X159047619Y-109249707D02*
X158904762Y-109202088D01*
X158904762Y-109202088D02*
X158809524Y-109106849D01*
X158809524Y-109106849D02*
X158761905Y-109011611D01*
X158761905Y-109011611D02*
X158714286Y-108821135D01*
X158714286Y-108821135D02*
X158714286Y-108678278D01*
X158714286Y-108678278D02*
X158761905Y-108487802D01*
X158761905Y-108487802D02*
X158809524Y-108392564D01*
X158809524Y-108392564D02*
X158904762Y-108297326D01*
X158904762Y-108297326D02*
X159047619Y-108249707D01*
X159047619Y-108249707D02*
X159142857Y-108249707D01*
X159142857Y-108249707D02*
X159285714Y-108297326D01*
X159285714Y-108297326D02*
X159333333Y-108344945D01*
X160285714Y-109249707D02*
X159714286Y-109249707D01*
X160000000Y-109249707D02*
X160000000Y-108249707D01*
X160000000Y-108249707D02*
X159904762Y-108392564D01*
X159904762Y-108392564D02*
X159809524Y-108487802D01*
X159809524Y-108487802D02*
X159714286Y-108535421D01*
D12*
X143830000Y-87395000D02*
X143830000Y-88725000D01*
X142500000Y-87395000D02*
X143830000Y-87395000D01*
X141230000Y-87395000D02*
X141170000Y-87395000D01*
X141230000Y-87395000D02*
X141230000Y-89995000D01*
X141170000Y-87395000D02*
X141170000Y-92595000D01*
X143830000Y-89995000D02*
X143830000Y-92595000D01*
X141230000Y-89995000D02*
X143830000Y-89995000D01*
X143830000Y-92595000D02*
X141170000Y-92595000D01*
X148860000Y-91870000D02*
X148860000Y-102150000D01*
X148860000Y-102150000D02*
X154160000Y-102150000D01*
X150510000Y-91870000D02*
X148860000Y-91870000D01*
X154160000Y-91870000D02*
X152510000Y-91870000D01*
X154160000Y-102150000D02*
X154160000Y-91870000D01*
X152510000Y-91870000D02*
G75*
G02*
X150510000Y-91870000I-1000000J0D01*
G01*
X141170000Y-102170000D02*
X141170000Y-107370000D01*
X141230000Y-102170000D02*
X141170000Y-102170000D01*
X141230000Y-102170000D02*
X141230000Y-104770000D01*
X141230000Y-104770000D02*
X143830000Y-104770000D01*
X142500000Y-102170000D02*
X143830000Y-102170000D01*
X143830000Y-102170000D02*
X143830000Y-103500000D01*
X143830000Y-104770000D02*
X143830000Y-107370000D01*
X143830000Y-107370000D02*
X141170000Y-107370000D01*
X158580000Y-92580000D02*
X158580000Y-96420000D01*
X160420000Y-92580000D02*
X160420000Y-96420000D01*
X162580000Y-97580000D02*
X162580000Y-101420000D01*
X164420000Y-97580000D02*
X164420000Y-101420000D01*
X158230000Y-86955000D02*
X158230000Y-86330000D01*
X158230000Y-89170000D02*
X158230000Y-88545000D01*
X162270000Y-86330000D02*
X158230000Y-86330000D01*
X162270000Y-86955000D02*
X162270000Y-86330000D01*
X162270000Y-89170000D02*
X158230000Y-89170000D01*
X162270000Y-89170000D02*
X162270000Y-88545000D01*
X156899000Y-105328888D02*
X156899000Y-104760888D01*
X156939000Y-105562888D02*
X156939000Y-104526888D01*
X156979000Y-105721888D02*
X156979000Y-104367888D01*
X157019000Y-105849888D02*
X157019000Y-104239888D01*
X157059000Y-105959888D02*
X157059000Y-104129888D01*
X157099000Y-106055888D02*
X157099000Y-104033888D01*
X157139000Y-106142888D02*
X157139000Y-103946888D01*
X157179000Y-106222888D02*
X157179000Y-103866888D01*
X157219000Y-106295888D02*
X157219000Y-103793888D01*
X157259000Y-106363888D02*
X157259000Y-103725888D01*
X157299000Y-106427888D02*
X157299000Y-103661888D01*
X157339000Y-106487888D02*
X157339000Y-103601888D01*
X157379000Y-106544888D02*
X157379000Y-103544888D01*
X157419000Y-106598888D02*
X157419000Y-103490888D01*
X157459000Y-106649888D02*
X157459000Y-103439888D01*
X157499000Y-104004888D02*
X157499000Y-103391888D01*
X157499000Y-106697888D02*
X157499000Y-106084888D01*
X157539000Y-104004888D02*
X157539000Y-103345888D01*
X157539000Y-106743888D02*
X157539000Y-106084888D01*
X157579000Y-104004888D02*
X157579000Y-103301888D01*
X157579000Y-106787888D02*
X157579000Y-106084888D01*
X157619000Y-104004888D02*
X157619000Y-103259888D01*
X157619000Y-106829888D02*
X157619000Y-106084888D01*
X157659000Y-104004888D02*
X157659000Y-103218888D01*
X157659000Y-106870888D02*
X157659000Y-106084888D01*
X157699000Y-104004888D02*
X157699000Y-103180888D01*
X157699000Y-106908888D02*
X157699000Y-106084888D01*
X157739000Y-104004888D02*
X157739000Y-103143888D01*
X157739000Y-106945888D02*
X157739000Y-106084888D01*
X157779000Y-104004888D02*
X157779000Y-103107888D01*
X157779000Y-106981888D02*
X157779000Y-106084888D01*
X157819000Y-104004888D02*
X157819000Y-103073888D01*
X157819000Y-107015888D02*
X157819000Y-106084888D01*
X157859000Y-104004888D02*
X157859000Y-103040888D01*
X157859000Y-107048888D02*
X157859000Y-106084888D01*
X157899000Y-104004888D02*
X157899000Y-103009888D01*
X157899000Y-107079888D02*
X157899000Y-106084888D01*
X157939000Y-104004888D02*
X157939000Y-102979888D01*
X157939000Y-107109888D02*
X157939000Y-106084888D01*
X157979000Y-104004888D02*
X157979000Y-102949888D01*
X157979000Y-107139888D02*
X157979000Y-106084888D01*
X158019000Y-104004888D02*
X158019000Y-102922888D01*
X158019000Y-107166888D02*
X158019000Y-106084888D01*
X158059000Y-104004888D02*
X158059000Y-102895888D01*
X158059000Y-107193888D02*
X158059000Y-106084888D01*
X158099000Y-104004888D02*
X158099000Y-102869888D01*
X158099000Y-107219888D02*
X158099000Y-106084888D01*
X158139000Y-104004888D02*
X158139000Y-102844888D01*
X158139000Y-107244888D02*
X158139000Y-106084888D01*
X158179000Y-104004888D02*
X158179000Y-102820888D01*
X158179000Y-107268888D02*
X158179000Y-106084888D01*
X158219000Y-104004888D02*
X158219000Y-102797888D01*
X158219000Y-107291888D02*
X158219000Y-106084888D01*
X158259000Y-104004888D02*
X158259000Y-102776888D01*
X158259000Y-107312888D02*
X158259000Y-106084888D01*
X158299000Y-104004888D02*
X158299000Y-102754888D01*
X158299000Y-107334888D02*
X158299000Y-106084888D01*
X158339000Y-104004888D02*
X158339000Y-102734888D01*
X158339000Y-107354888D02*
X158339000Y-106084888D01*
X158379000Y-104004888D02*
X158379000Y-102715888D01*
X158379000Y-107373888D02*
X158379000Y-106084888D01*
X158419000Y-104004888D02*
X158419000Y-102696888D01*
X158419000Y-107392888D02*
X158419000Y-106084888D01*
X158459000Y-104004888D02*
X158459000Y-102679888D01*
X158459000Y-107409888D02*
X158459000Y-106084888D01*
X158499000Y-104004888D02*
X158499000Y-102662888D01*
X158499000Y-107426888D02*
X158499000Y-106084888D01*
X158539000Y-104004888D02*
X158539000Y-102646888D01*
X158539000Y-107442888D02*
X158539000Y-106084888D01*
X158579000Y-104004888D02*
X158579000Y-102630888D01*
X158579000Y-107458888D02*
X158579000Y-106084888D01*
X158619000Y-104004888D02*
X158619000Y-102616888D01*
X158619000Y-107472888D02*
X158619000Y-106084888D01*
X158659000Y-104004888D02*
X158659000Y-102602888D01*
X158659000Y-107486888D02*
X158659000Y-106084888D01*
X158699000Y-104004888D02*
X158699000Y-102589888D01*
X158699000Y-107499888D02*
X158699000Y-106084888D01*
X158739000Y-104004888D02*
X158739000Y-102576888D01*
X158739000Y-107512888D02*
X158739000Y-106084888D01*
X158779000Y-104004888D02*
X158779000Y-102564888D01*
X158779000Y-107524888D02*
X158779000Y-106084888D01*
X158820000Y-104004888D02*
X158820000Y-102553888D01*
X158820000Y-107535888D02*
X158820000Y-106084888D01*
X158860000Y-104004888D02*
X158860000Y-102543888D01*
X158860000Y-107545888D02*
X158860000Y-106084888D01*
X158900000Y-104004888D02*
X158900000Y-102533888D01*
X158900000Y-107555888D02*
X158900000Y-106084888D01*
X158940000Y-104004888D02*
X158940000Y-102524888D01*
X158940000Y-107564888D02*
X158940000Y-106084888D01*
X158980000Y-104004888D02*
X158980000Y-102516888D01*
X158980000Y-107572888D02*
X158980000Y-106084888D01*
X159020000Y-104004888D02*
X159020000Y-102508888D01*
X159020000Y-107580888D02*
X159020000Y-106084888D01*
X159060000Y-104004888D02*
X159060000Y-102501888D01*
X159060000Y-107587888D02*
X159060000Y-106084888D01*
X159100000Y-104004888D02*
X159100000Y-102494888D01*
X159100000Y-107594888D02*
X159100000Y-106084888D01*
X159140000Y-104004888D02*
X159140000Y-102488888D01*
X159140000Y-107600888D02*
X159140000Y-106084888D01*
X159180000Y-104004888D02*
X159180000Y-102483888D01*
X159180000Y-107605888D02*
X159180000Y-106084888D01*
X159220000Y-104004888D02*
X159220000Y-102479888D01*
X159220000Y-107609888D02*
X159220000Y-106084888D01*
X159260000Y-104004888D02*
X159260000Y-102475888D01*
X159260000Y-107613888D02*
X159260000Y-106084888D01*
X159300000Y-104004888D02*
X159300000Y-102471888D01*
X159300000Y-107617888D02*
X159300000Y-106084888D01*
X159340000Y-104004888D02*
X159340000Y-102468888D01*
X159340000Y-107620888D02*
X159340000Y-106084888D01*
X159380000Y-104004888D02*
X159380000Y-102466888D01*
X159380000Y-107622888D02*
X159380000Y-106084888D01*
X159420000Y-104004888D02*
X159420000Y-102465888D01*
X159420000Y-107623888D02*
X159420000Y-106084888D01*
X159460000Y-104004888D02*
X159460000Y-102464888D01*
X159460000Y-107624888D02*
X159460000Y-106084888D01*
X159500000Y-104004888D02*
X159500000Y-102464888D01*
X159500000Y-107624888D02*
X159500000Y-106084888D01*
X162054775Y-106769888D02*
X162054775Y-106269888D01*
X162304775Y-106519888D02*
X161804775Y-106519888D01*
X162120000Y-105044888D02*
G75*
G02*
X156880000Y-105044888I-2620000J0D01*
G01*
X156880000Y-105044888D02*
G75*
G02*
X162120000Y-105044888I2620000J0D01*
G01*
%LPC*%
D13*
X142500000Y-88725000D03*
D14*
X142500000Y-91265000D03*
D15*
X147700000Y-93200000D03*
D16*
X147700000Y-95740000D03*
X147700000Y-98280000D03*
X147700000Y-100820000D03*
X155320000Y-100820000D03*
X155320000Y-98280000D03*
X155320000Y-95740000D03*
X155320000Y-93200000D03*
D13*
X142500000Y-103500000D03*
D14*
X142500000Y-106040000D03*
D17*
X159500000Y-91960000D03*
D18*
X159500000Y-97040000D03*
D17*
X163500000Y-96960000D03*
D18*
X163500000Y-102040000D03*
D19*
X161500000Y-87750000D03*
X159000000Y-87750000D03*
D15*
X160500000Y-105044888D03*
D19*
X158500000Y-105044888D03*
%LPD*%
M02*
